<mxfile host="app.diagrams.net" modified="2021-08-31T03:22:35.288Z" agent="5.0 (Windows NT 10.0; Win64; x64) AppleWebKit/537.36 (KHTML, like Gecko) Chrome/92.0.4515.159 Safari/537.36" etag="dqmorw5JMbcXXVMLQ9sX" version="15.0.3" type="github" pages="2">
  <diagram id="7rpkOHKR9IGKEGmbMCpl" name="云帆架构图">
    <mxGraphModel dx="1422" dy="706" grid="1" gridSize="10" guides="1" tooltips="1" connect="1" arrows="1" fold="1" page="1" pageScale="1" pageWidth="1169" pageHeight="827" math="0" shadow="0">
      <root>
        <mxCell id="0" />
        <mxCell id="1" parent="0" />
        <mxCell id="sUc3wa01CP6ThyDmhEzo-5" value="" style="swimlane;startSize=0;rounded=1;strokeColor=#3A8CB4;strokeWidth=4;fillColor=#000000;dashed=1;fontColor=#3A8CB4;" vertex="1" parent="1">
          <mxGeometry x="10" y="140" width="200" height="680" as="geometry">
            <mxRectangle x="270" y="310" width="50" height="40" as="alternateBounds" />
          </mxGeometry>
        </mxCell>
        <mxCell id="sUc3wa01CP6ThyDmhEzo-9" value="Client&amp;nbsp; Apps" style="text;html=1;resizable=0;autosize=1;align=center;verticalAlign=middle;points=[];fillColor=none;strokeColor=none;rounded=0;dashed=1;fontColor=#3A8CB4;fontStyle=1;fontSize=16;" vertex="1" parent="sUc3wa01CP6ThyDmhEzo-5">
          <mxGeometry x="25" y="20" width="110" height="20" as="geometry" />
        </mxCell>
        <mxCell id="sUc3wa01CP6ThyDmhEzo-23" value="" style="group" vertex="1" connectable="0" parent="sUc3wa01CP6ThyDmhEzo-5">
          <mxGeometry x="20" y="360" width="152.5" height="140" as="geometry" />
        </mxCell>
        <mxCell id="sUc3wa01CP6ThyDmhEzo-21" value="" style="rounded=1;whiteSpace=wrap;html=1;shadow=0;glass=0;dashed=1;sketch=0;fontSize=14;fontColor=#000000;strokeWidth=0;gradientColor=none;opacity=70;fillColor=#EEEEEE;strokeColor=none;" vertex="1" parent="sUc3wa01CP6ThyDmhEzo-23">
          <mxGeometry width="150" height="140" as="geometry" />
        </mxCell>
        <mxCell id="sUc3wa01CP6ThyDmhEzo-15" value="" style="image;html=1;image=img/lib/clip_art/computers/Workstation_128x128.png;rounded=1;dashed=1;fontSize=22;fontColor=#000000;strokeColor=#000000;strokeWidth=2;fillColor=#ffffff;opacity=50;" vertex="1" parent="sUc3wa01CP6ThyDmhEzo-23">
          <mxGeometry x="51.5" y="30" width="50" height="80" as="geometry" />
        </mxCell>
        <mxCell id="sUc3wa01CP6ThyDmhEzo-19" value="POS Software" style="text;html=1;strokeColor=none;fillColor=none;align=center;verticalAlign=middle;whiteSpace=wrap;rounded=0;shadow=0;glass=0;dashed=1;sketch=0;fontSize=14;fontColor=#000000;opacity=70;fontStyle=1" vertex="1" parent="sUc3wa01CP6ThyDmhEzo-23">
          <mxGeometry x="7.5" y="10" width="145" height="20" as="geometry" />
        </mxCell>
        <mxCell id="sUc3wa01CP6ThyDmhEzo-20" value="WPF/Android" style="text;html=1;strokeColor=none;fillColor=none;align=center;verticalAlign=middle;whiteSpace=wrap;rounded=0;shadow=0;glass=0;dashed=1;sketch=0;fontSize=12;fontColor=#000000;opacity=70;fontStyle=0" vertex="1" parent="sUc3wa01CP6ThyDmhEzo-23">
          <mxGeometry x="2.5" y="110" width="145" height="20" as="geometry" />
        </mxCell>
        <mxCell id="sUc3wa01CP6ThyDmhEzo-25" value="" style="group" vertex="1" connectable="0" parent="sUc3wa01CP6ThyDmhEzo-5">
          <mxGeometry x="-10" y="140" width="220" height="140" as="geometry" />
        </mxCell>
        <mxCell id="sUc3wa01CP6ThyDmhEzo-17" value="" style="rounded=1;whiteSpace=wrap;html=1;shadow=0;glass=0;dashed=1;sketch=0;fontSize=14;fontColor=#000000;strokeWidth=0;gradientColor=none;opacity=70;strokeColor=none;fillColor=#EEE;" vertex="1" parent="sUc3wa01CP6ThyDmhEzo-25">
          <mxGeometry x="30" width="150" height="140" as="geometry" />
        </mxCell>
        <mxCell id="sUc3wa01CP6ThyDmhEzo-14" value="" style="pointerEvents=1;shadow=0;dashed=0;html=1;strokeColor=none;labelPosition=center;verticalLabelPosition=bottom;verticalAlign=top;align=center;fillColor=#515151;shape=mxgraph.mscae.system_center.admin_console;rounded=1;fontSize=22;fontColor=#000000;opacity=50;" vertex="1" parent="sUc3wa01CP6ThyDmhEzo-25">
          <mxGeometry x="83.75" y="52" width="50" height="36" as="geometry" />
        </mxCell>
        <mxCell id="sUc3wa01CP6ThyDmhEzo-16" value="SPA Web App&lt;br style=&quot;font-size: 12px;&quot;&gt;(Vue)" style="text;html=1;strokeColor=none;fillColor=none;align=center;verticalAlign=middle;whiteSpace=wrap;rounded=0;shadow=0;glass=0;dashed=1;sketch=0;fontSize=12;fontColor=#000000;opacity=70;fontStyle=0" vertex="1" parent="sUc3wa01CP6ThyDmhEzo-25">
          <mxGeometry x="36.25" y="100" width="145" height="20" as="geometry" />
        </mxCell>
        <mxCell id="sUc3wa01CP6ThyDmhEzo-18" value="ERP Admin Console" style="text;html=1;strokeColor=none;fillColor=none;align=center;verticalAlign=middle;whiteSpace=wrap;rounded=0;shadow=0;glass=0;dashed=1;sketch=0;fontSize=14;fontColor=#000000;opacity=70;fontStyle=1" vertex="1" parent="sUc3wa01CP6ThyDmhEzo-25">
          <mxGeometry y="20" width="220" height="20" as="geometry" />
        </mxCell>
        <mxCell id="sUc3wa01CP6ThyDmhEzo-11" value="Microservices&amp;nbsp;Architecture" style="text;html=1;strokeColor=none;fillColor=none;align=center;verticalAlign=middle;whiteSpace=wrap;rounded=0;dashed=1;fontSize=22;fontStyle=1" vertex="1" parent="1">
          <mxGeometry x="520" y="10" width="40" height="20" as="geometry" />
        </mxCell>
        <mxCell id="sUc3wa01CP6ThyDmhEzo-30" value="" style="swimlane;startSize=0;rounded=1;strokeColor=#3A8CB4;strokeWidth=4;fillColor=#000000;dashed=1;fontColor=#3A8CB4;" vertex="1" parent="1">
          <mxGeometry x="240" y="140" width="920" height="680" as="geometry">
            <mxRectangle x="270" y="310" width="50" height="40" as="alternateBounds" />
          </mxGeometry>
        </mxCell>
        <mxCell id="sUc3wa01CP6ThyDmhEzo-31" value="Hosts" style="text;html=1;resizable=0;autosize=1;align=center;verticalAlign=middle;points=[];fillColor=none;strokeColor=none;rounded=0;dashed=1;fontColor=#3A8CB4;fontStyle=1;fontSize=16;" vertex="1" parent="sUc3wa01CP6ThyDmhEzo-30">
          <mxGeometry x="50" y="20" width="60" height="20" as="geometry" />
        </mxCell>
        <mxCell id="sUc3wa01CP6ThyDmhEzo-42" value="" style="rounded=1;whiteSpace=wrap;html=1;shadow=0;glass=0;dashed=1;sketch=0;fontSize=12;fontColor=#000000;strokeColor=#000000;strokeWidth=1;gradientColor=none;opacity=70;fillColor=none;" vertex="1" parent="sUc3wa01CP6ThyDmhEzo-30">
          <mxGeometry x="180" y="90" width="135" height="420" as="geometry" />
        </mxCell>
        <mxCell id="sUc3wa01CP6ThyDmhEzo-43" value="" style="rounded=1;whiteSpace=wrap;html=1;shadow=0;glass=0;dashed=1;sketch=0;fontSize=12;fontColor=#000000;strokeColor=#000000;strokeWidth=1;gradientColor=none;opacity=70;fillColor=none;" vertex="1" parent="sUc3wa01CP6ThyDmhEzo-30">
          <mxGeometry x="450" y="29" width="310" height="60" as="geometry" />
        </mxCell>
        <mxCell id="sUc3wa01CP6ThyDmhEzo-48" value="" style="group;rounded=1;fillColor=#EEEEEE;" vertex="1" connectable="0" parent="sUc3wa01CP6ThyDmhEzo-30">
          <mxGeometry x="820" y="170" width="60" height="280" as="geometry" />
        </mxCell>
        <mxCell id="sUc3wa01CP6ThyDmhEzo-44" value="" style="shape=cylinder3;whiteSpace=wrap;html=1;boundedLbl=1;backgroundOutline=1;size=15;rounded=1;shadow=0;glass=0;sketch=0;fontSize=12;fontColor=#000000;strokeColor=#000000;strokeWidth=1;fillColor=none;gradientColor=none;opacity=70;" vertex="1" parent="sUc3wa01CP6ThyDmhEzo-48">
          <mxGeometry width="60" height="280" as="geometry" />
        </mxCell>
        <mxCell id="sUc3wa01CP6ThyDmhEzo-46" value="Event Bus" style="text;html=1;strokeColor=none;fillColor=none;align=center;verticalAlign=middle;whiteSpace=wrap;rounded=0;shadow=0;glass=0;sketch=0;fontSize=14;fontColor=#000000;opacity=70;rotation=90;fontStyle=1" vertex="1" parent="sUc3wa01CP6ThyDmhEzo-48">
          <mxGeometry x="-30" y="159" width="120" height="32" as="geometry" />
        </mxCell>
        <mxCell id="sUc3wa01CP6ThyDmhEzo-47" value="" style="shape=image;verticalLabelPosition=bottom;verticalAlign=top;imageAspect=0;image=data:image/x-icon,AAABAAYAAAAAAAEAIABaDAAAZgAAAICAAAABACAAKAgBAMAMAABAQAAAAQAgAChCAADoFAEAMDAAAAEAIACoJQAAEFcBACAgAAABACAAqBAAALh8AQAQEAAAAQAgAGgEAABgjQEAiVBORw0KGgoAAAANSUhEUgAAAQAAAAEAEAYAAAAM4nQlAAAMIUlEQVR42u3cf6ye5V3H8c99+rQ97TlNW9bSlY1iyVrHhvwY6JxuJiPabFOkAYYyyTLRtjhxippNVCYss4mYDNGFbWzCWKbGMROD081tgtBMnDKqsDkyMChCy0j5UX6MtrS9/eN5SNgfRrQX5znnfF+vf+77+eeb67rOk3PeOXdyd32/dWuydm3auT35yMokh5OT/7rBvPXJys8lOSZZfnHDdbb0teHluZPajex/Ibn6nUluTB5c02bmbR/ruo9vT3bum/ETGpO+T5LcM/zUnXDkE7cuTS65J8kFyU881GaVL3//8HrCjpk/oRftZ5KsSzKd9P/ZYN665PbvS7pXJPdf2maJN2/ouo8dSK57/RjPCeaMiXEvAACYeQIAAAoSAABQkAAAgIIEAAAUJAAAoCABAAAFCQAAKEgAAEBBg6Tflrz6V9qN7L6dvPLBJEuTte9uMHBxMlgwup+tbwL83uFl8K8NZ746OfUjSc5J1l/ZZuR99ybZnuw8dobPZ4zetSpZNvq5LDijwcDp5FX3DW9fd0ObNS78u7Eczf/Nl5J8NsmCpGvxxsLdyQk/nvSbk+MavenyoV9P8pmxnRDMMYMke5NlX2k4czJZMp1kWbL4b8a9wRkyPbx0pzecOZmsuDbJimTBpjYjl/zWDJ/LLND9ajIY/XwGdzUYeH0yfc7wdvmz497dDHokyQ80nHd/suyWJHuSpW9qM3J6w+hmNr9SGWYNjwAAoCABAAAFCQAAKEgAAEBBAgAAChIAAFCQAACAggQAABQ0SLqFSbY3nLkmyZ8m2Tfuzc1t3eak+8Uk+5PuzY2Gnju6fmrcu5s5g68n3SWjDy2+56el1Pm9ZE5P8vYkU0nX6vfP5iQ7k1w37s3BXDBIuseTruEb4vqjk7wlyQPj3twc97YkFyZZmeQdjWYuT/KFcW9sZi14V5Jtw/sW3/PDdyQ5P8l/jHtnc9wpSXdWko1JvtFo5oIkvz3ujcFc4REAABQkAACgIAEAAAUJAAAoSAAAQEECAAAKEgAAUJAAAICCBAAAFCQAAKAgAQAABQkAAChIAABAQQIAAAoSAABQkAAAgIIEAAAUJAAAoCABAAAFCQAAKEgAAEBBAgAAChIAAFCQAACAggQAABQkAACgIAEAAAUJAAAoSAAAQEECAAAKEgAAUJAAAICCBAAAFCQAAKAgAQAABQkAAChIAABAQQIAAAoSAABQkAAAgIIEAAAUJAAAoCABAAAFCQAAKEgAAEBBAgAAChIAAFCQAACAggQAABQkAACgIAEAAAUJAAAoSAAAQEECAAAKEgAAUJAAAICCBAAAFCQAAKAgAQAABQkAAChIAABAQQIAAAoSAABQkAAAgIIEAAAUJAAAoCABAAAFCQAAKEgAAEBBAgAAChqMewH8j/4iWfn7Sb6TLPlyg3lnJFN/1veXJ+n+stEa39t1lyfpvzWeI3ox+tuS1W8e3k9+o8HAJcnSdePe1TzQJxN/Nbq+vsG8U5Opi/v+3Z9JVr2pzRIP7ei6a85LHh/nOcFLRgDMXnuTwU8leSoZ/GGDefuSiZuHt93ZbZbYXzC6mcUBkF3JYHp4u/CuBvOOTybWjntT80P3wSR90t/ZYNaSZOLTST6VDO5ttMDnQ2LHeM4HXloeAQBAQQIAAAoSAABQkAAAgIIEAAAUJAAAoCABAAAFCQAAKMiLgGavdclRX0/yXHLorQ3mbUx+8oeS3SuSYz575OP6f0n2n9r3W7cnT042WN/TSaaT/teS7kMN5j2/zoPJqVcnOS5Z8skGA/8kOfHydusr654kFybZnXTXHvm4/orklPOTg3cm7zu3wfoOJwfO7/utW5N/3zrms2JOOjz6Pdb/coNha5Infi7pdiY7r2q1QgEwe61Mpv6r4byp5PRzk/6bybEtXmV7b/JMN7z99o82WuPq4aV7Q8N9P5p8//ckWZYsPbrBvEGy7I0N11fVriRnvOB6pB5J1m9Mcm+y+YsN5k0m+5YlOS25u9X3m1IOnzm8Hvr5NvN2jd64uuvBViv0CAAAChIAAFCQAACAggQAABQkAACgIAEAAAUJAAAoSAAAQEFeBFTH7mTp2Un+KXlZizdTPZJMjwJyckODeQuTLEu6TUn30Yb7/mAynSTPJIt+s8G8J5IFL2+4PtqYTAY3JFmTTF/dYN7CZNENw9vjtox7c8xFh68ZXvu3Nxj2cLL0n5N+RXLK4lYr7Pp+203JWWe123R/V7L9LUkeSF5zUbu5AFDSrmTvh5P+6mTnia2GegQAAAUJAAAoSAAAQEECAAAKEgAAUJAAAICCBAAAFCQAAKAgbwIEgNltUZI3JlmfdLtbDRUAADC7nZRM3JR0e5LFm1oN9QgAAAoSAABQkAAAgIIEAAAUJAAAoCABAAAFCQAAKEgAAEBBAgAAChIAAFCQAACAggQAABQkAACgIAEAAAUJAAAoSAAAQEECAAAKEgAAUJAAAICCBAAAFCQAAKAgAQAABQkAAChIAABAQQIAAAoSAABQkAAAgIIEAAAUJAAAoKDBuBcA0MDjyVMfSPJAsmdHg3kTyYEbk6xMHmy5zmOS/qHh/OxuMO9bSbcpyWNJ1jeYtzGZ+vMkr02W39Ng3oFk8seSPJqsX9NgHg0JAGA+GP3h769JvratzcintiUZJF9s+J/S7veSQz+cZDrJbUc+rz8v6RYkuT7J6Q3W95Xk2JuSXJRseEWDDe9OVr8zyY5k/d82mEdDHgEAQEECAAAKEgAAUJAAAICCBAAAFCQAAKAgAQAABQkAACjIi4CA+eBQ8p2lSXYlu49pMG8ieebuJK9MnpxuvNQrRzctXrSTpNszujmlwbA9yWNXJbk/efiMBvOeTrrVSVYmh9/TZr9JkieSid9I0idp8fMuSQAA88ETyR1fSJ47M3l/gzfsJcmh93TdJzN6xXBL616iM7jlSAf0fZLkkiRbku4PjnxJW45PTv5q0t2UnLeh4V6vSVZcnORgkk83nFuKRwAAUJAAAICCBAAAFCQAAKAgAQAABQkAAChIAABAQQIAAAoSAABQkDcBAvPBuuTQVJL7kn0fbzOy/+Nxb2pMPjra/6oGs25NDn81yauS/bc2XOMFST6XZMGMn848IgCA+WAi6W8e3b+hzcj+86Obzx/RmDmk65Ikz44+Pvv/nzTU9zkqyZ1J/1jSb2+40l9KctnMn9D84hEAABQkAACgIAEAAAUJAAAoSAAAQEECAAAKEgAAUJAAAICCBAAAFCQAAKAgAQAABQkAAChIAABAQQIAAAoSAABQkAAAgIIEAAAUJAAAoKDBuBcA0MCKZPGVycIfTFb8dJuRB7+U5B+TPePe24zp+5/dngxWDz8tfF2Dkb+TLHk06T6RTH6g4VLPSXLmGI5oXhEAwHxwVDJ5dtIdlaxu9Idm3x9lGADbx725mfX8H/7pOxsMuyqZ+nCSk5IlZzVcZJfklpk/m/nFIwAAKEgAAEBBAgAAChIAAFCQAACAggQAABQkAACgIAEAAAV5ERAwHxxIVlyeZHey8bYG85Yl+6/v+617kzzVcJ23JrlhuN7sm/lj+t/0pyVTW5JsSZZf0WDgl5PjT0xyWTJxUePFbpn585lfBAAwH+xNfiRJHk5O6xrM65L9lw1v/+21bZd6ePPo5pszdjovftv/kKy6Mck7krXvbTDw7mThdUlekyy8fty747t5BAAABQkAAChIAABAQQIAAAoSAABQkAAAgIIEAAAUJAAAoCABAAAFeRMgMB+sShZ9KMnLkkUXNpjXJdmb5NLk6E80XOfhJI++4H4W6u4YXd/XaODJo+ul494Z300AAPNBl2TTC66tHPSPUuYr32wAKEgAAEBBAgAAChIAAFCQAACAggQAABQkAACgIAEAAAUJAAAoSAAAQEECAAAKEgAAUJAAAICCBAAAFCQAAKAgAQAABQkAAChIAABAQQIAAAoSAABQkAAAgIIEAAAUJAAAoCABAAAFCQAAKEgAAEBBAgAAChIAAFDQIMnfJ89d3HDmVNLvGPfGAGCeOJD0u5M8kBxs9vd6kPRPJ09e0XChTyeHbh/dt5wLABXtSQ7+bpJrk723H/G0EY8AAKAgAQAABQkAAChIAABAQQIAAAoSAABQkAAAgIIEAAAUJAAAoKD/BgbllO9kcNLKAAAAAElFTkSuQmCCKAAAAIAAAAAAAQAAAQAgAAAAAAAAAAEAww4AAMMOAAAAAAAAAAAAAABm/zwAZv88AGb/PABm/zwAZv88AGb/6ABm//8AZv//AGb//wBm//8AZv//AGb//wBm//8AZv//AGb//wBm//8AZv//AGb//wBm//8AZv//AGb//wBm//8AZv//AGb//wBm//8AZv//AGb//wBm//8AZv//AGb//wBm//8AZv//AGb//wBm//8AZv//AGb//wBm//8AZv//AGb//wBm//8AZv//AGb//wBm//8AZv//AGb//wBm//8AZv//AGb//wBm//8AZv//AGb//wBm//8AZv//AGb//wBm//8AZv//AGb//wBm//8AZv//AGb//wBm//8AZv//AGb//wBm//8AZv//AGb//wBm//8AZv//AGb//wBm//8AZv//AGb//wBm//8AZv//AGb//wBm//8AZv//AGb//wBm//8AZv//AGb//wBm//8AZv//AGb//wBm//8AZv//AGb//wBm//8AZv//AGb//wBm//8AZv//AGb//wBm//8AZv//AGb//wBm//8AZv//AGb//wBm//8AZv//AGb//wBm//8AZv//AGb//wBm//8AZv//AGb//wBm//8AZv//AGb//wBm//8AZv//AGb//wBm//8AZv//AGb//wBm//8AZv//AGb//wBm//8AZv//AGb/9gBm/7QAZv+0AGb/tABm/7QAZv+0AGb/PABm/zwAZv88AGb/PABm/zwAZv/oAGb//wBm//8AZv//AGb//wBm//8AZv//AGb//wBm//8AZv//AGb//wBm//8AZv//AGb//wBm//8AZv//AGb//wBm//8AZv//AGb//wBm//8AZv//AGb//wBm//8AZv//AGb//wBm//8AZv//AGb//wBm//8AZv//AGb//wBm//8AZv//AGb//wBm//8AZv//AGb//wBm//8AZv//AGb//wBm//8AZv//AGb//wBm//8AZv//AGb//wBm//8AZv//AGb//wBm//8AZv//AGb//wBm//8AZv//AGb//wBm//8AZv//AGb//wBm//8AZv//AGb//wBm//8AZv//AGb//wBm//8AZv//AGb//wBm//8AZv//AGb//wBm//8AZv//AGb//wBm//8AZv//AGb//wBm//8AZv//AGb//wBm//8AZv//AGb//wBm//8AZv//AGb//wBm//8AZv//AGb//wBm//8AZv//AGb//wBm//8AZv//AGb//wBm//8AZv//AGb//wBm//8AZv//AGb//wBm//8AZv//AGb//wBm//8AZv//AGb//wBm//8AZv//AGb//wBm//8AZv//AGb//wBm//8AZv//AGb//wBm//8AZv/2AGb/tABm/7QAZv+0AGb/tABm/7QAZv88AGb/PABm/zwAZv88AGb/PABm/+gAZv//AGb//wBm//8AZv//AGb//wBm//8AZv//AGb//wBm//8AZv//AGb//wBm//8AZv//AGb//wBm//8AZv//AGb//wBm//8AZv//AGb//wBm//8AZv//AGb//wBm//8AZv//AGb//wBm//8AZv//AGb//wBm//8AZv//AGb//wBm//8AZv//AGb//wBm//8AZv//AGb//wBm//8AZv//AGb//wBm//8AZv//AGb//wBm//8AZv//AGb//wBm//8AZv//AGb//wBm//8AZv//AGb//wBm//8AZv//AGb//wBm//8AZv//AGb//wBm//8AZv//AGb//wBm//8AZv//AGb//wBm//8AZv//AGb//wBm//8AZv//AGb//wBm//8AZv//AGb//wBm//8AZv//AGb//wBm//8AZv//AGb//wBm//8AZv//AGb//wBm//8AZv//AGb//wBm//8AZv//AGb//wBm//8AZv//AGb//wBm//8AZv//AGb//wBm//8AZv//AGb//wBm//8AZv//AGb//wBm//8AZv//AGb//wBm//8AZv//AGb//wBm//8AZv//AGb//wBm//8AZv//AGb//wBm//8AZv//AGb//wBm//YAZv+0AGb/tABm/7QAZv+0AGb/tABm/zwAZv88AGb/PABm/zwAZv88AGb/6ABm//8AZv//AGb//wBm//8AZv//AGb//wBm//8AZv//AGb//wBm//8AZv//AGb//wBm//8AZv//AGb//wBm//8AZv//AGb//wBm//8AZv//AGb//wBm//8AZv//AGb//wBm//8AZv//AGb//wBm//8AZv//AGb//wBm//8AZv//AGb//wBm//8AZv//AGb//wBm//8AZv//AGb//wBm//8AZv//AGb//wBm//8AZv//AGb//wBm//8AZv//AGb//wBm//8AZv//AGb//wBm//8AZv//AGb//wBm//8AZv//AGb//wBm//8AZv//AGb//wBm//8AZv//AGb//wBm//8AZv//AGb//wBm//8AZv//AGb//wBm//8AZv//AGb//wBm//8AZv//AGb//wBm//8AZv//AGb//wBm//8AZv//AGb//wBm//8AZv//AGb//wBm//8AZv//AGb//wBm//8AZv//AGb//wBm//8AZv//AGb//wBm//8AZv//AGb//wBm//8AZv//AGb//wBm//8AZv//AGb//wBm//8AZv//AGb//wBm//8AZv//AGb//wBm//8AZv//AGb//wBm//8AZv//AGb//wBm//8AZv//AGb/9gBm/7QAZv+0AGb/tABm/7QAZv+0AGb/PABm/zwAZv88AGb/PABm/zwAZv/oAGb//wBm//8AZv//AGb//wBm//8AZv//AGb//wBm//8AZv//AGb//wBm//8AZv//AGb//wBm//8AZv//AGb//wBm//8AZv//AGb//wBm//8AZv//AGb//wBm//8AZv//AGb//wBm//8AZv//AGb//wBm//8AZv//AGb//wBm//8AZv//AGb//wBm//8AZv//AGb//wBm//8AZv//AGb//wBm//8AZv//AGb//wBm//8AZv//AGb//wBm//8AZv//AGb//wBm//8AZv//AGb//wBm//8AZv//AGb//wBm//8AZv//AGb//wBm//8AZv//AGb//wBm//8AZv//AGb//wBm//8AZv//AGb//wBm//8AZv//AGb//wBm//8AZv//AGb//wBm//8AZv//AGb//wBm//8AZv//AGb//wBm//8AZv//AGb//wBm//8AZv//AGb//wBm//8AZv//AGb//wBm//8AZv//AGb//wBm//8AZv//AGb//wBm//8AZv//AGb//wBm//8AZv//AGb//wBm//8AZv//AGb//wBm//8AZv//AGb//wBm//8AZv//AGb//wBm//8AZv//AGb//wBm//8AZv//AGb//wBm//8AZv/2AGb/tABm/7QAZv+0AGb/tABm/7QAZ/9NAGf/TQBn/00AZ/9NAGf/TQBm/+oAZv//AGb//wBm//8AZv//AGb//wBm//8AZv//AGb//wBm//8AZv//AGb//wBm//8AZv//AGb//wBm//8AZv//AGb//wBm//8AZv//AGb//wBm//8AZv//AGb//wBm//8AZv//AGb//wBm//8AZv//AGb//wBm//8AZv//AGb//wBm//8AZv//AGb//wBm//8AZv//AGb//wBm//8AZv//AGb//wBm//8AZv//AGb//wBm//8AZv//AGb//wBm//8AZv//AGb//wBm//8AZv//AGb//wBm//8AZv//AGb//wBm//8AZv//AGb//wBm//8AZv//AGb//wBm//8AZv//AGb//wBm//8AZv//AGb//wBm//8AZv//AGb//wBm//8AZv//AGb//wBm//8AZv//AGb//wBm//8AZv//AGb//wBm//8AZv//AGb//wBm//8AZv//AGb//wBm//8AZv//AGb//wBm//8AZv//AGb//wBm//8AZv//AGb//wBm//8AZv//AGb//wBm//8AZv//AGb//wBm//8AZv//AGb//wBm//8AZv//AGb//wBm//8AZv//AGb//wBm//8AZv//AGb//wBm//8AZv//AGb//wBm//gAZv/FAGb/xQBm/8UAZv/FAGb/xQBn/08AZ/9PAGf/TwBn/08AZ/9PAGb/6gBm//8AZv//AGb//wBm//8AZv//AGb//wBm//8AZv//AGb//wBm//8AZv//AGb//wBm//8AZv//AGb//wBm//8AZv//AGb//wBm//8AZv//AGb//wBm//8AZv//AGb//wBm//8AZv//AGb//wBm//8AZv//AGb//wBm//8AZv//AGb//wBm//8AZv//AGb//wBm//8AZv//AGb//wBm//8AZv//AGb//wBm//8AZv//AGb//wBm//8AZv//AGb//wBm//8AZv//AGb//wBm//8AZv//AGb//wBm//8AZv//AGb//wBm//8AZv//AGb//wBm//8AZv//AGb//wBm//8AZv//AGb//wBm//8AZv//AGb//wBm//8AZv//AGb//wBm//8AZv//AGb//wBm//8AZv//AGb//wBm//8AZv//AGb//wBm//8AZv//AGb//wBm//8AZv//AGb//wBm//8AZv//AGb//wBm//8AZv//AGb//wBm//8AZv//AGb//wBm//8AZv//AGb//wBm//8AZv//AGb//wBm//8AZv//AGb//wBm//8AZv//AGb//wBm//8AZv//AGb//wBm//8AZv//AGb//wBm//8AZv//AGb/+ABn/8cAZ//HAGf/xwBn/8cAZ//HAGf/TwBn/08AZ/9PAGf/TwBn/08AZv/qAGb//wBm//8AZv//AGb//wBm//8AZv//AGb//wBm//8AZv//AGb//wBm//8AZv//AGb//wBm//8AZv//AGb//wBm//8AZv//AGb//wBm//8AZv//AGb//wBm//8AZv//AGb//wBm//8AZv//AGb//wBm//8AZv//AGb//wBm//8AZv//AGb//wBm//8AZv//AGb//wBm//8AZv//AGb//wBm//8AZv//AGb//wBm//8AZv//AGb//wBm//8AZv//AGb//wBm//8AZv//AGb//wBm//8AZv//AGb//wBm//8AZv//AGb//wBm//8AZv//AGb//wBm//8AZv//AGb//wBm//8AZv//AGb//wBm//8AZv//AGb//wBm//8AZv//AGb//wBm//8AZv//AGb//wBm//8AZv//AGb//wBm//8AZv//AGb//wBm//8AZv//AGb//wBm//8AZv//AGb//wBm//8AZv//AGb//wBm//8AZv//AGb//wBm//8AZv//AGb//wBm//8AZv//AGb//wBm//8AZv//AGb//wBm//8AZv//AGb//wBm//8AZv//AGb//wBm//8AZv//AGb//wBm//8AZv//AGb//wBm//8AZv/4AGf/xwBn/8cAZ//HAGf/xwBn/8cAZ/9PAGf/TwBn/08AZ/9PAGf/TwBm/+oAZv//AGb//wBm//8AZv//AGb//wBm//8AZv//AGb//wBm//8AZv//AGb//wBm//8AZv//AGb//wBm//8AZv//AGb//wBm//8AZv//AGb//wBm//8AZv//AGb//wBm//8AZv//AGb//wBm//8AZv//AGb//wBm//8AZv//AGb//wBm//8AZv//AGb//wBm//8AZv//AGb//wBm//8AZv//AGb//wBm//8AZv//AGb//wBm//8AZv//AGb//wBm//8AZv//AGb//wBm//8AZv//AGb//wBm//8AZv//AGb//wBm//8AZv//AGb//wBm//8AZv//AGb//wBm//8AZv//AGb//wBm//8AZv//AGb//wBm//8AZv//AGb//wBm//8AZv//AGb//wBm//8AZv//AGb//wBm//8AZv//AGb//wBm//8AZv//AGb//wBm//8AZv//AGb//wBm//8AZv//AGb//wBm//8AZv//AGb//wBm//8AZv//AGb//wBm//8AZv//AGb//wBm//8AZv//AGb//wBm//8AZv//AGb//wBm//8AZv//AGb//wBm//8AZv//AGb//wBm//8AZv//AGb//wBm//8AZv//AGb//wBm//gAZ//HAGf/xwBn/8cAZ//HAGf/xwBn/08AZ/9PAGf/TwBn/08AZ/9PAGb/6gBm//8AZv//AGb//wBm//8AZv//AGb//wBm//8AZv//AGb//wBm//8AZv//AGb//wBm//8AZv//AGb//wBm//8AZv//AGb//wBm//8AZv//AGb//wBm//8AZv//AGb//wBm//8AZv//AGb//wBm//8AZv//AGb//wBm//8AZv//AGb//wBm//8AZv//AGb//wBm//8AZv//AGb//wBm//8AZv//AGb//wBm//8AZv//AGb//wBm//8AZv//AGb//wBm//8AZv//AGb//wBm//8AZv//AGb//wBm//8AZv//AGb//wBm//8AZv//AGb//wBm//8AZv//AGb//wBm//8AZv//AGb//wBm//8AZv//AGb//wBm//8AZv//AGb//wBm//8AZv//AGb//wBm//8AZv//AGb//wBm//8AZv//AGb//wBm//8AZv//AGb//wBm//8AZv//AGb//wBm//8AZv//AGb//wBm//8AZv//AGb//wBm//8AZv//AGb//wBm//8AZv//AGb//wBm//8AZv//AGb//wBm//8AZv//AGb//wBm//8AZv//AGb//wBm//8AZv//AGb//wBm//8AZv//AGb//wBm//8AZv//AGb/+ABn/8cAZ//HAGf/xwBn/8cAZ//HAGf/TwBn/08AZ/9PAGf/TwBn/08AZv/qAGb//wBm//8AZv//AGb//wBm//8AZv//AGb//wBm//8AZv//AGb//wBm//8AZv//AGb//wBm//8AZv//AGb//wBm//8AZv//AGb//wBm//8AZv//AGb//wBm//8AZv//AGb//wBm//8AZv//AGb//wBm//8AZv//AGb//wBm//8AZv//AGb//wBm//8AZv//AGb//wBm//8AZv//AGb//wBm//8AZv//AGb//wBm//8AZv//AGb//wBm//8AZv//AGb//wBm//8AZv//AGb//wBm//8AZv//AGb//wBm//8AZv//AGb//wBm//8AZv//AGb//wBm//8AZv//AGb//wBm//8AZv//AGb//wBm//8AZv//AGb//wBm//8AZv//AGb//wBm//8AZv//AGb//wBm//8AZv//AGb//wBm//8AZv//AGb//wBm//8AZv//AGb//wBm//8AZv//AGb//wBm//8AZv//AGb//wBm//8AZv//AGb//wBm//8AZv//AGb//wBm//8AZv//AGb//wBm//8AZv//AGb//wBm//8AZv//AGb//wBm//8AZv//AGb//wBm//8AZv//AGb//wBm//8AZv//AGb//wBm//8AZv/4AGf/xwBn/8cAZ//HAGf/xwBn/8cAZ/9PAGf/TwBn/08AZ/9PAGf/TwBm/+oAZv//AGb//wBm//8AZv//AGb//wBm//8AZv//AGb//wBm//8AZv//AGb//wBm//8AZv//AGb//wBm//8AZv//AGb//wBm//8AZv//AGb//wBm//8AZv//AGb//wBm//8AZv//AGb//wBm//8AZv//AGb//wBm//8AZv//AGb//wBm//8AZv//AGb//wBm//8AZv//AGb//wBm//8AZv//AGb//wBm//8AZv//AGb//wBm//8AZv//AGb//wBm//8AZv//AGb//wBm//8AZv//AGb//wBm//8AZv//AGb//wBm//8AZv//AGb//wBm//8AZv//AGb//wBm//8AZv//AGb//wBm//8AZv//AGb//wBm//8AZv//AGb//wBm//8AZv//AGb//wBm//8AZv//AGb//wBm//8AZv//AGb//wBm//8AZv//AGb//wBm//8AZv//AGb//wBm//8AZv//AGb//wBm//8AZv//AGb//wBm//8AZv//AGb//wBm//8AZv//AGb//wBm//8AZv//AGb//wBm//8AZv//AGb//wBm//8AZv//AGb//wBm//8AZv//AGb//wBm//8AZv//AGb//wBm//8AZv//AGb//wBm//gAZ//HAGf/xwBn/8cAZ//HAGf/xwBn/08AZ/9PAGf/TwBn/08AZ/9PAGb/6gBm//8AZv//AGb//wBm//8AZv//AGb//wBm//8AZv//AGb//wBm//8AZv//AGb//wBm//8AZv//AGb//wBm//8AZv//AGb//wBm//8AZv//AGb//wBm//8AZv//AGb//wBm//8AZv//AGb//wBm//8AZv//AGb//wBm//8AZv//AGb//wBm//8AZv//AGb//wBm//8AZv//AGb//wBm//8AZv//AGb//wBm//8AZv//AGb//wBm//8AZv//AGb//wBm//8AZv//AGb//wBm//8AZv//AGb//wBm//8AZv//AGb//wBm//8AZv//AGb//wBm//8AZv//AGb//wBm//8AZv//AGb//wBm//8AZv//AGb//wBm//8AZv//AGb//wBm//8AZv//AGb//wBm//8AZv//AGb//wBm//8AZv//AGb//wBm//8AZv//AGb//wBm//8AZv//AGb//wBm//8AZv//AGb//wBm//8AZv//AGb//wBm//8AZv//AGb//wBm//8AZv//AGb//wBm//8AZv//AGb//wBm//8AZv//AGb//wBm//8AZv//AGb//wBm//8AZv//AGb//wBm//8AZv//AGb//wBm//8AZv//AGb/+ABn/8cAZ//HAGf/xwBn/8cAZ//HAGf/TwBn/08AZ/9PAGf/TwBn/08AZv/qAGb//wBm//8AZv//AGb//wBm//8AZv//AGb//wBm//8AZv//AGb//wBm//8AZv//AGb//wBm//8AZv//AGb//wBm//8AZv//AGb//wBm//8AZv//AGb//wBm//8AZv//AGb//wBm//8AZv//AGb//wBm//8AZv//AGb//wBm//8AZv//AGb//wBm//8AZv//AGb//wBm//8AZv//AGb//wBm//8AZv//AGb//wBm//8AZv//AGb//wBm//8AZv//AGb//wBm//8AZv//AGb//wBm//8AZv//AGb//wBm//8AZv//AGb//wBm//8AZv//AGb//wBm//8AZv//AGb//wBm//8AZv//AGb//wBm//8AZv//AGb//wBm//8AZv//AGb//wBm//8AZv//AGb//wBm//8AZv//AGb//wBm//8AZv//AGb//wBm//8AZv//AGb//wBm//8AZv//AGb//wBm//8AZv//AGb//wBm//8AZv//AGb//wBm//8AZv//AGb//wBm//8AZv//AGb//wBm//8AZv//AGb//wBm//8AZv//AGb//wBm//8AZv//AGb//wBm//8AZv//AGb//wBm//8AZv//AGb//wBm//8AZv/4AGf/xwBn/8cAZ//HAGf/xwBn/8cAZ/9PAGf/TwBn/08AZ/9PAGf/TwBm/+oAZv//AGb//wBm//8AZv//AGb//wBm//8AZv//AGb//wBm//8AZv//AGb//wBm//8AZv//AGb//wBm//8AZv//AGb//wBm//8AZv//AGb//wBm//8AZv//AGb//wBm//8AZv//AGb//wBm//8AZv//AGb//wBm//8AZv//AGb//wBm//8AZv//AGb//wBm//8AZv//AGb//wBm//8AZv//AGb//wBm//8AZv//AGb//wBm//8AZv//AGb//wBm//8AZv//AGb//wBm//8AZv//AGb//wBm//8AZv//AGb//wBm//8AZv//AGb//wBm//8AZv//AGb//wBm//8AZv//AGb//wBm//8AZv//AGb//wBm//8AZv//AGb//wBm//8AZv//AGb//wBm//8AZv//AGb//wBm//8AZv//AGb//wBm//8AZv//AGb//wBm//8AZv//AGb//wBm//8AZv//AGb//wBm//8AZv//AGb//wBm//8AZv//AGb//wBm//8AZv//AGb//wBm//8AZv//AGb//wBm//8AZv//AGb//wBm//8AZv//AGb//wBm//8AZv//AGb//wBm//8AZv//AGb//wBm//8AZv//AGb//wBm//gAZ//HAGf/xwBn/8cAZ//HAGf/xwBn/08AZ/9PAGf/TwBn/08AZ/9PAGb/6gBm//8AZv//AGb//wBm//8AZv//AGb//wBm//8AZv//AGb//wBm//8AZv//AGb//wBm//8AZv//AGb//wBm//8AZv//AGb//wBm//8AZv//AGb//wBm//8AZv//AGb//wBm//8AZv//AGb//wBm//8AZv//AGb//wBm//8AZv//AGb//wBm//8AZv//AGb//wBm//8AZv//AGb//wBm//8AZv//AGb//wBm//8AZv//AGb//wBm//8AZv//AGb//wBm//8AZv//AGb//wBm//8AZv//AGb//wBm//8AZv//AGb//wBm//8AZv//AGb//wBm//8AZv//AGb//wBm//8AZv//AGb//wBm//8AZv//AGb//wBm//8AZv//AGb//wBm//8AZv//AGb//wBm//8AZv//AGb//wBm//8AZv//AGb//wBm//8AZv//AGb//wBm//8AZv//AGb//wBm//8AZv//AGb//wBm//8AZv//AGb//wBm//8AZv//AGb//wBm//8AZv//AGb//wBm//8AZv//AGb//wBm//8AZv//AGb//wBm//8AZv//AGb//wBm//8AZv//AGb//wBm//8AZv//AGb//wBm//8AZv//AGb/+ABn/8cAZ//HAGf/xwBn/8cAZ//HAGf/TwBn/08AZ/9PAGf/TwBn/08AZv/qAGb//wBm//8AZv//AGb//wBm//8AZv//AGb//wBm//8AZv//AGb//wBm//8AZv//AGb//wBm//8AZv//AGb//wBm//8AZv//AGb//wBm//8AZv//AGb//wBm//8AZv//AGb//wBm//8AZv//AGb//wBm//8AZv//AGb//wBm//8AZv//AGb//wBm//8AZv//AGb//wBm//8AZv//AGb//wBm//8AZv//AGb//wBm//8AZv//AGb//wBm//8AZv//AGb//wBm//8AZv//AGb//wBm//8AZv//AGb//wBm//8AZv//AGb//wBm//8AZv//AGb//wBm//8AZv//AGb//wBm//8AZv//AGb//wBm//8AZv//AGb//wBm//8AZv//AGb//wBm//8AZv//AGb//wBm//8AZv//AGb//wBm//8AZv//AGb//wBm//8AZv//AGb//wBm//8AZv//AGb//wBm//8AZv//AGb//wBm//8AZv//AGb//wBm//8AZv//AGb//wBm//8AZv//AGb//wBm//8AZv//AGb//wBm//8AZv//AGb//wBm//8AZv//AGb//wBm//8AZv//AGb//wBm//8AZv//AGb//wBm//8AZv/4AGf/xwBn/8cAZ//HAGf/xwBn/8cAZ/9PAGf/TwBn/08AZ/9PAGf/TwBm/+oAZv//AGb//wBm//8AZv//AGb//wBm//8AZv//AGb//wBm//8AZv//AGb//wBm//8AZv//AGb//wBm//8AZv//AGb//wBm//8AZv//AGb//wBm//8AZv//AGb//wBm//8AZv//AGb//wBm//8AZv//AGb//wBm//8AZv//AGb//wBm//8AZv//AGb//wBm//8AZv//AGb//wBm//8AZv//AGb//wBm//8AZv//AGb//wBm//8AZv//AGb//wBm//8AZv//AGb//wBm//8AZv//AGb//wBm//8AZv//AGb//wBm//8AZv//AGb//wBm//8AZv//AGb//wBm//8AZv//AGb//wBm//8AZv//AGb//wBm//8AZv//AGb//wBm//8AZv//AGb//wBm//8AZv//AGb//wBm//8AZv//AGb//wBm//8AZv//AGb//wBm//8AZv//AGb//wBm//8AZv//AGb//wBm//8AZv//AGb//wBm//8AZv//AGb//wBm//8AZv//AGb//wBm//8AZv//AGb//wBm//8AZv//AGb//wBm//8AZv//AGb//wBm//8AZv//AGb//wBm//8AZv//AGb//wBm//8AZv//AGb//wBm//gAZ//HAGf/xwBn/8cAZ//HAGf/xwBn/08AZ/9PAGf/TwBn/08AZ/9PAGb/6gBm//8AZv//AGb//wBm//8AZv//AGb//wBm//8AZv//AGb//wBm//8AZv//AGb//wBm//8AZv//AGb//wBm//8AZv//AGb//wBm//8AZv//AGb//wBm//8AZv//AGb//wBm//8AZv//AGb//wBm//8AZv//AGb//wBm//8AZv//AGb//wBm//8AZv//AGb//wBm//8AZv//AGb//wBm//8AZv//AGb//wBm//8AZv//AGb//wBm//8AZv//AGb//wBm//8AZv//AGb//wBm//8AZv//AGb//wBm//8AZv//AGb//wBm//8AZv//AGb//wBm//8AZv//AGb//wBm//8AZv//AGb//wBm//8AZv//AGb//wBm//8AZv//AGb//wBm//8AZv//AGb//wBm//8AZv//AGb//wBm//8AZv//AGb//wBm//8AZv//AGb//wBm//8AZv//AGb//wBm//8AZv//AGb//wBm//8AZv//AGb//wBm//8AZv//AGb//wBm//8AZv//AGb//wBm//8AZv//AGb//wBm//8AZv//AGb//wBm//8AZv//AGb//wBm//8AZv//AGb//wBm//8AZv//AGb//wBm//8AZv//AGb/+ABn/8cAZ//HAGf/xwBn/8cAZ//HAGf/TwBn/08AZ/9PAGf/TwBn/08AZv/qAGb//wBm//8AZv//AGb//wBm//8AZv//AGb//wBm//8AZv//AGb//wBm//8AZv//AGb//wBm//8AZv//AGb//wBm//8AZv//AGb//wBm//8AZv//AGb//wBm//8AZv//AGb//wBm//8AZv//AGb//wBm//8AZv//AGb//wBm//8AZv//AGb//wBm//8AZv//AGb//wBm//8AZv//AGb//wBm//8AZv//AGb//wBm//8AZv//AGb//wBm//8AZv//AGb//wBm//8AZv//AGb//wBm//8AZv//AGb//wBm//8AZv//AGb//wBm//8AZv//AGb//wBm//8AZv//AGb//wBm//8AZv//AGb//wBm//8AZv//AGb//wBm//8AZv//AGb//wBm//8AZv//AGb//wBm//8AZv//AGb//wBm//8AZv//AGb//wBm//8AZv//AGb//wBm//8AZv//AGb//wBm//8AZv//AGb//wBm//8AZv//AGb//wBm//8AZv//AGb//wBm//8AZv//AGb//wBm//8AZv//AGb//wBm//8AZv//AGb//wBm//8AZv//AGb//wBm//8AZv//AGb//wBm//8AZv//AGb//wBm//8AZv/4AGf/xwBn/8cAZ//HAGf/xwBn/8cAZ/9PAGf/TwBn/08AZ/9PAGf/TwBm/+oAZv//AGb//wBm//8AZv//AGb//wBm//8AZv//AGb//wBm//8AZv//AGb//wBm//8AZv//AGb//wBm//8AZv//AGb//wBm//8AZv//AGb//wBm//8AZv//AGb//wBm//8AZv//AGb//wBm//8AZv//AGb//wBm//8AZv//AGb//wBm//8AZv//AGb//wBm//8AZv//AGb//wBm//8AZv//AGb//wBm//8AZv//AGb//wBm//8AZv//AGb//wBm//8AZv//AGb//wBm//8AZv//AGb//wBm//8AZv//AGb//wBm//8AZv//AGb//wBm//8AZv//AGb//wBm//8AZv//AGb//wBm//8AZv//AGb//wBm//8AZv//AGb//QBm//YAZv/2AGb/9gBm//YAZv/0AGb/3QBm/90AZv/dAGb/3QBm/90AZv/cAGb/3ABm/9wAZv/cAGb/3ABm/9wAZv/cAGb/3ABm/9wAZv/cAGb/7ABm//MAZv/zAGb/8wBm//MAZv/6AGb//wBm//8AZv//AGb//wBm//8AZv//AGb//wBm//8AZv//AGb//wBm//8AZv//AGb//wBm//8AZv//AGb//wBm//8AZv//AGb//wBm//gAZ//HAGf/xwBn/8cAZ//HAGf/xwBn/08AZ/9PAGf/TwBn/08AZ/9PAGb/6gBm//8AZv//AGb//wBm//8AZv//AGb//wBm//8AZv//AGb//wBm//8AZv//AGb//wBm//8AZv//AGb//wBm//8AZv//AGb//wBm//8AZv//AGb//wBm//8AZv//AGb//wBm//8AZv//AGb//wBm//8AZv//AGb//wBm//8AZv//AGb//wBm//8AZv//AGb//wBm//8AZv//AGb//wBm//8AZv//AGb//wBm//8AZv//AGb//wBm//8AZv//AGb//wBm//8AZv//AGb//wBm//8AZv//AGb//wBm//8AZv//AGb//wBm//8AZv//AGb//wBm//8AZv//AGb//wBm//8AZv//AGb//wBm//8AZv//AGb//wBm//8AZv/8AGb/7gBm/+4AZv/uAGb/7gBm/+oAZ/+9AGf/vQBn/70AZ/+9AGf/vQBm/7sAZv+7AGb/uwBm/7sAZv+7AGb/uwBm/7sAZv+7AGb/uwBm/7sAZv/bAGb/6ABm/+gAZv/oAGb/6ABm//YAZv//AGb//wBm//8AZv//AGb//wBm//8AZv//AGb//wBm//8AZv//AGb//wBm//8AZv//AGb//wBm//8AZv//AGb//wBm//8AZv//AGb/+ABn/8cAZ//HAGf/xwBn/8cAZ//HAGf/TwBn/08AZ/9PAGf/TwBn/08AZv/qAGb//wBm//8AZv//AGb//wBm//8AZv//AGb//wBm//8AZv//AGb//wBm//8AZv//AGb//wBm//8AZv//AGb//wBm//8AZv//AGb//wBm//8AZv//AGb//wBm//8AZv//AGb//wBm//8AZv//AGb//wBm//8AZv//AGb//wBm//8AZv//AGb//wBm//8AZv//AGb//wBm//8AZv//AGb//wBm//8AZv//AGb//wBm//8AZv//AGb//wBm//8AZv//AGb//wBm//8AZv//AGb//wBm//8AZv//AGb//wBm//8AZv//AGb//wBm//8AZv//AGb//wBm//8AZv//AGb//wBm//8AZv//AGb//wBm//8AZv//AGb//wBm//wAZv/uAGb/7gBm/+4AZv/uAGb/6gBn/70AZ/+9AGf/vQBn/70AZ/+9AGb/uwBm/7sAZv+7AGb/uwBm/7sAZv+7AGb/uwBm/7sAZv+7AGb/uwBm/9sAZv/oAGb/6ABm/+gAZv/oAGb/9gBm//8AZv//AGb//wBm//8AZv//AGb//wBm//8AZv//AGb//wBm//8AZv//AGb//wBm//8AZv//AGb//wBm//8AZv//AGb//wBm//8AZv/4AGf/xwBn/8cAZ//HAGf/xwBn/8cAZ/9PAGf/TwBn/08AZ/9PAGf/TwBm/+oAZv//AGb//wBm//8AZv//AGb//wBm//8AZv//AGb//wBm//8AZv//AGb//wBm//8AZv//AGb//wBm//8AZv//AGb//wBm//8AZv//AGb//wBm//8AZv//AGb//wBm//8AZv//AGb//wBm//8AZv//AGb//wBm//8AZv//AGb//wBm//8AZv//AGb//wBm//8AZv//AGb//wBm//8AZv//AGb//wBm//8AZv//AGb//wBm//8AZv//AGb//wBm//8AZv//AGb//wBm//8AZv//AGb//wBm//8AZv//AGb//wBm//8AZv//AGb//wBm//8AZv//AGb//wBm//8AZv//AGb//wBm//8AZv//AGb//wBm//8AZv//AGb//ABm/+4AZv/uAGb/7gBm/+4AZv/qAGf/vQBn/70AZ/+9AGf/vQBn/70AZv+7AGb/uwBm/7sAZv+7AGb/uwBm/7sAZv+7AGb/uwBm/7sAZv+7AGb/2wBm/+gAZv/oAGb/6ABm/+gAZv/2AGb//wBm//8AZv//AGb//wBm//8AZv//AGb//wBm//8AZv//AGb//wBm//8AZv//AGb//wBm//8AZv//AGb//wBm//8AZv//AGb//wBm//gAZ//HAGf/xwBn/8cAZ//HAGf/xwBn/08AZ/9PAGf/TwBn/08AZ/9PAGb/6gBm//8AZv//AGb//wBm//8AZv//AGb//wBm//8AZv//AGb//wBm//8AZv//AGb//wBm//8AZv//AGb//wBm//8AZv//AGb//wBm//8AZv//AGb//wBm//8AZv//AGb//wBm//8AZv//AGb//wBm//8AZv//AGb//wBm//8AZv//AGb//wBm//8AZv//AGb//wBm//8AZv//AGb//wBm//8AZv//AGb//wBm//8AZv//AGb//wBm//8AZv//AGb//wBm//8AZv//AGb//wBm//8AZv//AGb//wBm//8AZv//AGb//wBm//8AZv//AGb//wBm//8AZv//AGb//wBm//8AZv//AGb//wBm//8AZv//AGb//wBm//8AZv/8AGb/7gBm/+4AZv/uAGb/7gBm/+oAZ/+9AGf/vQBn/70AZ/+9AGf/vQBm/7sAZv+7AGb/uwBm/7sAZv+7AGb/uwBm/7sAZv+7AGb/uwBm/7sAZv/bAGb/6ABm/+gAZv/oAGb/6ABm//YAZv//AGb//wBm//8AZv//AGb//wBm//8AZv//AGb//wBm//8AZv//AGb//wBm//8AZv//AGb//wBm//8AZv//AGb//wBm//8AZv//AGb/+ABn/8cAZ//HAGf/xwBn/8cAZ//HAGf/TwBn/08AZ/9PAGf/TwBn/08AZv/qAGb//wBm//8AZv//AGb//wBm//8AZv//AGb//wBm//8AZv//AGb//wBm//8AZv//AGb//wBm//8AZv//AGb//wBm//8AZv//AGb//wBm//8AZv//AGb//wBm//8AZv//AGb//wBm//8AZv//AGb//wBm//8AZv//AGb//wBm//8AZv//AGb//wBm//8AZv//AGb//wBm//8AZv//AGb//wBm//8AZv//AGb//wBm//8AZv//AGb//wBm//8AZv//AGb//wBm//8AZv//AGb//wBm//8AZv//AGb//wBm//8AZv//AGb//wBm//8AZv//AGb//wBm//8AZv//AGb//wBm//8AZv//AGb//wBm//8AZv//AGb//wBm/+wAZv+hAGb/oQBm/6EAZv+hAGb/nQBn/3EAZ/9xAGf/cQBn/3EAZ/9xAGb/cABm/3AAZv9wAGb/cABm/3AAZv9wAGb/cABm/3AAZv9wAGb/cABm/4oAZv+UAGb/lABm/5QAZv+UAGb/0gBm//wAZv/8AGb//ABm//wAZv/+AGb//wBm//8AZv//AGb//wBm//8AZv//AGb//wBm//8AZv//AGb//wBm//8AZv//AGb//wBm//8AZv/4AGf/xwBn/8cAZ//HAGf/xwBn/8cAZ/9PAGf/TwBn/08AZ/9PAGf/TwBm/+oAZv//AGb//wBm//8AZv//AGb//wBm//8AZv//AGb//wBm//8AZv//AGb//wBm//8AZv//AGb//wBm//8AZv//AGb//wBm//8AZv//AGb//wBm//8AZv//AGb//wBm//8AZv//AGb//wBm//8AZv//AGb//wBm//8AZv//AGb//wBm//8AZv//AGb//wBm//8AZv//AGb//wBm//8AZv//AGb//wBm//8AZv//AGb//wBm//8AZv//AGb//wBm//8AZv//AGb//wBm//8AZv//AGb//wBm//8AZv//AGb//wBm//8AZv//AGb//wBm//8AZv//AGb//wBm//8AZv//AGb//wBm//8AZv//AGb//wBm//8AZv//AGb/1QBm/y0AZv8tAGb/LQBm/y0AZv8pAAAAAAAAAAAAAAAAAAAAAAAAAAAAAAAAAAAAAAAAAAAAAAAAAAAAAAAAAAAAAAAAAAAAAAAAAAAAAAAAAGH/DwBh/xUAYf8VAGH/FQBh/xUAZv+dAGb/+ABm//gAZv/4AGb/+ABm//sAZv//AGb//wBm//8AZv//AGb//wBm//8AZv//AGb//wBm//8AZv//AGb//wBm//8AZv//AGb//wBm//gAZ//HAGf/xwBn/8cAZ//HAGf/xwBn/08AZ/9PAGf/TwBn/08AZ/9PAGb/6gBm//8AZv//AGb//wBm//8AZv//AGb//wBm//8AZv//AGb//wBm//8AZv//AGb//wBm//8AZv//AGb//wBm//8AZv//AGb//wBm//8AZv//AGb//wBm//8AZv//AGb//wBm//8AZv//AGb//wBm//8AZv//AGb//wBm//8AZv//AGb//wBm//8AZv//AGb//wBm//8AZv//AGb//wBm//8AZv//AGb//wBm//8AZv//AGb//wBm//8AZv//AGb//wBm//8AZv//AGb//wBm//8AZv//AGb//wBm//8AZv//AGb//wBm//8AZv//AGb//wBm//8AZv//AGb//wBm//8AZv//AGb//wBm//8AZv//AGb//wBm//8AZv/VAGb/LQBm/y0AZv8tAGb/LQBm/ykAAAAAAAAAAAAAAAAAAAAAAAAAAAAAAAAAAAAAAAAAAAAAAAAAAAAAAAAAAAAAAAAAAAAAAAAAAAAAAAAAYf8PAGH/FQBh/xUAYf8VAGH/FQBm/50AZv/4AGb/+ABm//gAZv/4AGb/+wBm//8AZv//AGb//wBm//8AZv//AGb//wBm//8AZv//AGb//wBm//8AZv//AGb//wBm//8AZv//AGb/+ABn/8cAZ//HAGf/xwBn/8cAZ//HAGf/TwBn/08AZ/9PAGf/TwBn/08AZv/qAGb//wBm//8AZv//AGb//wBm//8AZv//AGb//wBm//8AZv//AGb//wBm//8AZv//AGb//wBm//8AZv//AGb//wBm//8AZv//AGb//wBm//8AZv//AGb//wBm//8AZv//AGb//wBm//8AZv//AGb//wBm//8AZv//AGb//wBm//8AZv//AGb//wBm//8AZv//AGb//wBm//8AZv//AGb//wBm//8AZv//AGb//wBm//8AZv//AGb//wBm//8AZv//AGb//wBm//8AZv//AGb//wBm//8AZv//AGb//wBm//8AZv//AGb//wBm//8AZv//AGb//wBm//8AZv//AGb//wBm//8AZv//AGb//wBm//8AZv//AGb//wBm/9UAZv8tAGb/LQBm/y0AZv8tAGb/KQAAAAAAAAAAAAAAAAAAAAAAAAAAAAAAAAAAAAAAAAAAAAAAAAAAAAAAAAAAAAAAAAAAAAAAAAAAAAAAAABh/w8AYf8VAGH/FQBh/xUAYf8VAGb/nQBm//gAZv/4AGb/+ABm//gAZv/7AGb//wBm//8AZv//AGb//wBm//8AZv//AGb//wBm//8AZv//AGb//wBm//8AZv//AGb//wBm//8AZv/4AGf/xwBn/8cAZ//HAGf/xwBn/8cAZ/9PAGf/TwBn/08AZ/9PAGf/TwBm/+oAZv//AGb//wBm//8AZv//AGb//wBm//8AZv//AGb//wBm//8AZv//AGb//wBm//8AZv//AGb//wBm//8AZv//AGb//wBm//8AZv//AGb//wBm//8AZv//AGb//wBm//8AZv//AGb//wBm//8AZv//AGb//wBm//8AZv//AGb//wBm//8AZv//AGb//wBm//8AZv//AGb//wBm//8AZv//AGb//wBm//8AZv//AGb//wBm//8AZv//AGb//wBm//8AZv//AGb//wBm//8AZv//AGb//wBm//8AZv//AGb//wBm//8AZv//AGb//wBm//8AZv//AGb//wBm//8AZv//AGb//wBm//8AZv//AGb//wBm//8AZv//AGb/1QBm/y0AZv8tAGb/LQBm/y0AZv8pAAAAAAAAAAAAAAAAAAAAAAAAAAAAAAAAAAAAAAAAAAAAAAAAAAAAAAAAAAAAAAAAAAAAAAAAAAAAAAAAAGH/DwBh/xUAYf8VAGH/FQBh/xUAZv+dAGb/+ABm//gAZv/4AGb/+ABm//sAZv//AGb//wBm//8AZv//AGb//wBm//8AZv//AGb//wBm//8AZv//AGb//wBm//8AZv//AGb//wBm//gAZ//HAGf/xwBn/8cAZ//HAGf/xwBn/08AZ/9PAGf/TwBn/08AZ/9PAGb/6gBm//8AZv//AGb//wBm//8AZv//AGb//wBm//8AZv//AGb//wBm//8AZv//AGb//wBm//8AZv//AGb//wBm//8AZv//AGb//wBm//8AZv//AGb//wBm//8AZv//AGb//wBm//8AZv//AGb//wBm//8AZv//AGb//wBm//8AZv//AGb//wBm//8AZv//AGb//wBm//8AZv//AGb//wBm//8AZv//AGb//wBm//8AZv//AGb//wBm//8AZv//AGb//wBm//8AZv//AGb//wBm//8AZv//AGb//wBm//8AZv//AGb//wBm//8AZv//AGb//wBm//8AZv//AGb//wBm//8AZv//AGb//wBm//8AZv//AGb//wBm//8AZv/TAGb/IwBm/yMAZv8jAGb/IwBm/yAAAAAAAAAAAAAAAAAAAAAAAAAAAAAAAAAAAAAAAAAAAAAAAAAAAAAAAAAAAAAAAAAAAAAAAAAAAAAAAAAAYf8LAGH/DwBh/w8AYf8PAGH/DwBm/5gAZv/zAGb/8wBm//MAZv/zAGb/+QBm//8AZv//AGb//wBm//8AZv//AGb//wBm//8AZv//AGb//wBm//8AZv//AGb//wBm//8AZv//AGb/+ABn/8cAZ//HAGf/xwBn/8cAZ//HAGf/TwBn/08AZ/9PAGf/TwBn/08AZv/qAGb//wBm//8AZv//AGb//wBm//8AZv//AGb//wBm//8AZv//AGb//wBm//8AZv//AGb//wBm//8AZv//AGb//wBm//8AZv//AGb//wBm//8AZv//AGb//wBm//8AZv//AGb//wBm//8AZv//AGb//wBm//8AZv//AGb//wBm//8AZv//AGb//wBm//8AZv//AGb//wBm//8AZv//AGb//wBm//8AZv//AGb//wBm//8AZv//AGb//wBm//8AZv//AGb//wBm//8AZv//AGb//wBm//8AZv//AGb//wBm//8AZv//AGb//wBm//8AZv//AGb//wBm//8AZv//AGb//wBm//8AZv//AGb//wBm//8AZv//AGb//wBm/84AYP8IAGD/CABg/wgAYP8IAGD/BwAAAAAAAAAAAAAAAAAAAAAAAAAAAAAAAAAAAAAAAAAAAAAAAAAAAAAAAAAAAAAAAAAAAAAAAAAAAAAAAAAAAAAAAAAAAAAAAAAAAAAAAAAAAGb/iwBm/+cAZv/nAGb/5wBm/+cAZv/zAGb//wBm//8AZv//AGb//wBm//8AZv//AGb//wBm//8AZv//AGb//wBm//8AZv//AGb//wBm//8AZv/4AGf/xwBn/8cAZ//HAGf/xwBn/8cAZ/9PAGf/TwBn/08AZ/9PAGf/TwBm/+oAZv//AGb//wBm//8AZv//AGb//wBm//8AZv//AGb//wBm//8AZv//AGb//wBm//8AZv//AGb//wBm//8AZv//AGb//wBm//8AZv//AGb//wBm//8AZv//AGb//wBm//8AZv//AGb//wBm//8AZv//AGb//wBm//8AZv//AGb//wBm//8AZv//AGb//wBm//8AZv//AGb//wBm//8AZv//AGb//wBm//8AZv//AGb//wBm//8AZv//AGb//wBm//8AZv//AGb//wBm//8AZv//AGb//wBm//8AZv//AGb//wBm//8AZv//AGb//wBm//8AZv//AGb//wBm//8AZv//AGb//wBm//8AZv//AGb//wBm//8AZv//AGb/zgBg/wgAYP8IAGD/CABg/wgAYP8HAAAAAAAAAAAAAAAAAAAAAAAAAAAAAAAAAAAAAAAAAAAAAAAAAAAAAAAAAAAAAAAAAAAAAAAAAAAAAAAAAAAAAAAAAAAAAAAAAAAAAAAAAAAAZv+LAGb/5wBm/+cAZv/nAGb/5wBm//MAZv//AGb//wBm//8AZv//AGb//wBm//8AZv//AGb//wBm//8AZv//AGb//wBm//8AZv//AGb//wBm//gAZ//HAGf/xwBn/8cAZ//HAGf/xwBn/08AZ/9PAGf/TwBn/08AZ/9PAGb/6gBm//8AZv//AGb//wBm//8AZv//AGb//wBm//8AZv//AGb//wBm//8AZv//AGb//wBm//8AZv//AGb//wBm//8AZv//AGb//wBm//8AZv//AGb//wBm//8AZv//AGb//wBm//8AZv//AGb//wBm//8AZv//AGb//wBm//8AZv//AGb//wBm//8AZv//AGb//wBm//8AZv//AGb//wBm//8AZv//AGb//wBm//8AZv//AGb//wBm//8AZv//AGb//wBm//8AZv//AGb//wBm//8AZv//AGb//wBm//8AZv//AGb//wBm//8AZv//AGb//wBm//8AZv//AGb//wBm//8AZv//AGb//wBm//8AZv//AGb//wBm//8AZv/OAGD/CABg/wgAYP8IAGD/CABg/wcAAAAAAAAAAAAAAAAAAAAAAAAAAAAAAAAAAAAAAAAAAAAAAAAAAAAAAAAAAAAAAAAAAAAAAAAAAAAAAAAAAAAAAAAAAAAAAAAAAAAAAAAAAABm/4sAZv/nAGb/5wBm/+cAZv/nAGb/8wBm//8AZv//AGb//wBm//8AZv//AGb//wBm//8AZv//AGb//wBm//8AZv//AGb//wBm//8AZv//AGb/+ABn/8cAZ//HAGf/xwBn/8cAZ//HAGf/TwBn/08AZ/9PAGf/TwBn/08AZv/qAGb//wBm//8AZv//AGb//wBm//8AZv//AGb//wBm//8AZv//AGb//wBm//8AZv//AGb//wBm//8AZv//AGb//wBm//8AZv//AGb//wBm//8AZv//AGb//wBm//8AZv//AGb//wBm//8AZv//AGb//wBm//8AZv//AGb//wBm//8AZv//AGb//wBm//8AZv//AGb//wBm//8AZv//AGb//wBm//8AZv//AGb//wBm//8AZv//AGb//wBm//8AZv//AGb//wBm//8AZv//AGb//wBm//8AZv//AGb//wBm//8AZv//AGb//wBm//8AZv//AGb//wBm//8AZv//AGb//wBm//8AZv//AGb//wBm//8AZv//AGb//wBm/84AYP8IAGD/CABg/wgAYP8IAGD/BwAAAAAAAAAAAAAAAAAAAAAAAAAAAAAAAAAAAAAAAAAAAAAAAAAAAAAAAAAAAAAAAAAAAAAAAAAAAAAAAAAAAAAAAAAAAAAAAAAAAAAAAAAAAGb/iwBm/+cAZv/nAGb/5wBm/+cAZv/zAGb//wBm//8AZv//AGb//wBm//8AZv//AGb//wBm//8AZv//AGb//wBm//8AZv//AGb//wBm//8AZv/4AGf/xwBn/8cAZ//HAGf/xwBn/8cAZ/9PAGf/TwBn/08AZ/9PAGf/TwBm/+oAZv//AGb//wBm//8AZv//AGb//wBm//8AZv//AGb//wBm//8AZv//AGb//wBm//8AZv//AGb//wBm//8AZv//AGb//wBm//8AZv//AGb//wBm//8AZv//AGb//wBm//8AZv//AGb//wBm//8AZv//AGb//wBm//8AZv//AGb//wBm//8AZv//AGb//wBm//8AZv//AGb//wBm//8AZv//AGb//wBm//8AZv//AGb//wBm//8AZv//AGb//wBm//8AZv//AGb//wBm//8AZv//AGb//wBm//8AZv//AGb//wBm//8AZv//AGb//wBm//8AZv//AGb//wBm//8AZv//AGb//wBm//8AZv//AGb//wBm//8AZv//AGb/zgBg/wgAYP8IAGD/CABg/wgAYP8HAAAAAAAAAAAAAAAAAAAAAAAAAAAAAAAAAAAAAAAAAAAAAAAAAAAAAAAAAAAAAAAAAAAAAAAAAAAAAAAAAAAAAAAAAAAAAAAAAAAAAAAAAAAAZv+LAGb/5wBm/+cAZv/nAGb/5wBm//MAZv//AGb//wBm//8AZv//AGb//wBm//8AZv//AGb//wBm//8AZv//AGb//wBm//8AZv//AGb//wBm//gAZ//HAGf/xwBn/8cAZ//HAGf/xwBn/08AZ/9PAGf/TwBn/08AZ/9PAGb/6gBm//8AZv//AGb//wBm//8AZv//AGb//wBm//8AZv//AGb//wBm//8AZv//AGb//wBm//8AZv//AGb//wBm//8AZv//AGb//wBm//8AZv//AGb//wBm//8AZv//AGb//wBm//8AZv//AGb//wBm//8AZv//AGb//wBm//8AZv//AGb//wBm//8AZv//AGb//wBm//8AZv//AGb//wBm//8AZv//AGb//wBm//8AZv//AGb//wBm//8AZv//AGb//wBm//8AZv//AGb//wBm//8AZv//AGb//wBm//8AZv//AGb//wBm//8AZv//AGb//wBm//8AZv//AGb//wBm//8AZv//AGb//wBm//8AZv//AGb//wBm//8AZv/OAGD/CABg/wgAYP8IAGD/CABg/wcAAAAAAAAAAAAAAAAAAAAAAAAAAAAAAAAAAAAAAAAAAAAAAAAAAAAAAAAAAAAAAAAAAAAAAAAAAAAAAAAAAAAAAAAAAAAAAAAAAAAAAAAAAABm/4sAZv/nAGb/5wBm/+cAZv/nAGb/8wBm//8AZv//AGb//wBm//8AZv//AGb//wBm//8AZv//AGb//wBm//8AZv//AGb//wBm//8AZv//AGb/+ABn/8cAZ//HAGf/xwBn/8cAZ//HAGf/TwBn/08AZ/9PAGf/TwBn/08AZv/qAGb//wBm//8AZv//AGb//wBm//8AZv//AGb//wBm//8AZv//AGb//wBm//8AZv//AGb//wBm//8AZv//AGb//wBm//8AZv//AGb//wBm//8AZv//AGb//wBm//8AZv//AGb//wBm//8AZv//AGb//wBm//8AZv//AGb//wBm//8AZv//AGb//wBm//8AZv//AGb//wBm//8AZv//AGb//wBm//8AZv//AGb//wBm//8AZv//AGb//wBm//8AZv//AGb//wBm//8AZv//AGb//wBm//8AZv//AGb//wBm//8AZv//AGb//wBm//8AZv//AGb//wBm//8AZv//AGb//wBm//8AZv//AGb//wBm//8AZv//AGb//wBm/84AYP8IAGD/CABg/wgAYP8IAGD/BwAAAAAAAAAAAAAAAAAAAAAAAAAAAAAAAAAAAAAAAAAAAAAAAAAAAAAAAAAAAAAAAAAAAAAAAAAAAAAAAAAAAAAAAAAAAAAAAAAAAAAAAAAAAGb/iwBm/+cAZv/nAGb/5wBm/+cAZv/zAGb//wBm//8AZv//AGb//wBm//8AZv//AGb//wBm//8AZv//AGb//wBm//8AZv//AGb//wBm//8AZv/4AGf/xwBn/8cAZ//HAGf/xwBn/8cAZ/9PAGf/TwBn/08AZ/9PAGf/TwBm/+oAZv//AGb//wBm//8AZv//AGb//wBm//8AZv//AGb//wBm//8AZv//AGb//wBm//8AZv//AGb//wBm//8AZv//AGb//wBm//8AZv//AGb//wBm//8AZv//AGb//wBm//8AZv//AGb//wBm//8AZv//AGb//wBm//8AZv//AGb//wBm//8AZv//AGb//wBm//8AZv//AGb//wBm//8AZv//AGb//wBm//8AZv//AGb//wBm//8AZv//AGb//wBm//8AZv//AGb//wBm//8AZv//AGb//wBm//8AZv//AGb//wBm//8AZv//AGb//wBm//8AZv//AGb//wBm//8AZv//AGb//wBm//8AZv//AGb//wBm//8AZv//AGb/zgBg/wgAYP8IAGD/CABg/wgAYP8HAAAAAAAAAAAAAAAAAAAAAAAAAAAAAAAAAAAAAAAAAAAAAAAAAAAAAAAAAAAAAAAAAAAAAAAAAAAAAAAAAAAAAAAAAAAAAAAAAAAAAAAAAAAAZv+LAGb/5wBm/+cAZv/nAGb/5wBm//MAZv//AGb//wBm//8AZv//AGb//wBm//8AZv//AGb//wBm//8AZv//AGb//wBm//8AZv//AGb//wBm//gAZ//HAGf/xwBn/8cAZ//HAGf/xwBn/08AZ/9PAGf/TwBn/08AZ/9PAGb/6gBm//8AZv//AGb//wBm//8AZv//AGb//wBm//8AZv//AGb//wBm//8AZv//AGb//wBm//8AZv//AGb//wBm//8AZv//AGb//wBm//8AZv//AGb//wBm//8AZv//AGb//wBm//8AZv//AGb//wBm//8AZv//AGb//wBm//8AZv//AGb//wBm//8AZv//AGb//wBm//8AZv//AGb//wBm//8AZv//AGb//wBm//8AZv//AGb//wBm//8AZv//AGb//wBm//8AZv//AGb//wBm//8AZv//AGb//wBm//8AZv//AGb//wBm//8AZv//AGb//wBm//8AZv//AGb//wBm//8AZv//AGb//wBm//8AZv//AGb//wBm//8AZv/OAGD/CABg/wgAYP8IAGD/CABg/wcAAAAAAAAAAAAAAAAAAAAAAAAAAAAAAAAAAAAAAAAAAAAAAAAAAAAAAAAAAAAAAAAAAAAAAAAAAAAAAAAAAAAAAAAAAAAAAAAAAAAAAAAAAABm/4sAZv/nAGb/5wBm/+cAZv/nAGb/8wBm//8AZv//AGb//wBm//8AZv//AGb//wBm//8AZv//AGb//wBm//8AZv//AGb//wBm//8AZv//AGb/+ABn/8cAZ//HAGf/xwBn/8cAZ//HAGf/TwBn/08AZ/9PAGf/TwBn/08AZv/qAGb//wBm//8AZv//AGb//wBm//8AZv//AGb//wBm//8AZv//AGb//wBm//8AZv//AGb//wBm//8AZv//AGb//wBm//8AZv//AGb//wBm//8AZv//AGb//wBm//8AZv//AGb//wBm//8AZv//AGb//wBm//8AZv//AGb//wBm//8AZv//AGb//wBm//8AZv//AGb//wBm//8AZv//AGb//wBm//8AZv//AGb//wBm//8AZv//AGb//wBm//8AZv//AGb//wBm//8AZv//AGb//wBm//8AZv//AGb//wBm//8AZv//AGb//wBm//8AZv//AGb//wBm//8AZv//AGb//wBm//8AZv//AGb//wBm//8AZv//AGb//wBm/84AYP8IAGD/CABg/wgAYP8IAGD/CAAAAAAAAAAAAAAAAAAAAAAAAAAAAAAAAAAAAAAAAAAAAAAAAAAAAAAAAAAAAAAAAAAAAAAAAAAAAAAAAAAA/wAAAP8AAAD/AAAA/wAAAP8AAGb/iwBm/+cAZv/nAGb/5wBm/+cAZv/zAGb//wBm//8AZv//AGb//wBm//8AZv//AGb//wBm//8AZv//AGb//wBm//8AZv//AGb//wBm//8AZv/4AGf/xwBn/8cAZ//HAGf/xwBn/8cAZ/9PAGf/TwBn/08AZ/9PAGf/TwBm/+oAZv//AGb//wBm//8AZv//AGb//wBm//8AZv//AGb//wBm//8AZv//AGb//wBm//8AZv//AGb//wBm//8AZv//AGb//wBm//8AZv//AGb//wBm//8AZv//AGb//wBm//8AZv//AGb//wBm//8AZv//AGb//wBm//8AZv//AGb//wBm//8AZv//AGb//wBm//8AZv//AGb//wBm//8AZv//AGb//wBm//8AZv//AGb//wBm//8AZv//AGb//wBm//8AZv//AGb//wBm//8AZv//AGb//wBm//8AZv//AGb//wBm//8AZv//AGb//wBm//8AZv//AGb//wBm//8AZv//AGb//wBm//8AZv//AGb//wBm//8AZv//AGb/zwBg/xAAYP8QAGD/EABg/xAAYP8PAAAAAAAAAAAAAAAAAAAAAAAAAAAAAAAAAAAAAAAAAAAAAAAAAAAAAAAAAAAAAAAAAAAAAAAAAAAAAAAAAAD/AQAA/wEAAP8BAAD/AQAA/wEAZv+QAGb/7wBm/+8AZv/vAGb/7wBm//cAZv//AGb//wBm//8AZv//AGb//wBm//8AZv//AGb//wBm//8AZv//AGb//wBm//8AZv//AGb//wBm//gAZ//HAGf/xwBn/8cAZ//HAGf/xwBn/08AZ/9PAGf/TwBn/08AZ/9PAGb/6gBm//8AZv//AGb//wBm//8AZv//AGb//wBm//8AZv//AGb//wBm//8AZv//AGb//wBm//8AZv//AGb//wBm//8AZv//AGb//wBm//8AZv//AGb//wBm//8AZv//AGb//wBm//8AZv//AGb//wBm//8AZv//AGb//wBm//8AZv//AGb//wBm//8AZv//AGb//wBm//8AZv//AGb//wBm//8AZv//AGb//wBm//8AZv//AGb//wBm//8AZv//AGb//wBm//8AZv//AGb//wBm//8AZv//AGb//wBm//8AZv//AGb//wBm//8AZv//AGb//wBm//8AZv//AGb//wBm//8AZv//AGb//wBm//8AZv//AGb//wBm//8AZv/PAGD/EABg/xAAYP8QAGD/EABg/w8AAAAAAAAAAAAAAAAAAAAAAAAAAAAAAAAAAAAAAAAAAAAAAAAAAAAAAAAAAAAAAAAAAAAAAAAAAAAAAAAAAP8BAAD/AQAA/wEAAP8BAAD/AQBm/5AAZv/vAGb/7wBm/+8AZv/vAGb/9wBm//8AZv//AGb//wBm//8AZv//AGb//wBm//8AZv//AGb//wBm//8AZv//AGb//wBm//8AZv//AGb/+ABn/8cAZ//HAGf/xwBn/8cAZ//HAGf/TwBn/08AZ/9PAGf/TwBn/08AZv/qAGb//wBm//8AZv//AGb//wBm//8AZv//AGb//wBm//8AZv//AGb//wBm//8AZv//AGb//wBm//8AZv//AGb//wBm//8AZv//AGb//wBm//8AZv//AGb//wBm//8AZv//AGb//wBm//8AZv//AGb//wBm//8AZv//AGb//wBm//8AZv//AGb//wBm//8AZv//AGb//wBm//8AZv//AGb//wBm//8AZv//AGb//wBm//8AZv//AGb//wBm//8AZv//AGb//wBm//8AZv//AGb//wBm//8AZv//AGb//wBm//8AZv//AGb//wBm//8AZv//AGb//wBm//8AZv//AGb//wBm//8AZv//AGb//wBm//8AZv//AGb//wBm/88AYP8QAGD/EABg/xAAYP8QAGD/DwAAAAAAAAAAAAAAAAAAAAAAAAAAAAAAAAAAAAAAAAAAAAAAAAAAAAAAAAAAAAAAAAAAAAAAAAAAAAAAAAAA/wEAAP8BAAD/AQAA/wEAAP8BAGb/kABm/+8AZv/vAGb/7wBm/+8AZv/3AGb//wBm//8AZv//AGb//wBm//8AZv//AGb//wBm//8AZv//AGb//wBm//8AZv//AGb//wBm//8AZv/4AGf/xwBn/8cAZ//HAGf/xwBn/8cAZ/9PAGf/TwBn/08AZ/9PAGf/TwBm/+oAZv//AGb//wBm//8AZv//AGb//wBm//8AZv//AGb//wBm//8AZv//AGb//wBm//8AZv//AGb//wBm//8AZv//AGb//wBm//8AZv//AGb//wBm//8AZv//AGb//wBm//8AZv//AGb//wBm//8AZv//AGb//wBm//8AZv//AGb//wBm//8AZv//AGb//wBm//8AZv//AGb//wBm//8AZv//AGb//wBm//8AZv//AGb//wBm//8AZv//AGb//wBm//8AZv//AGb//wBm//8AZv//AGb//wBm//8AZv//AGb//wBm//8AZv//AGb//wBm//8AZv//AGb//wBm//8AZv//AGb//wBm//8AZv//AGb//wBm//8AZv//AGb/zwBg/xAAYP8QAGD/EABg/xAAYP8PAAAAAAAAAAAAAAAAAAAAAAAAAAAAAAAAAAAAAAAAAAAAAAAAAAAAAAAAAAAAAAAAAAAAAAAAAAAAAAAAAAD/AQAA/wEAAP8BAAD/AQAA/wEAZv+QAGb/7wBm/+8AZv/vAGb/7wBm//cAZv//AGb//wBm//8AZv//AGb//wBm//8AZv//AGb//wBm//8AZv//AGb//wBm//8AZv//AGb//wBm//gAZ//HAGf/xwBn/8cAZ//HAGf/xwBn/08AZ/9PAGf/TwBn/08AZ/9PAGb/6gBm//8AZv//AGb//wBm//8AZv//AGb//wBm//8AZv//AGb//wBm//8AZv//AGb//wBm//8AZv//AGb//wBm//8AZv//AGb//wBm//8AZv//AGb//wBm//8AZv//AGb//wBm//8AZv//AGb//wBm//8AZv//AGb//wBm//8AZv//AGb//wBm//8AZv//AGb//wBm//8AZv//AGb//wBm//8AZv//AGb//wBm//8AZv//AGb//wBm//8AZv//AGb//wBm//8AZv//AGb//wBm//8AZv//AGb//wBm//8AZv//AGb//wBm//8AZv//AGb//wBm//8AZv//AGb//wBm//8AZv//AGb//wBm//8AZv//AGb//wBm//8AZv/PAGD/EABg/xAAYP8QAGD/EABg/w8AAAAAAAAAAAAAAAAAAAAAAAAAAAAAAAAAAAAAAAAAAAAAAAAAAAAAAAAAAAAAAAAAAAAAAAAAAAAAAAAAAP8BAAD/AQAA/wEAAP8BAAD/AQBm/5AAZv/vAGb/7wBm/+8AZv/vAGb/9wBm//8AZv//AGb//wBm//8AZv//AGb//wBm//8AZv//AGb//wBm//8AZv//AGb//wBm//8AZv//AGb/+ABn/8cAZ//HAGf/xwBn/8cAZ//HAGf/TwBn/08AZ/9PAGf/TwBn/08AZv/qAGb//wBm//8AZv//AGb//wBm//8AZv//AGb//wBm//8AZv//AGb//wBm//8AZv//AGb//wBm//8AZv//AGb//wBm//8AZv//AGb//wBm//8AZv//AGb//wBm//8AZv//AGb//wBm//8AZv//AGb//wBm//8AZv//AGb//wBm//8AZv//AGb//wBm//8AZv//AGb//wBm//8AZv//AGb//wBm//8AZv//AGb//wBm//8AZv//AGb//wBm//8AZv//AGb//wBm//8AZv//AGb//wBm//8AZv//AGb//wBm//8AZv//AGb//wBm//8AZv//AGb//wBm//8AZv//AGb//wBm//8AZv//AGb//wBm//8AZv//AGb//wBm/+wAZf+fAGX/nwBl/58AZf+fAGX/mABl/1EAZf9RAGX/UQBl/1EAZf9RAGb/TgBm/04AZv9OAGb/TgBm/04AZf9PAGX/TwBl/08AZf9PAGX/TwBm/3sAZv+MAGb/jABm/4wAZv+MAGb/0ABm//4AZv/+AGb//gBm//4AZv/+AGb//wBm//8AZv//AGb//wBm//8AZv//AGb//wBm//8AZv//AGb//wBm//8AZv//AGb//wBm//8AZv/4AGf/xwBn/8cAZ//HAGf/xwBn/8cAZ/9PAGf/TwBn/08AZ/9PAGf/TwBm/+oAZv//AGb//wBm//8AZv//AGb//wBm//8AZv//AGb//wBm//8AZv//AGb//wBm//8AZv//AGb//wBm//8AZv//AGb//wBm//8AZv//AGb//wBm//8AZv//AGb//wBm//8AZv//AGb//wBm//8AZv//AGb//wBm//8AZv//AGb//wBm//8AZv//AGb//wBm//8AZv//AGb//wBm//8AZv//AGb//wBm//8AZv//AGb//wBm//8AZv//AGb//wBm//8AZv//AGb//wBm//8AZv//AGb//wBm//8AZv//AGb//wBm//8AZv//AGb//wBm//8AZv//AGb//wBm//8AZv//AGb//wBm//8AZv//AGb//wBm//8AZv//AGb/7gBl/6sAZf+rAGX/qwBl/6sAZf+kAGX/WABl/1gAZf9YAGX/WABl/1gAZv9VAGb/VQBm/1UAZv9VAGb/VQBl/1YAZf9WAGX/VgBl/1YAZf9WAGb/hgBm/5gAZv+YAGb/mABm/5gAZv/WAGb//wBm//8AZv//AGb//wBm//8AZv//AGb//wBm//8AZv//AGb//wBm//8AZv//AGb//wBm//8AZv//AGb//wBm//8AZv//AGb//wBm//gAZ//HAGf/xwBn/8cAZ//HAGf/xwBn/08AZ/9PAGf/TwBn/08AZ/9PAGb/6gBm//8AZv//AGb//wBm//8AZv//AGb//wBm//8AZv//AGb//wBm//8AZv//AGb//wBm//8AZv//AGb//wBm//8AZv//AGb//wBm//8AZv//AGb//wBm//8AZv//AGb//wBm//8AZv//AGb//wBm//8AZv//AGb//wBm//8AZv//AGb//wBm//8AZv//AGb//wBm//8AZv//AGb//wBm//8AZv//AGb//wBm//8AZv//AGb//wBm//8AZv//AGb//wBm//8AZv//AGb//wBm//8AZv//AGb//wBm//8AZv//AGb//wBm//8AZv//AGb//wBm//8AZv//AGb//wBm//8AZv//AGb//wBm//8AZv//AGb//wBm//8AZv/uAGX/qwBl/6sAZf+rAGX/qwBl/6QAZf9YAGX/WABl/1gAZf9YAGX/WABm/1UAZv9VAGb/VQBm/1UAZv9VAGX/VgBl/1YAZf9WAGX/VgBl/1YAZv+GAGb/mABm/5gAZv+YAGb/mABm/9YAZv//AGb//wBm//8AZv//AGb//wBm//8AZv//AGb//wBm//8AZv//AGb//wBm//8AZv//AGb//wBm//8AZv//AGb//wBm//8AZv//AGb/+ABn/8cAZ//HAGf/xwBn/8cAZ//HAGf/TwBn/08AZ/9PAGf/TwBn/08AZv/qAGb//wBm//8AZv//AGb//wBm//8AZv//AGb//wBm//8AZv//AGb//wBm//8AZv//AGb//wBm//8AZv//AGb//wBm//8AZv//AGb//wBm//8AZv//AGb//wBm//8AZv//AGb//wBm//8AZv//AGb//wBm//8AZv//AGb//wBm//8AZv//AGb//wBm//8AZv//AGb//wBm//8AZv//AGb//wBm//8AZv//AGb//wBm//8AZv//AGb//wBm//8AZv//AGb//wBm//8AZv//AGb//wBm//8AZv//AGb//wBm//8AZv//AGb//wBm//8AZv//AGb//wBm//8AZv//AGb//wBm//8AZv//AGb//wBm//8AZv//AGb//wBm/+4AZf+rAGX/qwBl/6sAZf+rAGX/pABl/1gAZf9YAGX/WABl/1gAZf9YAGb/VQBm/1UAZv9VAGb/VQBm/1UAZf9WAGX/VgBl/1YAZf9WAGX/VgBm/4YAZv+YAGb/mABm/5gAZv+YAGb/1gBm//8AZv//AGb//wBm//8AZv//AGb//wBm//8AZv//AGb//wBm//8AZv//AGb//wBm//8AZv//AGb//wBm//8AZv//AGb//wBm//8AZv/4AGf/xwBn/8cAZ//HAGf/xwBn/8cAZ/9PAGf/TwBn/08AZ/9PAGf/TwBm/+oAZv//AGb//wBm//8AZv//AGb//wBm//8AZv//AGb//wBm//8AZv//AGb//wBm//8AZv//AGb//wBm//8AZv//AGb//wBm//8AZv//AGb//wBm//8AZv//AGb//wBm//8AZv//AGb//wBm//8AZv//AGb//wBm//8AZv//AGb//wBm//8AZv//AGb//wBm//8AZv//AGb//wBm//8AZv//AGb//wBm//8AZv//AGb//wBm//8AZv//AGb//wBm//8AZv//AGb//wBm//8AZv//AGb//wBm//8AZv//AGb//wBm//8AZv//AGb//wBm//8AZv//AGb//wBm//8AZv//AGb//wBm//8AZv//AGb//wBm//8AZv//AGb/7gBl/6sAZf+rAGX/qwBl/6sAZf+kAGX/WABl/1gAZf9YAGX/WABl/1gAZv9VAGb/VQBm/1UAZv9VAGb/VQBl/1YAZf9WAGX/VgBl/1YAZf9WAGb/hgBm/5gAZv+YAGb/mABm/5gAZv/WAGb//wBm//8AZv//AGb//wBm//8AZv//AGb//wBm//8AZv//AGb//wBm//8AZv//AGb//wBm//8AZv//AGb//wBm//8AZv//AGb//wBm//gAZ//HAGf/xwBn/8cAZ//HAGf/xwBn/08AZ/9PAGf/TwBn/08AZ/9PAGb/6gBm//8AZv//AGb//wBm//8AZv//AGb//wBm//8AZv//AGb//wBm//8AZv//AGb//wBm//8AZv//AGb//wBm//8AZv//AGb//wBm//8AZv//AGb//wBm//8AZv//AGb//wBm//8AZv//AGb//wBm//8AZv//AGb//wBm//8AZv//AGb//wBm//8AZv//AGb//wBm//8AZv//AGb//wBm//8AZv//AGb//wBm//8AZv//AGb//wBm//8AZv//AGb//wBm//8AZv//AGb//wBm//8AZv//AGb//wBm//8AZv//AGb//wBm//8AZv//AGb//wBm//8AZv//AGb//wBm//8AZv//AGb//wBm//8AZv//AGb//wBm//8AZv/8AGb/7gBm/+4AZv/uAGb/7gBm/+0AZv/eAGb/3gBm/94AZv/eAGb/3gBm/90AZv/dAGb/3QBm/90AZv/dAGb/3QBm/90AZv/dAGb/3QBm/90AZv/nAGb/6gBm/+oAZv/qAGb/6gBm//cAZv//AGb//wBm//8AZv//AGb//wBm//8AZv//AGb//wBm//8AZv//AGb//wBm//8AZv//AGb//wBm//8AZv//AGb//wBm//8AZv//AGb/+ABn/8cAZ//HAGf/xwBn/8cAZ//HAGf/TwBn/08AZ/9PAGf/TwBn/08AZv/qAGb//wBm//8AZv//AGb//wBm//8AZv//AGb//wBm//8AZv//AGb//wBm//8AZv//AGb//wBm//8AZv//AGb//wBm//8AZv//AGb//wBm//8AZv//AGb//wBm//8AZv//AGb//wBm//8AZv//AGb//wBm//8AZv//AGb//wBm//8AZv//AGb//wBm//8AZv//AGb//wBm//8AZv//AGb//wBm//8AZv//AGb//wBm//8AZv//AGb//wBm//8AZv//AGb//wBm//8AZv//AGb//wBm//8AZv//AGb//wBm//8AZv//AGb//wBm//8AZv//AGb//wBm//8AZv//AGb//wBm//8AZv//AGb//wBm//8AZv//AGb//wBm//8AZv//AGb//wBm//8AZv//AGb//wBm//8AZv//AGb//wBm//8AZv//AGb//wBm//8AZv//AGb//wBm//8AZv//AGb//wBm//8AZv//AGb//wBm//8AZv//AGb//wBm//8AZv//AGb//wBm//8AZv//AGb//wBm//8AZv//AGb//wBm//8AZv//AGb//wBm//8AZv//AGb//wBm//8AZv//AGb//wBm//8AZv//AGb//wBm//8AZv/4AGf/xwBn/8cAZ//HAGf/xwBn/8cAZ/9PAGf/TwBn/08AZ/9PAGf/TwBm/+oAZv//AGb//wBm//8AZv//AGb//wBm//8AZv//AGb//wBm//8AZv//AGb//wBm//8AZv//AGb//wBm//8AZv//AGb//wBm//8AZv//AGb//wBm//8AZv//AGb//wBm//8AZv//AGb//wBm//8AZv//AGb//wBm//8AZv//AGb//wBm//8AZv//AGb//wBm//8AZv//AGb//wBm//8AZv//AGb//wBm//8AZv//AGb//wBm//8AZv//AGb//wBm//8AZv//AGb//wBm//8AZv//AGb//wBm//8AZv//AGb//wBm//8AZv//AGb//wBm//8AZv//AGb//wBm//8AZv//AGb//wBm//8AZv//AGb//wBm//8AZv//AGb//wBm//8AZv//AGb//wBm//8AZv//AGb//wBm//8AZv//AGb//wBm//8AZv//AGb//wBm//8AZv//AGb//wBm//8AZv//AGb//wBm//8AZv//AGb//wBm//8AZv//AGb//wBm//8AZv//AGb//wBm//8AZv//AGb//wBm//8AZv//AGb//wBm//8AZv//AGb//wBm//8AZv//AGb//wBm//8AZv//AGb//wBm//8AZv//AGb//wBm//gAZ//HAGf/xwBn/8cAZ//HAGf/xwBn/08AZ/9PAGf/TwBn/08AZ/9PAGb/6gBm//8AZv//AGb//wBm//8AZv//AGb//wBm//8AZv//AGb//wBm//8AZv//AGb//wBm//8AZv//AGb//wBm//8AZv//AGb//wBm//8AZv//AGb//wBm//8AZv//AGb//wBm//8AZv//AGb//wBm//8AZv//AGb//wBm//8AZv//AGb//wBm//8AZv//AGb//wBm//8AZv//AGb//wBm//8AZv//AGb//wBm//8AZv//AGb//wBm//8AZv//AGb//wBm//8AZv//AGb//wBm//8AZv//AGb//wBm//8AZv//AGb//wBm//8AZv//AGb//wBm//8AZv//AGb//wBm//8AZv//AGb//wBm//8AZv//AGb//wBm//8AZv//AGb//wBm//8AZv//AGb//wBm//8AZv//AGb//wBm//8AZv//AGb//wBm//8AZv//AGb//wBm//8AZv//AGb//wBm//8AZv//AGb//wBm//8AZv//AGb//wBm//8AZv//AGb//wBm//8AZv//AGb//wBm//8AZv//AGb//wBm//8AZv//AGb//wBm//8AZv//AGb//wBm//8AZv//AGb//wBm//8AZv//AGb//wBm//8AZv//AGb/+ABn/8cAZ//HAGf/xwBn/8cAZ//HAGf/TwBn/08AZ/9PAGf/TwBn/08AZv/qAGb//wBm//8AZv//AGb//wBm//8AZv//AGb//wBm//8AZv//AGb//wBm//8AZv//AGb//wBm//8AZv//AGb//wBm//8AZv//AGb//wBm//8AZv//AGb//wBm//8AZv//AGb//wBm//8AZv//AGb//wBm//8AZv//AGb//wBm//8AZv//AGb//wBm//8AZv//AGb//wBm//8AZv//AGb//wBm//8AZv//AGb//wBm//8AZv//AGb//wBm//8AZv//AGb//wBm//8AZv//AGb//wBm//8AZv//AGb//wBm//8AZv//AGb//wBm//8AZv//AGb//wBm//8AZv//AGb//wBm//8AZv//AGb//wBm//8AZv//AGb//wBm//8AZv//AGb//wBm//8AZv//AGb//wBm//8AZv//AGb//wBm//8AZv//AGb//wBm//8AZv//AGb//wBm//8AZv//AGb//wBm//8AZv//AGb//wBm//8AZv//AGb//wBm//8AZv//AGb//wBm//8AZv//AGb//wBm//8AZv//AGb//wBm//8AZv//AGb//wBm//8AZv//AGb//wBm//8AZv//AGb//wBm//8AZv//AGb//wBm//8AZv/4AGf/xwBn/8cAZ//HAGf/xwBn/8cAZ/9PAGf/TwBn/08AZ/9PAGf/TwBm/+oAZv//AGb//wBm//8AZv//AGb//wBm//8AZv//AGb//wBm//8AZv//AGb//wBm//8AZv//AGb//wBm//8AZv//AGb//wBm//8AZv//AGb//wBm//8AZv//AGb//wBm//8AZv//AGb//wBm//8AZv//AGb//wBm//8AZv//AGb//wBm//8AZv//AGb//wBm//8AZv//AGb//wBm//8AZv//AGb//wBm//8AZv//AGb//wBm//8AZv//AGb//wBm//8AZv//AGb//wBm//8AZv//AGb//wBm//8AZv//AGb//wBm//8AZv//AGb//wBm//8AZv//AGb//wBm//8AZv//AGb//wBm//8AZv//AGb//wBm//8AZv//AGb//wBm//8AZv//AGb//wBm//8AZv//AGb//wBm//8AZv//AGb//wBm//8AZv//AGb//wBm//8AZv//AGb//wBm//8AZv//AGb//wBm//8AZv//AGb//wBm//8AZv//AGb//wBm//8AZv//AGb//wBm//8AZv//AGb//wBm//8AZv//AGb//wBm//8AZv//AGb//wBm//8AZv//AGb//wBm//8AZv//AGb//wBm//8AZv//AGb//wBm//gAZ//HAGf/xwBn/8cAZ//HAGf/xwBn/08AZ/9PAGf/TwBn/08AZ/9PAGb/6gBm//8AZv//AGb//wBm//8AZv//AGb//wBm//8AZv//AGb//wBm//8AZv//AGb//wBm//8AZv//AGb//wBm//8AZv//AGb//wBm//8AZv//AGb//wBm//8AZv//AGb//wBm//8AZv//AGb//wBm//8AZv//AGb//wBm//8AZv//AGb//wBm//8AZv//AGb//wBm//8AZv//AGb//wBm//8AZv//AGb//wBm//8AZv//AGb//wBm//8AZv//AGb//wBm//8AZv//AGb//wBm//8AZv//AGb//wBm//8AZv//AGb//wBm//8AZv//AGb//wBm//8AZv//AGb//wBm//8AZv//AGb//wBm//8AZv//AGb//wBm//8AZv//AGb//wBm//8AZv//AGb//wBm//8AZv//AGb//wBm//8AZv//AGb//wBm//8AZv//AGb//wBm//8AZv//AGb//wBm//8AZv//AGb//wBm//8AZv//AGb//wBm//8AZv//AGb//wBm//8AZv//AGb//wBm//8AZv//AGb//wBm//8AZv//AGb//wBm//8AZv//AGb//wBm//8AZv//AGb//wBm//8AZv//AGb//wBm//8AZv//AGb/+ABn/8cAZ//HAGf/xwBn/8cAZ//HAGf/TwBn/08AZ/9PAGf/TwBn/08AZv/qAGb//wBm//8AZv//AGb//wBm//8AZv//AGb//wBm//8AZv//AGb//wBm//8AZv//AGb//wBm//8AZv//AGb//wBm//8AZv//AGb//wBm//8AZv//AGb//wBm//8AZv//AGb//wBm//8AZv//AGb//wBm//8AZv//AGb//wBm//8AZv//AGb//wBm//8AZv//AGb//wBm//8AZv//AGb//wBm//8AZv//AGb//wBm//8AZv//AGb//wBm//8AZv//AGb//wBm//8AZv//AGb//wBm//8AZv//AGb//wBm//8AZv//AGb//wBm//8AZv//AGb//wBm//8AZv//AGb//wBm//8AZv//AGb//wBm//8AZv//AGb//wBm//8AZv//AGb//wBm//8AZv//AGb//wBm//8AZv//AGb//wBm//8AZv//AGb//wBm//8AZv//AGb//wBm//8AZv//AGb//wBm//8AZv//AGb//wBm//8AZv//AGb//wBm//8AZv//AGb//wBm//8AZv//AGb//wBm//8AZv//AGb//wBm//8AZv//AGb//wBm//8AZv//AGb//wBm//8AZv//AGb//wBm//8AZv//AGb//wBm//8AZv/4AGf/xwBn/8cAZ//HAGf/xwBn/8cAZ/9PAGf/TwBn/08AZ/9PAGf/TwBm/+oAZv//AGb//wBm//8AZv//AGb//wBm//8AZv//AGb//wBm//8AZv//AGb//wBm//8AZv//AGb//wBm//8AZv//AGb//wBm//8AZv//AGb//wBm//8AZv//AGb//wBm//8AZv//AGb//wBm//8AZv//AGb//wBm//8AZv//AGb//wBm//8AZv//AGb//wBm//8AZv//AGb//wBm//8AZv//AGb//wBm//8AZv//AGb//wBm//8AZv//AGb//wBm//8AZv//AGb//wBm//8AZv//AGb//wBm//8AZv//AGb//wBm//8AZv//AGb//wBm//8AZv//AGb//wBm//8AZv//AGb//wBm//8AZv//AGb//wBm//8AZv//AGb//wBm//8AZv//AGb//wBm//8AZv//AGb//wBm//8AZv//AGb//wBm//8AZv//AGb//wBm//8AZv//AGb//wBm//8AZv//AGb//wBm//8AZv//AGb//wBm//8AZv//AGb//wBm//8AZv//AGb//wBm//8AZv//AGb//wBm//8AZv//AGb//wBm//8AZv//AGb//wBm//8AZv//AGb//wBm//8AZv//AGb//wBm//8AZv//AGb//wBm//gAZ//HAGf/xwBn/8cAZ//HAGf/xwBn/08AZ/9PAGf/TwBn/08AZ/9PAGb/6gBm//8AZv//AGb//wBm//8AZv//AGb//wBm//8AZv//AGb//wBm//8AZv//AGb//wBm//8AZv//AGb//wBm//8AZv//AGb//wBm//8AZv//AGb//wBm//8AZv//AGb//wBm//8AZv//AGb//wBm//8AZv//AGb//wBm//8AZv//AGb//wBm//8AZv//AGb//wBm//8AZv//AGb//wBm//8AZv//AGb//wBm//8AZv//AGb//wBm//8AZv//AGb//wBm//8AZv//AGb//wBm//8AZv//AGb//wBm//8AZv//AGb//wBm//8AZv//AGb//wBm//8AZv//AGb//wBm//8AZv//AGb//wBm//8AZv//AGb//wBm//8AZv//AGb//wBm//8AZv//AGb//wBm//8AZv//AGb//wBm//8AZv//AGb//wBm//8AZv//AGb//wBm//8AZv//AGb//wBm//8AZv//AGb//wBm//8AZv//AGb//wBm//8AZv//AGb//wBm//8AZv//AGb//wBm//8AZv//AGb//wBm//8AZv//AGb//wBm//8AZv//AGb//wBm//8AZv//AGb//wBm//8AZv//AGb//wBm//8AZv//AGb/+ABn/8cAZ//HAGf/xwBn/8cAZ//HAGf/TwBn/08AZ/9PAGf/TwBn/08AZv/qAGb//wBm//8AZv//AGb//wBm//8AZv//AGb//wBm//8AZv//AGb//wBm//8AZv//AGb//wBm//8AZv//AGb//wBm//8AZv//AGb//wBm//8AZv//AGb//wBm//8AZv//AGb//wBm//8AZv//AGb//wBm//8AZv//AGb//wBm//8AZv//AGb//wBm//8AZv//AGb//wBm//8AZv//AGb//wBm//8AZv//AGb//wBm//8AZv//AGb//wBm//8AZv//AGb//wBm//8AZv//AGb//wBm//8AZv//AGb//wBm//8AZv//AGb//wBm//8AZv//AGb//wBm//8AZv//AGb//wBm//8AZv//AGb//wBm//8AZv//AGb//wBm//8AZv//AGb//wBm//8AZv//AGb//wBm//8AZv//AGb//wBm//8AZv//AGb//wBm//8AZv//AGb//wBm//8AZv//AGb//wBm//8AZv//AGb//wBm//8AZv//AGb//wBm//8AZv//AGb//wBm//8AZv//AGb//wBm//8AZv//AGb//wBm//8AZv//AGb//wBm//8AZv//AGb//wBm//8AZv//AGb//wBm//8AZv//AGb//wBm//8AZv/4AGf/xwBn/8cAZ//HAGf/xwBn/8cAZ/9PAGf/TwBn/08AZ/9PAGf/TwBm/+oAZv//AGb//wBm//8AZv//AGb//wBm//8AZv//AGb//wBm//8AZv//AGb//wBm//8AZv//AGb//wBm//8AZv//AGb//wBm//8AZv//AGb//wBm//8AZv//AGb//wBm//8AZv//AGb//wBm//8AZv//AGb//wBm//8AZv//AGb//wBm//8AZv//AGb//wBm//8AZv//AGb//wBm//8AZv//AGb//wBm//8AZv//AGb//wBm//8AZv//AGb//wBm//8AZv//AGb//wBm//8AZv//AGb//wBm//8AZv//AGb//wBm//8AZv//AGb//wBm//8AZv//AGb//wBm//8AZv//AGb//wBm//8AZv//AGb//wBm//8AZv//AGb//wBm//8AZv//AGb//wBm//8AZv//AGb//wBm//8AZv//AGb//wBm//8AZv//AGb//wBm//8AZv//AGb//wBm//8AZv//AGb//wBm//8AZv//AGb//wBm//8AZv//AGb//wBm//8AZv//AGb//wBm//8AZv//AGb//wBm//8AZv//AGb//wBm//8AZv//AGb//wBm//8AZv//AGb//wBm//8AZv//AGb//wBm//8AZv//AGb//wBm//gAZ//HAGf/xwBn/8cAZ//HAGf/xwBn/08AZ/9PAGf/TwBn/08AZ/9PAGb/6gBm//8AZv//AGb//wBm//8AZv//AGb//wBm//8AZv//AGb//wBm//8AZv//AGb//wBm//8AZv//AGb//wBm//8AZv//AGb//wBm//8AZv//AGb//wBm//8AZv//AGb//wBm//8AZv//AGb//wBm//8AZv//AGb//wBm//8AZv//AGb//wBm//8AZv//AGb//wBm//8AZv//AGb//wBm//8AZv//AGb//wBm//8AZv//AGb//wBm//8AZv//AGb//wBm//8AZv//AGb//wBm//8AZv//AGb//wBm//8AZv//AGb//wBm//8AZv//AGb//wBm//8AZv//AGb//wBm//8AZv//AGb//wBm//8AZv//AGb//wBm//8AZv//AGb//wBm//8AZv//AGb//wBm//8AZv//AGb//wBm//8AZv//AGb//wBm//8AZv//AGb//wBm//8AZv//AGb//wBm//8AZv//AGb//wBm//8AZv//AGb//wBm//8AZv//AGb//wBm//8AZv//AGb//wBm//8AZv//AGb//wBm//8AZv//AGb//wBm//8AZv//AGb//wBm//8AZv//AGb//wBm//8AZv//AGb//wBm//8AZv//AGb/+ABn/8cAZ//HAGf/xwBn/8cAZ//HAGf/TwBn/08AZ/9PAGf/TwBn/08AZv/qAGb//wBm//8AZv//AGb//wBm//8AZv//AGb//wBm//8AZv//AGb//wBm//8AZv//AGb//wBm//8AZv//AGb//wBm//8AZv//AGb//wBm//8AZv//AGb//wBm//8AZv//AGb//wBm//8AZv//AGb//wBm//8AZv//AGb//wBm//8AZv//AGb//wBm//8AZv//AGb//wBm//8AZv//AGb//wBm//8AZv//AGb//wBm//8AZv//AGb//wBm//8AZv//AGb//wBm//8AZv//AGb//wBm//8AZv//AGb//wBm//8AZv//AGb//wBm//8AZv//AGb//wBm//8AZv//AGb//wBm//8AZv//AGb//wBm//8AZv//AGb//wBm//8AZv//AGb//wBm//8AZv//AGb//wBm//8AZv//AGb//wBm//8AZv//AGb//wBm//8AZv//AGb//wBm//8AZv//AGb//wBm//8AZv//AGb//wBm//8AZv//AGb//wBm//8AZv//AGb//wBm//8AZv//AGb//wBm//8AZv//AGb//wBm//8AZv//AGb//wBm//8AZv//AGb//wBm//8AZv//AGb//wBm//8AZv//AGb//wBm//8AZv/4AGf/xwBn/8cAZ//HAGf/xwBn/8cAZ/9PAGf/TwBn/08AZ/9PAGf/TwBm/+oAZv//AGb//wBm//8AZv//AGb//wBm//8AZv//AGb//wBm//8AZv//AGb//wBm//8AZv//AGb//wBm//8AZv//AGb//wBm//8AZv//AGb//wBm//8AZv//AGb//wBm//8AZv//AGb//wBm//8AZv//AGb//wBm//8AZv//AGb//wBm//8AZv//AGb//wBm//8AZv//AGb//wBm//8AZv//AGb//wBm//8AZv//AGb//wBm//8AZv//AGb//wBm//8AZv//AGb//wBm//8AZv//AGb//wBm//8AZv//AGb//wBm//8AZv//AGb//wBm//8AZv//AGb//wBm//8AZv//AGb//wBm//8AZv//AGb//wBm//8AZv//AGb//wBm//8AZv//AGb//wBm//8AZv//AGb//wBm//8AZv//AGb//wBm//8AZv//AGb//wBm//8AZv//AGb//wBm//8AZv//AGb//wBm//8AZv//AGb//wBm//8AZv//AGb//wBm//8AZv//AGb//wBm//8AZv//AGb//wBm//8AZv//AGb//wBm//8AZv//AGb//wBm//8AZv//AGb//wBm//8AZv//AGb//wBm//8AZv//AGb//wBm//gAZ//HAGf/xwBn/8cAZ//HAGf/xwBn/08AZ/9PAGf/TwBn/08AZ/9PAGb/6gBm//8AZv//AGb//wBm//8AZv//AGb//wBm//8AZv//AGb//wBm//8AZv//AGb//wBm//8AZv//AGb//wBm//8AZv//AGb//wBm//8AZv//AGb//wBm//8AZv//AGb//wBm//8AZv//AGb//wBm//8AZv//AGb//wBm//8AZv//AGb//wBm//8AZv//AGb//wBm//8AZv//AGb//wBm//8AZv//AGb//wBm//8AZv//AGb//wBm//8AZv//AGb//wBm//8AZv//AGb//wBm//8AZv//AGb//wBm//8AZv//AGb//wBm//8AZv//AGb//wBm//8AZv//AGb//wBm//8AZv//AGb//wBm//8AZv//AGb//wBm//8AZv//AGb//wBm//8AZv//AGb//wBm//8AZv//AGb//wBm//8AZv//AGb//wBm//8AZv//AGb//wBm//8AZv//AGb//wBm//8AZv//AGb//wBm//8AZv//AGb//wBm//8AZv//AGb//wBm//8AZv//AGb//wBm//8AZv//AGb//wBm//8AZv//AGb//wBm//8AZv//AGb//wBm//8AZv//AGb//wBm//8AZv//AGb//wBm//8AZv//AGb/+ABm/8MAZv/DAGb/wwBm/8MAZv/DAGf/TwBn/08AZ/9PAGf/TwBn/08AZv/qAGb//wBm//8AZv//AGb//wBm//8AZv//AGb//wBm//8AZv//AGb//wBm//8AZv//AGb//wBm//8AZv//AGb//wBm//8AZv//AGb//wBm//8AZv//AGb//wBm//8AZv//AGb//wBm//8AZv//AGb//wBm//8AZv//AGb//wBm//8AZv//AGb//wBm//8AZv//AGb//wBm//8AZv//AGb//wBm//8AZv//AGb//wBm//8AZv//AGb//wBm//8AZv//AGb//wBm//8AZv//AGb//wBm//8AZv//AGb//wBm//8AZv//AGb//wBm//8AZv//AGb//wBm//8AZv//AGb//wBm//8AZv//AGb//wBm//8AZv//AGb//wBm//8AZv//AGb//wBm//8AZv//AGb//wBm//8AZv//AGb//wBm//8AZv//AGb//wBm//8AZv//AGb//wBm//8AZv//AGb//wBm//8AZv//AGb//wBm//8AZv//AGb//wBm//8AZv//AGb//wBm//8AZv//AGb//wBm//8AZv//AGb//wBm//8AZv//AGb//wBm//8AZv//AGb//wBm//8AZv//AGb//wBm//8AZv//AGb//wBm//8AZv/3AGX/vwBl/78AZf+/AGX/vwBl/78AZ/9PAGf/TwBn/08AZ/9PAGf/TwBm/+oAZv//AGb//wBm//8AZv//AGb//wBm//8AZv//AGb//wBm//8AZv//AGb//wBm//8AZv//AGb//wBm//8AZv//AGb//wBm//8AZv//AGb//wBm//8AZv//AGb//wBm//8AZv//AGb//wBm//8AZv//AGb//wBm//8AZv//AGb//wBm//8AZv//AGb//wBm//8AZv//AGb//wBm//8AZv//AGb//wBm//8AZv//AGb//wBm//8AZv//AGb//wBm//8AZv//AGb//wBm//8AZv//AGb//wBm//8AZv//AGb//wBm//8AZv//AGb//wBm//8AZv//AGb//wBm//8AZv//AGb//wBm//8AZv//AGb//wBm//8AZv//AGb//wBm//8AZv//AGb//wBm//8AZv//AGb//wBm//8AZv//AGb//wBm//8AZv//AGb//wBm//8AZv//AGb//wBm//8AZv//AGb//wBm//8AZv//AGb//wBm//8AZv//AGb//wBm//8AZv//AGb//wBm//8AZv//AGb//wBm//8AZv//AGb//wBm//8AZv//AGb//wBm//8AZv//AGb//wBm//8AZv//AGb//wBm//8AZv//AGb//wBm//cAZf+/AGX/vwBl/78AZf+/AGX/vwBn/08AZ/9PAGf/TwBn/08AZ/9PAGb/6gBm//8AZv//AGb//wBm//8AZv//AGb//wBm//8AZv//AGb//wBm//8AZv//AGb//wBm//8AZv//AGb//wBm//8AZv//AGb//wBm//8AZv//AGb//wBm//8AZv//AGb//wBm//8AZv//AGb//wBm//8AZv//AGb//wBm//8AZv//AGb//wBm//8AZv//AGb//wBm//8AZv//AGb//wBm//8AZv//AGb//wBm//8AZv//AGb//wBm//8AZv//AGb//wBm//8AZv//AGb//wBm//8AZv//AGb//wBm//8AZv//AGb//wBm//8AZv//AGb//wBm//8AZv//AGb//wBm//8AZv//AGb//wBm//8AZv//AGb//wBm//8AZv//AGb//wBm//8AZv//AGb//wBm//8AZv//AGb//wBm//8AZv//AGb//wBm//8AZv//AGb//wBm//8AZv//AGb//wBm//8AZv//AGb//wBm//8AZv//AGb//wBm//8AZv//AGb//wBm//8AZv//AGb//wBm//8AZv//AGb//wBm//8AZv//AGb//wBm//8AZv//AGb//wBm//8AZv//AGb//wBm//8AZv//AGb//wBm//8AZv//AGb/9wBl/78AZf+/AGX/vwBl/78AZf+/AGf/TwBn/08AZ/9PAGf/TwBn/08AZv/qAGb//wBm//8AZv//AGb//wBm//8AZv//AGb//wBm//8AZv//AGb//wBm//8AZv//AGb//wBm//8AZv//AGb//wBm//8AZv//AGb//wBm//8AZv//AGb//wBm//8AZv//AGb//wBm//8AZv//AGb//wBm//8AZv//AGb//wBm//8AZv//AGb//wBm//8AZv//AGb//wBm//8AZv//AGb//wBm//8AZv//AGb//wBm//8AZv//AGb//wBm//8AZv//AGb//wBm//8AZv//AGb//wBm//8AZv//AGb//wBm//8AZv//AGb//wBm//8AZv//AGb//wBm//8AZv//AGb//wBm//8AZv//AGb//wBm//8AZv//AGb//wBm//8AZv//AGb//wBm//8AZv//AGb//wBm//8AZv//AGb//wBm//8AZv//AGb//wBm//8AZv//AGb//wBm//8AZv//AGb//wBm//8AZv//AGb//wBm//8AZv//AGb//wBm//8AZv//AGb//wBm//8AZv//AGb//wBm//8AZv//AGb//wBm//8AZv//AGb//wBm//8AZv//AGb//wBm//8AZv//AGb//wBm//8AZv//AGb//wBm//8AZv/3AGX/vwBl/78AZf+/AGX/vwBl/78AZ/9PAGf/TwBn/08AZ/9PAGf/TwBm/+oAZv//AGb//wBm//8AZv//AGb//wBm//8AZv//AGb//wBm//8AZv//AGb//wBm//8AZv//AGb//wBm//8AZv//AGb//wBm//8AZv//AGb//wBm//8AZv//AGb//wBm//8AZv/6AGb/7wBm/+8AZv/vAGb/7wBm/+0AZv/kAGb/5ABm/+QAZv/kAGb/5ABm/+QAZv/kAGb/5ABm/+QAZv/kAGb/9wBm//gAZv/4AGb/+ABm//gAZv/+AGb//wBm//8AZv//AGb//wBm//8AZv//AGb//wBm//8AZv//AGb//wBm//8AZv//AGb//wBm//8AZv//AGb//wBm//8AZv//AGb//wBm//8AZv//AGb//wBm//8AZv//AGb//QBm//UAZv/1AGb/9QBm//UAZv/zAGb/5ABm/+QAZv/kAGb/5ABm/+QAZv/kAGb/5ABm/+QAZv/kAGb/5ABm/+QAZv/kAGb/5ABm/+QAZv/kAGb/5ABm/+QAZv/kAGb/5ABm/+QAZv/kAGb/5ABm/+QAZv/kAGb/5ABm/+QAZv/kAGb/5ABm/+QAZv/kAGb/5ABm/+QAZv/kAGb/5ABm/+QAZv/jAGb/4gBm/+IAZv/iAGb/4gBm/9kAZv+UAGb/lABm/5QAZv+UAGb/lABn/08AZ/9PAGf/TwBn/08AZ/9PAGb/6gBm//8AZv//AGb//wBm//8AZv//AGb//wBm//8AZv//AGb//wBm//8AZv//AGb//wBm//8AZv//AGb//wBm//8AZv//AGb//wBm//8AZv//AGb//wBm//8AZv//AGb//wBm//EAZ//MAGf/zABn/8wAZ//MAGb/xwBm/6oAZv+qAGb/qgBm/6oAZv+qAGX/qwBl/6sAZf+rAGX/qwBl/6sAZv/lAGb/6gBm/+oAZv/qAGb/6gBm//sAZv//AGb//wBm//8AZv//AGb//wBm//8AZv//AGb//wBm//8AZv//AGb//wBm//8AZv//AGb//wBm//8AZv//AGb//wBm//8AZv//AGb//wBm//8AZv//AGb//wBm//8AZv/5AGb/3wBm/98AZv/fAGb/3wBm/9sAZv+qAGb/qgBm/6oAZv+qAGb/qgBm/6oAZv+qAGb/qgBm/6oAZv+qAGb/qgBm/6oAZv+qAGb/qgBm/6oAZv+qAGb/qgBm/6oAZv+qAGb/qgBm/6oAZv+qAGb/qgBm/6oAZv+qAGb/qgBm/6oAZv+qAGb/qgBm/6oAZv+qAGb/qgBm/6oAZv+qAGb/qgBm/6kAZv+lAGb/pQBm/6UAZv+lAGb/mABn/zkAZ/85AGf/OQBn/zkAZ/85AGf/TwBn/08AZ/9PAGf/TwBn/08AZv/qAGb//wBm//8AZv//AGb//wBm//8AZv//AGb//wBm//8AZv//AGb//wBm//8AZv//AGb//wBm//8AZv//AGb//wBm//8AZv//AGb//wBm//8AZv//AGb//wBm//8AZv//AGb/8QBn/8wAZ//MAGf/zABn/8wAZv/HAGb/qgBm/6oAZv+qAGb/qgBm/6oAZf+rAGX/qwBl/6sAZf+rAGX/qwBm/+UAZv/qAGb/6gBm/+oAZv/qAGb/+wBm//8AZv//AGb//wBm//8AZv//AGb//wBm//8AZv//AGb//wBm//8AZv//AGb//wBm//8AZv//AGb//wBm//8AZv//AGb//wBm//8AZv//AGb//wBm//8AZv//AGb//wBm//kAZv/fAGb/3wBm/98AZv/fAGb/2wBm/6oAZv+qAGb/qgBm/6oAZv+qAGb/qgBm/6oAZv+qAGb/qgBm/6oAZv+qAGb/qgBm/6oAZv+qAGb/qgBm/6oAZv+qAGb/qgBm/6oAZv+qAGb/qgBm/6oAZv+qAGb/qgBm/6oAZv+qAGb/qgBm/6oAZv+qAGb/qgBm/6oAZv+qAGb/qgBm/6oAZv+qAGb/qQBm/6UAZv+lAGb/pQBm/6UAZv+YAGf/OQBn/zkAZ/85AGf/OQBn/zkAZ/9PAGf/TwBn/08AZ/9PAGf/TwBm/+oAZv//AGb//wBm//8AZv//AGb//wBm//8AZv//AGb//wBm//8AZv//AGb//wBm//8AZv//AGb//wBm//8AZv//AGb//wBm//8AZv//AGb//wBm//8AZv//AGb//wBm//8AZv/xAGf/zABn/8wAZ//MAGf/zABm/8cAZv+qAGb/qgBm/6oAZv+qAGb/qgBl/6sAZf+rAGX/qwBl/6sAZf+rAGb/5QBm/+oAZv/qAGb/6gBm/+oAZv/7AGb//wBm//8AZv//AGb//wBm//8AZv//AGb//wBm//8AZv//AGb//wBm//8AZv//AGb//wBm//8AZv//AGb//wBm//8AZv//AGb//wBm//8AZv//AGb//wBm//8AZv//AGb/+QBm/98AZv/fAGb/3wBm/98AZv/bAGb/qgBm/6oAZv+qAGb/qgBm/6oAZv+qAGb/qgBm/6oAZv+qAGb/qgBm/6oAZv+qAGb/qgBm/6oAZv+qAGb/qgBm/6oAZv+qAGb/qgBm/6oAZv+qAGb/qgBm/6oAZv+qAGb/qgBm/6oAZv+qAGb/qgBm/6oAZv+qAGb/qgBm/6oAZv+qAGb/qgBm/6oAZv+pAGb/pQBm/6UAZv+lAGb/pQBm/5gAZ/85AGf/OQBn/zkAZ/85AGf/OQBn/08AZ/9PAGf/TwBn/08AZ/9PAGb/6gBm//8AZv//AGb//wBm//8AZv//AGb//wBm//8AZv//AGb//wBm//8AZv//AGb//wBm//8AZv//AGb//wBm//8AZv//AGb//wBm//8AZv//AGb//wBm//8AZv//AGb//wBm//EAZ//MAGf/zABn/8wAZ//MAGb/xwBm/6oAZv+qAGb/qgBm/6oAZv+qAGX/qwBl/6sAZf+rAGX/qwBl/6sAZv/lAGb/6gBm/+oAZv/qAGb/6gBm//sAZv//AGb//wBm//8AZv//AGb//wBm//8AZv//AGb//wBm//8AZv//AGb//wBm//8AZv//AGb//wBm//8AZv//AGb//wBm//8AZv//AGb//wBm//8AZv//AGb//wBm//8AZv/5AGb/3wBm/98AZv/fAGb/3wBm/9sAZv+qAGb/qgBm/6oAZv+qAGb/qgBm/6oAZv+qAGb/qgBm/6oAZv+qAGb/qgBm/6oAZv+qAGb/qgBm/6oAZv+qAGb/qgBm/6oAZv+qAGb/qgBm/6oAZv+qAGb/qgBm/6oAZv+qAGb/qgBm/6oAZv+qAGb/qgBm/6oAZv+qAGb/qgBm/6oAZv+qAGb/qgBm/6kAZv+lAGb/pQBm/6UAZv+lAGb/mABn/zkAZ/85AGf/OQBn/zkAZ/85AGf/TwBn/08AZ/9PAGf/TwBn/08AZv/qAGb//wBm//8AZv//AGb//wBm//8AZv//AGb//wBm//8AZv//AGb//wBm//8AZv//AGb//wBm//8AZv//AGb//wBm//8AZv//AGb//wBm//wAZv/4AGb/+ABm//gAZv/4AGb/4ABn/6QAZ/+kAGf/pABn/6QAZv+fAGb/iABm/4gAZv+IAGb/iABm/4gAZf+JAGX/iQBl/4kAZf+JAGX/iQBm/8EAZv/GAGb/xgBm/8YAZv/GAGb/9ABm//8AZv//AGb//wBm//8AZv//AGb//wBm//8AZv//AGb//wBm//8AZv//AGb//wBm//8AZv//AGb//wBm//8AZv//AGb//wBm//8AZv//AGb//wBm//8AZv//AGb//wBm//AAZv+3AGb/twBm/7cAZv+3AGb/swBm/4gAZv+IAGb/iABm/4gAZv+IAGb/iABm/4gAZv+IAGb/iABm/4gAZv+IAGb/iABm/4gAZv+IAGb/iABm/4gAZv+IAGb/iABm/4gAZv+IAGb/iABm/4gAZv+IAGb/iABm/4gAZv+IAGb/iABm/4gAZv+IAGb/iABm/4gAZv+IAGb/iABm/4gAZv+IAGb/hwBm/4QAZv+EAGb/hABm/4QAZv96AGf/LgBn/y4AZ/8uAGf/LgBn/y4AZ/9PAGf/TwBn/08AZ/9PAGf/TwBm/+oAZv//AGb//wBm//8AZv//AGb//wBm//8AZv//AGb//wBm//8AZv//AGb//wBm//8AZv//AGb//wBm//8AZv//AGb//wBm//8AZv//AGb/8ABm/9oAZv/aAGb/2gBm/9oAZv+eAID/AgCA/wIAgP8CAID/AgCA/wIAAAAAAAAAAAAAAAAAAAAAAAAAAAAAAAAAAAAAAAAAAAAAAAAAAAAAAGf/MABn/zQAZ/80AGf/NABn/zQAZv/WAGb//wBm//8AZv//AGb//wBm//8AZv//AGb//wBm//8AZv//AGb//wBm//8AZv//AGb//wBm//8AZv//AGb//wBm//8AZv//AGb//wBm//8AZv/+AGb//gBm//4AZv/+AGb/0ABq/xgAav8YAGr/GABq/xgAav8WAAAAAAAAAAAAAAAAAAAAAAAAAAAAAAAAAAAAAAAAAAAAAAAAAAAAAAAAAAAAAAAAAAAAAAAAAAAAAAAAAAAAAAAAAAAAAAAAAAAAAAAAAAAAAAAAAAAAAAAAAAAAAAAAAAAAAAAAAAAAAAAAAAAAAAAAAAAAAAAAAAAAAAAAAAAAAAAAAAAAAAAAAAAAAAAAAAAAAAAAAAAAAAAAAAAAAAAAAAAAAAAAAAAAAAAAAAAAAAAAAAAAAABn/08AZ/9PAGf/TwBn/08AZ/9PAGb/6gBm//8AZv//AGb//wBm//8AZv//AGb//wBm//8AZv//AGb//wBm//8AZv//AGb//wBm//8AZv//AGb//wBm//8AZv//AGb//wBm//8AZv/wAGb/2gBm/9oAZv/aAGb/2gBm/54AgP8CAID/AgCA/wIAgP8CAID/AgAAAAAAAAAAAAAAAAAAAAAAAAAAAAAAAAAAAAAAAAAAAAAAAAAAAAAAZ/8wAGf/NABn/zQAZ/80AGf/NABm/9YAZv//AGb//wBm//8AZv//AGb//wBm//8AZv//AGb//wBm//8AZv//AGb//wBm//8AZv//AGb//wBm//8AZv//AGb//wBm//8AZv//AGb//wBm//4AZv/+AGb//gBm//4AZv/QAGr/GABq/xgAav8YAGr/GABq/xYAAAAAAAAAAAAAAAAAAAAAAAAAAAAAAAAAAAAAAAAAAAAAAAAAAAAAAAAAAAAAAAAAAAAAAAAAAAAAAAAAAAAAAAAAAAAAAAAAAAAAAAAAAAAAAAAAAAAAAAAAAAAAAAAAAAAAAAAAAAAAAAAAAAAAAAAAAAAAAAAAAAAAAAAAAAAAAAAAAAAAAAAAAAAAAAAAAAAAAAAAAAAAAAAAAAAAAAAAAAAAAAAAAAAAAAAAAAAAAAAAAAAAAGf/TwBn/08AZ/9PAGf/TwBn/08AZv/qAGb//wBm//8AZv//AGb//wBm//8AZv//AGb//wBm//8AZv//AGb//wBm//8AZv//AGb//wBm//8AZv//AGb//wBm//8AZv//AGb//wBm//AAZv/aAGb/2gBm/9oAZv/aAGb/ngCA/wIAgP8CAID/AgCA/wIAgP8CAAAAAAAAAAAAAAAAAAAAAAAAAAAAAAAAAAAAAAAAAAAAAAAAAAAAAABn/zAAZ/80AGf/NABn/zQAZ/80AGb/1gBm//8AZv//AGb//wBm//8AZv//AGb//wBm//8AZv//AGb//wBm//8AZv//AGb//wBm//8AZv//AGb//wBm//8AZv//AGb//wBm//8AZv//AGb//gBm//4AZv/+AGb//gBm/9AAav8YAGr/GABq/xgAav8YAGr/FgAAAAAAAAAAAAAAAAAAAAAAAAAAAAAAAAAAAAAAAAAAAAAAAAAAAAAAAAAAAAAAAAAAAAAAAAAAAAAAAAAAAAAAAAAAAAAAAAAAAAAAAAAAAAAAAAAAAAAAAAAAAAAAAAAAAAAAAAAAAAAAAAAAAAAAAAAAAAAAAAAAAAAAAAAAAAAAAAAAAAAAAAAAAAAAAAAAAAAAAAAAAAAAAAAAAAAAAAAAAAAAAAAAAAAAAAAAAAAAAAAAAAAAZ/9PAGf/TwBn/08AZ/9PAGf/TwBm/+oAZv//AGb//wBm//8AZv//AGb//wBm//8AZv//AGb//wBm//8AZv//AGb//wBm//8AZv//AGb//wBm//8AZv//AGb//wBm//8AZv//AGb/8ABm/9oAZv/aAGb/2gBm/9oAZv+eAID/AgCA/wIAgP8CAID/AgCA/wIAAAAAAAAAAAAAAAAAAAAAAAAAAAAAAAAAAAAAAAAAAAAAAAAAAAAAAGf/MABn/zQAZ/80AGf/NABn/zQAZv/WAGb//wBm//8AZv//AGb//wBm//8AZv//AGb//wBm//8AZv//AGb//wBm//8AZv//AGb//wBm//8AZv//AGb//wBm//8AZv//AGb//wBm//8AZv/+AGb//gBm//4AZv/+AGb/0ABq/xgAav8YAGr/GABq/xgAav8WAAAAAAAAAAAAAAAAAAAAAAAAAAAAAAAAAAAAAAAAAAAAAAAAAAAAAAAAAAAAAAAAAAAAAAAAAAAAAAAAAAAAAAAAAAAAAAAAAAAAAAAAAAAAAAAAAAAAAAAAAAAAAAAAAAAAAAAAAAAAAAAAAAAAAAAAAAAAAAAAAAAAAAAAAAAAAAAAAAAAAAAAAAAAAAAAAAAAAAAAAAAAAAAAAAAAAAAAAAAAAAAAAAAAAAAAAAAAAAAAAAAAAABn/08AZ/9PAGf/TwBn/08AZ/9PAGb/6gBm//8AZv//AGb//wBm//8AZv//AGb//wBm//8AZv//AGb//wBm//8AZv//AGb//wBm//8AZv//AGb//wBm//8AZv//AGb//wBm//8AZv/vAGb/2ABm/9gAZv/YAGb/2ABm/5wAgP8CAID/AgCA/wIAgP8CAID/AgAAAAAAAAAAAAAAAAAAAAAAAAAAAAAAAAAAAAAAAAAAAAAAAAAAAAAAZ/8uAGf/MgBn/zIAZ/8yAGf/MgBm/9YAZv//AGb//wBm//8AZv//AGb//wBm//8AZv//AGb//wBm//8AZv//AGb//wBm//8AZv//AGb//wBm//8AZv//AGb//wBm//8AZv//AGb//wBm//4AZv/+AGb//gBm//4AZv/PAGr/FgBq/xYAav8WAGr/FgBq/xQAAAAAAAAAAAAAAAAAAAAAAAAAAAAAAAAAAAAAAAAAAAAAAAAAAAAAAAAAAAAAAAAAAAAAAAAAAAAAAAAAAAAAAAAAAAAAAAAAAAAAAAAAAAAAAAAAAAAAAAAAAAAAAAAAAAAAAAAAAAAAAAAAAAAAAAAAAAAAAAAAAAAAAAAAAAAAAAAAAAAAAAAAAAAAAAAAAAAAAAAAAAAAAAAAAAAAAAAAAAAAAAAAAAAAAAAAAAAAAAAAAAAAAGf/TwBn/08AZ/9PAGf/TwBn/08AZv/qAGb//wBm//8AZv//AGb//wBm//8AZv//AGb//wBm//8AZv//AGb//wBm//8AZv//AGb//wBm//8AZv//AGb//wBm//8AZv//AGb//wBm/+YAZv/AAGb/wABm/8AAZv/AAGb/igAAAAAAAAAAAAAAAAAAAAAAAAAAAAAAAAAAAAAAAAAAAAAAAAAAAAAAAAAAAAAAAAAAAAAAAAAAAAAAAABo/xQAaP8WAGj/FgBo/xYAaP8WAGb/0ABm//8AZv//AGb//wBm//8AZv//AGb//wBm//8AZv//AGb//wBm//8AZv//AGb//wBm//8AZv//AGb//wBm//8AZv//AGb//wBm//8AZv/9AGb/+QBm//kAZv/5AGb/+QBm/8cAAAAAAAAAAAAAAAAAAAAAAAAAAAAAAAAAAAAAAAAAAAAAAAAAAAAAAAAAAAAAAAAAAAAAAAAAAAAAAAAAAAAAAAAAAAAAAAAAAAAAAAAAAAAAAAAAAAAAAAAAAAAAAAAAAAAAAAAAAAAAAAAAAAAAAAAAAAAAAAAAAAAAAAAAAAAAAAAAAAAAAAAAAAAAAAAAAAAAAAAAAAAAAAAAAAAAAAAAAAAAAAAAAAAAAAAAAAAAAAAAAAAAAAAAAAAAAAAAAAAAAAAAAAAAAAAAZ/9PAGf/TwBn/08AZ/9PAGf/TwBm/+oAZv//AGb//wBm//8AZv//AGb//wBm//8AZv//AGb//wBm//8AZv//AGb//wBm//8AZv//AGb//wBm//8AZv//AGb//wBm//8AZv//AGb/5gBm/8AAZv/AAGb/wABm/8AAZv+KAAAAAAAAAAAAAAAAAAAAAAAAAAAAAAAAAAAAAAAAAAAAAAAAAAAAAAAAAAAAAAAAAAAAAAAAAAAAAAAAAGj/FABo/xYAaP8WAGj/FgBo/xYAZv/QAGb//wBm//8AZv//AGb//wBm//8AZv//AGb//wBm//8AZv//AGb//wBm//8AZv//AGb//wBm//8AZv//AGb//wBm//8AZv//AGb//wBm//0AZv/5AGb/+QBm//kAZv/5AGb/xwAAAAAAAAAAAAAAAAAAAAAAAAAAAAAAAAAAAAAAAAAAAAAAAAAAAAAAAAAAAAAAAAAAAAAAAAAAAAAAAAAAAAAAAAAAAAAAAAAAAAAAAAAAAAAAAAAAAAAAAAAAAAAAAAAAAAAAAAAAAAAAAAAAAAAAAAAAAAAAAAAAAAAAAAAAAAAAAAAAAAAAAAAAAAAAAAAAAAAAAAAAAAAAAAAAAAAAAAAAAAAAAAAAAAAAAAAAAAAAAAAAAAAAAAAAAAAAAAAAAAAAAAAAAAAAAABn/08AZ/9PAGf/TwBn/08AZ/9PAGb/6gBm//8AZv//AGb//wBm//8AZv//AGb//wBm//8AZv//AGb//wBm//8AZv//AGb//wBm//8AZv//AGb//wBm//8AZv//AGb//wBm//8AZv/mAGb/wABm/8AAZv/AAGb/wABm/4oAAAAAAAAAAAAAAAAAAAAAAAAAAAAAAAAAAAAAAAAAAAAAAAAAAAAAAAAAAAAAAAAAAAAAAAAAAAAAAAAAaP8UAGj/FgBo/xYAaP8WAGj/FgBm/9AAZv//AGb//wBm//8AZv//AGb//wBm//8AZv//AGb//wBm//8AZv//AGb//wBm//8AZv//AGb//wBm//8AZv//AGb//wBm//8AZv//AGb//QBm//kAZv/5AGb/+QBm//kAZv/HAAAAAAAAAAAAAAAAAAAAAAAAAAAAAAAAAAAAAAAAAAAAAAAAAAAAAAAAAAAAAAAAAAAAAAAAAAAAAAAAAAAAAAAAAAAAAAAAAAAAAAAAAAAAAAAAAAAAAAAAAAAAAAAAAAAAAAAAAAAAAAAAAAAAAAAAAAAAAAAAAAAAAAAAAAAAAAAAAAAAAAAAAAAAAAAAAAAAAAAAAAAAAAAAAAAAAAAAAAAAAAAAAAAAAAAAAAAAAAAAAAAAAAAAAAAAAAAAAAAAAAAAAAAAAAAAAGf/TwBn/08AZ/9PAGf/TwBn/08AZv/qAGb//wBm//8AZv//AGb//wBm//8AZv//AGb//wBm//8AZv//AGb//wBm//8AZv//AGb//wBm//8AZv//AGb//wBm//8AZv//AGb//wBm/+YAZv/AAGb/wABm/8AAZv/AAGb/igAAAAAAAAAAAAAAAAAAAAAAAAAAAAAAAAAAAAAAAAAAAAAAAAAAAAAAAAAAAAAAAAAAAAAAAAAAAAAAAABo/xQAaP8WAGj/FgBo/xYAaP8WAGb/0ABm//8AZv//AGb//wBm//8AZv//AGb//wBm//8AZv//AGb//wBm//8AZv//AGb//wBm//8AZv//AGb//wBm//8AZv//AGb//wBm//8AZv/9AGb/+QBm//kAZv/5AGb/+QBm/8cAAAAAAAAAAAAAAAAAAAAAAAAAAAAAAAAAAAAAAAAAAAAAAAAAAAAAAAAAAAAAAAAAAAAAAAAAAAAAAAAAAAAAAAAAAAAAAAAAAAAAAAAAAAAAAAAAAAAAAAAAAAAAAAAAAAAAAAAAAAAAAAAAAAAAAAAAAAAAAAAAAAAAAAAAAAAAAAAAAAAAAAAAAAAAAAAAAAAAAAAAAAAAAAAAAAAAAAAAAAAAAAAAAAAAAAAAAAAAAAAAAAAAAAAAAAAAAAAAAAAAAAAAAAAAAAAAZ/9PAGf/TwBn/08AZ/9PAGf/TwBm/+oAZv//AGb//wBm//8AZv//AGb//wBm//8AZv//AGb//wBm//8AZv//AGb//wBm//8AZv//AGb//wBm//8AZv//AGb//wBm//8AZv//AGb/5gBm/8AAZv/AAGb/wABm/8AAZv+KAAAAAAAAAAAAAAAAAAAAAAAAAAAAAAAAAAAAAAAAAAAAAAAAAAAAAAAAAAAAAAAAAAAAAAAAAAAAAAAAAGj/FABo/xYAaP8WAGj/FgBo/xYAZv/QAGb//wBm//8AZv//AGb//wBm//8AZv//AGb//wBm//8AZv//AGb//wBm//8AZv//AGb//wBm//8AZv//AGb//wBm//8AZv//AGb//wBm//0AZv/5AGb/+QBm//kAZv/5AGb/xwAAAAAAAAAAAAAAAAAAAAAAAAAAAAAAAAAAAAAAAAAAAAAAAAAAAAAAAAAAAAAAAAAAAAAAAAAAAAAAAAAAAAAAAAAAAAAAAAAAAAAAAAAAAAAAAAAAAAAAAAAAAAAAAAAAAAAAAAAAAAAAAAAAAAAAAAAAAAAAAAAAAAAAAAAAAAAAAAAAAAAAAAAAAAAAAAAAAAAAAAAAAAAAAAAAAAAAAAAAAAAAAAAAAAAAAAAAAAAAAAAAAAAAAAAAAAAAAAAAAAAAAAAAAAAAAABn/08AZ/9PAGf/TwBn/08AZ/9PAGb/6gBm//8AZv//AGb//wBm//8AZv//AGb//wBm//8AZv//AGb//wBm//8AZv//AGb//wBm//8AZv//AGb//wBm//8AZv//AGb//wBm//8AZv/mAGb/wABm/8AAZv/AAGb/wABm/4oAAAAAAAAAAAAAAAAAAAAAAAAAAAAAAAAAAAAAAAAAAAAAAAAAAAAAAAAAAAAAAAAAAAAAAAAAAAAAAAAAaP8UAGj/FgBo/xYAaP8WAGj/FgBm/9AAZv//AGb//wBm//8AZv//AGb//wBm//8AZv//AGb//wBm//8AZv//AGb//wBm//8AZv//AGb//wBm//8AZv//AGb//wBm//8AZv//AGb//QBm//kAZv/5AGb/+QBm//kAZv/HAAAAAAAAAAAAAAAAAAAAAAAAAAAAAAAAAAAAAAAAAAAAAAAAAAAAAAAAAAAAAAAAAAAAAAAAAAAAAAAAAAAAAAAAAAAAAAAAAAAAAAAAAAAAAAAAAAAAAAAAAAAAAAAAAAAAAAAAAAAAAAAAAAAAAAAAAAAAAAAAAAAAAAAAAAAAAAAAAAAAAAAAAAAAAAAAAAAAAAAAAAAAAAAAAAAAAAAAAAAAAAAAAAAAAAAAAAAAAAAAAAAAAAAAAAAAAAAAAAAAAAAAAAAAAAAAAGf/TwBn/08AZ/9PAGf/TwBn/08AZv/qAGb//wBm//8AZv//AGb//wBm//8AZv//AGb//wBm//8AZv//AGb//wBm//8AZv//AGb//wBm//8AZv//AGb//wBm//8AZv//AGb//wBm/+YAZv/AAGb/wABm/8AAZv/AAGb/igAAAAAAAAAAAAAAAAAAAAAAAAAAAAAAAAAAAAAAAAAAAAAAAAAAAAAAAAAAAAAAAAAAAAAAAAAAAAAAAABo/xQAaP8WAGj/FgBo/xYAaP8WAGb/0ABm//8AZv//AGb//wBm//8AZv//AGb//wBm//8AZv//AGb//wBm//8AZv//AGb//wBm//8AZv//AGb//wBm//8AZv//AGb//wBm//8AZv/9AGb/+QBm//kAZv/5AGb/+QBm/8cAAAAAAAAAAAAAAAAAAAAAAAAAAAAAAAAAAAAAAAAAAAAAAAAAAAAAAAAAAAAAAAAAAAAAAAAAAAAAAAAAAAAAAAAAAAAAAAAAAAAAAAAAAAAAAAAAAAAAAAAAAAAAAAAAAAAAAAAAAAAAAAAAAAAAAAAAAAAAAAAAAAAAAAAAAAAAAAAAAAAAAAAAAAAAAAAAAAAAAAAAAAAAAAAAAAAAAAAAAAAAAAAAAAAAAAAAAAAAAAAAAAAAAAAAAAAAAAAAAAAAAAAAAAAAAAAAZ/9PAGf/TwBn/08AZ/9PAGf/TwBm/+oAZv//AGb//wBm//8AZv//AGb//wBm//8AZv//AGb//wBm//8AZv//AGb//wBm//8AZv//AGb//wBm//8AZv//AGb//wBm//8AZv//AGb/5gBm/8AAZv/AAGb/wABm/8AAZv+KAAAAAAAAAAAAAAAAAAAAAAAAAAAAAAAAAAAAAAAAAAAAAAAAAAAAAAAAAAAAAAAAAAAAAAAAAAAAAAAAAGj/FABo/xYAaP8WAGj/FgBo/xYAZv/QAGb//wBm//8AZv//AGb//wBm//8AZv//AGb//wBm//8AZv//AGb//wBm//8AZv//AGb//wBm//8AZv//AGb//wBm//8AZv//AGb//wBm//0AZv/5AGb/+QBm//kAZv/5AGb/xwAAAAAAAAAAAAAAAAAAAAAAAAAAAAAAAAAAAAAAAAAAAAAAAAAAAAAAAAAAAAAAAAAAAAAAAAAAAAAAAAAAAAAAAAAAAAAAAAAAAAAAAAAAAAAAAAAAAAAAAAAAAAAAAAAAAAAAAAAAAAAAAAAAAAAAAAAAAAAAAAAAAAAAAAAAAAAAAAAAAAAAAAAAAAAAAAAAAAAAAAAAAAAAAAAAAAAAAAAAAAAAAAAAAAAAAAAAAAAAAAAAAAAAAAAAAAAAAAAAAAAAAAAAAAAAAABn/08AZ/9PAGf/TwBn/08AZ/9PAGb/6gBm//8AZv//AGb//wBm//8AZv//AGb//wBm//8AZv//AGb//wBm//8AZv//AGb//wBm//8AZv//AGb//wBm//8AZv//AGb//wBm//8AZv/mAGb/wABm/8AAZv/AAGb/wABm/4oAAAAAAAAAAAAAAAAAAAAAAAAAAAAAAAAAAAAAAAAAAAAAAAAAAAAAAAAAAAAAAAAAAAAAAAAAAAAAAAAAaP8UAGj/FgBo/xYAaP8WAGj/FgBm/9AAZv//AGb//wBm//8AZv//AGb//wBm//8AZv//AGb//wBm//8AZv//AGb//wBm//8AZv//AGb//wBm//8AZv//AGb//wBm//8AZv//AGb//QBm//kAZv/5AGb/+QBm//kAZv/HAAAAAAAAAAAAAAAAAAAAAAAAAAAAAAAAAAAAAAAAAAAAAAAAAAAAAAAAAAAAAAAAAAAAAAAAAAAAAAAAAAAAAAAAAAAAAAAAAAAAAAAAAAAAAAAAAAAAAAAAAAAAAAAAAAAAAAAAAAAAAAAAAAAAAAAAAAAAAAAAAAAAAAAAAAAAAAAAAAAAAAAAAAAAAAAAAAAAAAAAAAAAAAAAAAAAAAAAAAAAAAAAAAAAAAAAAAAAAAAAAAAAAAAAAAAAAAAAAAAAAAAAAAAAAAAAAGf/TwBn/08AZ/9PAGf/TwBn/08AZv/qAGb//wBm//8AZv//AGb//wBm//8AZv//AGb//wBm//8AZv//AGb//wBm//8AZv//AGb//wBm//8AZv//AGb//wBm//8AZv//AGb//wBm/+YAZv/AAGb/wABm/8AAZv/AAGb/igAAAAAAAAAAAAAAAAAAAAAAAAAAAAAAAAAAAAAAAAAAAAAAAAAAAAAAAAAAAAAAAAAAAAAAAAAAAAAAAABo/xQAaP8WAGj/FgBo/xYAaP8WAGb/0ABm//8AZv//AGb//wBm//8AZv//AGb//wBm//8AZv//AGb//wBm//8AZv//AGb//wBm//8AZv//AGb//wBm//8AZv//AGb//wBm//8AZv/9AGb/+QBm//kAZv/5AGb/+QBm/8cAAAAAAAAAAAAAAAAAAAAAAAAAAAAAAAAAAAAAAAAAAAAAAAAAAAAAAAAAAAAAAAAAAAAAAAAAAAAAAAAAAAAAAAAAAAAAAAAAAAAAAAAAAAAAAAAAAAAAAAAAAAAAAAAAAAAAAAAAAAAAAAAAAAAAAAAAAAAAAAAAAAAAAAAAAAAAAAAAAAAAAAAAAAAAAAAAAAAAAAAAAAAAAAAAAAAAAAAAAAAAAAAAAAAAAAAAAAAAAAAAAAAAAAAAAAAAAAAAAAAAAAAAAAAAAAAAZ/9PAGf/TwBn/08AZ/9PAGf/TwBm/+oAZv//AGb//wBm//8AZv//AGb//wBm//8AZv//AGb//wBm//8AZv//AGb//wBm//8AZv//AGb//wBm//8AZv//AGb//wBm//8AZv//AGb/5gBm/8AAZv/AAGb/wABm/8AAZv+KAAAAAAAAAAAAAAAAAAAAAAAAAAAAAAAAAAAAAAAAAAAAAAAAAAAAAAAAAAAAAAAAAAAAAAAAAAAAAAAAAGj/FABo/xYAaP8WAGj/FgBo/xYAZv/QAGb//wBm//8AZv//AGb//wBm//8AZv//AGb//wBm//8AZv//AGb//wBm//8AZv//AGb//wBm//8AZv//AGb//wBm//8AZv//AGb//wBm//0AZv/5AGb/+QBm//kAZv/5AGb/xwAAAAAAAAAAAAAAAAAAAAAAAAAAAAAAAAAAAAAAAAAAAAAAAAAAAAAAAAAAAAAAAAAAAAAAAAAAAAAAAAAAAAAAAAAAAAAAAAAAAAAAAAAAAAAAAAAAAAAAAAAAAAAAAAAAAAAAAAAAAAAAAAAAAAAAAAAAAAAAAAAAAAAAAAAAAAAAAAAAAAAAAAAAAAAAAAAAAAAAAAAAAAAAAAAAAAAAAAAAAAAAAAAAAAAAAAAAAAAAAAAAAAAAAAAAAAAAAAAAAAAAAAAAAAAAAABn/08AZ/9PAGf/TwBn/08AZ/9PAGb/6gBm//8AZv//AGb//wBm//8AZv//AGb//wBm//8AZv//AGb//wBm//8AZv//AGb//wBm//8AZv//AGb//wBm//8AZv//AGb//wBm//8AZv/mAGb/wABm/8AAZv/AAGb/wABm/4oAAAAAAAAAAAAAAAAAAAAAAAAAAAAAAAAAAAAAAAAAAAAAAAAAAAAAAAAAAAAAAAAAAAAAAAAAAAAAAAAAaP8UAGj/FgBo/xYAaP8WAGj/FgBm/9AAZv//AGb//wBm//8AZv//AGb//wBm//8AZv//AGb//wBm//8AZv//AGb//wBm//8AZv//AGb//wBm//8AZv//AGb//wBm//8AZv//AGb//QBm//kAZv/5AGb/+QBm//kAZv/HAAAAAAAAAAAAAAAAAAAAAAAAAAAAAAAAAAAAAAAAAAAAAAAAAAAAAAAAAAAAAAAAAAAAAAAAAAAAAAAAAAAAAAAAAAAAAAAAAAAAAAAAAAAAAAAAAAAAAAAAAAAAAAAAAAAAAAAAAAAAAAAAAAAAAAAAAAAAAAAAAAAAAAAAAAAAAAAAAAAAAAAAAAAAAAAAAAAAAAAAAAAAAAAAAAAAAAAAAAAAAAAAAAAAAAAAAAAAAAAAAAAAAAAAAAAAAAAAAAAAAAAAAAAAAAAAAGf/TwBn/08AZ/9PAGf/TwBn/08AZv/qAGb//wBm//8AZv//AGb//wBm//8AZv//AGb//wBm//8AZv//AGb//wBm//8AZv//AGb//wBm//8AZv//AGb//wBm//8AZv//AGb//wBm/+YAZv/AAGb/wABm/8AAZv/AAGb/igAAAAAAAAAAAAAAAAAAAAAAAAAAAAAAAAAAAAAAAAAAAAAAAAAAAAAAAAAAAAAAAAAAAAAAAAAAAAAAAABo/xQAaP8WAGj/FgBo/xYAaP8WAGb/0ABm//8AZv//AGb//wBm//8AZv//AGb//wBm//8AZv//AGb//wBm//8AZv//AGb//wBm//8AZv//AGb//wBm//8AZv//AGb//wBm//8AZv/9AGb/+QBm//kAZv/5AGb/+QBm/8cAAAAAAAAAAAAAAAAAAAAAAAAAAAAAAAAAAAAAAAAAAAAAAAAAAAAAAAAAAAAAAAAAAAAAAAAAAAAAAAAAAAAAAAAAAAAAAAAAAAAAAAAAAAAAAAAAAAAAAAAAAAAAAAAAAAAAAAAAAAAAAAAAAAAAAAAAAAAAAAAAAAAAAAAAAAAAAAAAAAAAAAAAAAAAAAAAAAAAAAAAAAAAAAAAAAAAAAAAAAAAAAAAAAAAAAAAAAAAAAAAAAAAAAAAAAAAAAAAAAAAAAAAAAAAAAAAZ/9PAGf/TwBn/08AZ/9PAGf/TwBm/+oAZv//AGb//wBm//8AZv//AGb//wBm//8AZv//AGb//wBm//8AZv//AGb//wBm//8AZv//AGb//wBm//8AZv//AGb//wBm//8AZv//AGb/5gBm/8AAZv/AAGb/wABm/8AAZv+KAAAAAAAAAAAAAAAAAAAAAAAAAAAAAAAAAAAAAAAAAAAAAAAAAAAAAAAAAAAAAAAAAAAAAAAAAAAAAAAAAGj/FABo/xYAaP8WAGj/FgBo/xYAZv/QAGb//wBm//8AZv//AGb//wBm//8AZv//AGb//wBm//8AZv//AGb//wBm//8AZv//AGb//wBm//8AZv//AGb//wBm//8AZv//AGb//wBm//0AZv/5AGb/+QBm//kAZv/5AGb/xwAAAAAAAAAAAAAAAAAAAAAAAAAAAAAAAAAAAAAAAAAAAAAAAAAAAAAAAAAAAAAAAAAAAAAAAAAAAAAAAAAAAAAAAAAAAAAAAAAAAAAAAAAAAAAAAAAAAAAAAAAAAAAAAAAAAAAAAAAAAAAAAAAAAAAAAAAAAAAAAAAAAAAAAAAAAAAAAAAAAAAAAAAAAAAAAAAAAAAAAAAAAAAAAAAAAAAAAAAAAAAAAAAAAAAAAAAAAAAAAAAAAAAAAAAAAAAAAAAAAAAAAAAAAAAAAABn/08AZ/9PAGf/TwBn/08AZ/9PAGb/6gBm//8AZv//AGb//wBm//8AZv//AGb//wBm//8AZv//AGb//wBm//8AZv//AGb//wBm//8AZv//AGb//wBm//8AZv//AGb//wBm//8AZv/mAGb/wABm/8AAZv/AAGb/wABm/4oAAAAAAAAAAAAAAAAAAAAAAAAAAAAAAAAAAAAAAAAAAAAAAAAAAAAAAAAAAAAAAAAAAAAAAAAAAAAAAAAAaP8UAGj/FgBo/xYAaP8WAGj/FgBm/9AAZv//AGb//wBm//8AZv//AGb//wBm//8AZv//AGb//wBm//8AZv//AGb//wBm//8AZv//AGb//wBm//8AZv//AGb//wBm//8AZv//AGb//QBm//kAZv/5AGb/+QBm//kAZv/HAAAAAAAAAAAAAAAAAAAAAAAAAAAAAAAAAAAAAAAAAAAAAAAAAAAAAAAAAAAAAAAAAAAAAAAAAAAAAAAAAAAAAAAAAAAAAAAAAAAAAAAAAAAAAAAAAAAAAAAAAAAAAAAAAAAAAAAAAAAAAAAAAAAAAAAAAAAAAAAAAAAAAAAAAAAAAAAAAAAAAAAAAAAAAAAAAAAAAAAAAAAAAAAAAAAAAAAAAAAAAAAAAAAAAAAAAAAAAAAAAAAAAAAAAAAAAAAAAAAAAAAAAAAAAAAAAGf/TwBn/08AZ/9PAGf/TwBn/08AZv/qAGb//wBm//8AZv//AGb//wBm//8AZv//AGb//wBm//8AZv//AGb//wBm//8AZv//AGb//wBm//8AZv//AGb//wBm//8AZv//AGb//wBm/+YAZv/AAGb/wABm/8AAZv/AAGb/igAAAAAAAAAAAAAAAAAAAAAAAAAAAAAAAAAAAAAAAAAAAAAAAAAAAAAAAAAAAAAAAAAAAAAAAAAAAAAAAABo/xQAaP8WAGj/FgBo/xYAaP8WAGb/0ABm//8AZv//AGb//wBm//8AZv//AGb//wBm//8AZv//AGb//wBm//8AZv//AGb//wBm//8AZv//AGb//wBm//8AZv//AGb//wBm//8AZv/9AGb/+QBm//kAZv/5AGb/+QBm/8cAAAAAAAAAAAAAAAAAAAAAAAAAAAAAAAAAAAAAAAAAAAAAAAAAAAAAAAAAAAAAAAAAAAAAAAAAAAAAAAAAAAAAAAAAAAAAAAAAAAAAAAAAAAAAAAAAAAAAAAAAAAAAAAAAAAAAAAAAAAAAAAAAAAAAAAAAAAAAAAAAAAAAAAAAAAAAAAAAAAAAAAAAAAAAAAAAAAAAAAAAAAAAAAAAAAAAAAAAAAAAAAAAAAAAAAAAAAAAAAAAAAAAAAAAAAAAAAAAAAAAAAAAAAAAAAAAZ/9PAGf/TwBn/08AZ/9PAGf/TwBm/+oAZv//AGb//wBm//8AZv//AGb//wBm//8AZv//AGb//wBm//8AZv//AGb//wBm//8AZv//AGb//wBm//8AZv//AGb//wBm//8AZv//AGb/5gBm/8AAZv/AAGb/wABm/8AAZv+KAAAAAAAAAAAAAAAAAAAAAAAAAAAAAAAAAAAAAAAAAAAAAAAAAAAAAAAAAAAAAAAAAAAAAAAAAAAAAAAAAGj/FABo/xYAaP8WAGj/FgBo/xYAZv/QAGb//wBm//8AZv//AGb//wBm//8AZv//AGb//wBm//8AZv//AGb//wBm//8AZv//AGb//wBm//8AZv//AGb//wBm//8AZv//AGb//wBm//0AZv/5AGb/+QBm//kAZv/5AGb/xwAAAAAAAAAAAAAAAAAAAAAAAAAAAAAAAAAAAAAAAAAAAAAAAAAAAAAAAAAAAAAAAAAAAAAAAAAAAAAAAAAAAAAAAAAAAAAAAAAAAAAAAAAAAAAAAAAAAAAAAAAAAAAAAAAAAAAAAAAAAAAAAAAAAAAAAAAAAAAAAAAAAAAAAAAAAAAAAAAAAAAAAAAAAAAAAAAAAAAAAAAAAAAAAAAAAAAAAAAAAAAAAAAAAAAAAAAAAAAAAAAAAAAAAAAAAAAAAAAAAAAAAAAAAAAAAABn/08AZ/9PAGf/TwBn/08AZ/9PAGb/6gBm//8AZv//AGb//wBm//8AZv//AGb//wBm//8AZv//AGb//wBm//8AZv//AGb//wBm//8AZv//AGb//wBm//8AZv//AGb//wBm//8AZv/mAGb/wABm/8AAZv/AAGb/wABm/4oAAAAAAAAAAAAAAAAAAAAAAAAAAAAAAAAAAAAAAAAAAAAAAAAAAAAAAAAAAAAAAAAAAAAAAAAAAAAAAAAAaP8UAGj/FgBo/xYAaP8WAGj/FgBm/9AAZv//AGb//wBm//8AZv//AGb//wBm//8AZv//AGb//wBm//8AZv//AGb//wBm//8AZv//AGb//wBm//8AZv//AGb//wBm//8AZv//AGb//QBm//kAZv/5AGb/+QBm//kAZv/HAAAAAAAAAAAAAAAAAAAAAAAAAAAAAAAAAAAAAAAAAAAAAAAAAAAAAAAAAAAAAAAAAAAAAAAAAAAAAAAAAAAAAAAAAAAAAAAAAAAAAAAAAAAAAAAAAAAAAAAAAAAAAAAAAAAAAAAAAAAAAAAAAAAAAAAAAAAAAAAAAAAAAAAAAAAAAAAAAAAAAAAAAAAAAAAAAAAAAAAAAAAAAAAAAAAAAAAAAAAAAAAAAAAAAAAAAAAAAAAAAAAAAAAAAAAAAAAAAAAAAAAAAAAAAAAAAGf/TwBn/08AZ/9PAGf/TwBn/08AZv/qAGb//wBm//8AZv//AGb//wBm//8AZv//AGb//wBm//8AZv//AGb//wBm//8AZv//AGb//wBm//8AZv//AGb//wBm//8AZv//AGb//wBm/+YAZv/AAGb/wABm/8AAZv/AAGb/igAAAAAAAAAAAAAAAAAAAAAAAAAAAAAAAAAAAAAAAAAAAAAAAAAAAAAAAAAAAAAAAAAAAAAAAAAAAAAAAABo/xQAaP8WAGj/FgBo/xYAaP8WAGb/0ABm//8AZv//AGb//wBm//8AZv//AGb//wBm//8AZv//AGb//wBm//8AZv//AGb//wBm//8AZv//AGb//wBm//8AZv//AGb//wBm//8AZv/9AGb/+QBm//kAZv/5AGb/+QBm/8cAAAAAAAAAAAAAAAAAAAAAAAAAAAAAAAAAAAAAAAAAAAAAAAAAAAAAAAAAAAAAAAAAAAAAAAAAAAAAAAAAAAAAAAAAAAAAAAAAAAAAAAAAAAAAAAAAAAAAAAAAAAAAAAAAAAAAAAAAAAAAAAAAAAAAAAAAAAAAAAAAAAAAAAAAAAAAAAAAAAAAAAAAAAAAAAAAAAAAAAAAAAAAAAAAAAAAAAAAAAAAAAAAAAAAAAAAAAAAAAAAAAAAAAAAAAAAAAAAAAAAAAAAAAAAAAAAZ/9PAGf/TwBn/08AZ/9PAGf/TwBm/+oAZv//AGb//wBm//8AZv//AGb//wBm//8AZv//AGb//wBm//8AZv//AGb//wBm//8AZv//AGb//wBm//8AZv//AGb//wBm//8AZv//AGb/5gBm/8AAZv/AAGb/wABm/8AAZv+KAAAAAAAAAAAAAAAAAAAAAAAAAAAAAAAAAAAAAAAAAAAAAAAAAAAAAAAAAAAAAAAAAAAAAAAAAAAAAAAAAGj/FABo/xYAaP8WAGj/FgBo/xYAZv/QAGb//wBm//8AZv//AGb//wBm//8AZv//AGb//wBm//8AZv//AGb//wBm//8AZv//AGb//wBm//8AZv//AGb//wBm//8AZv//AGb//wBm//0AZv/5AGb/+QBm//kAZv/5AGb/xwAAAAAAAAAAAAAAAAAAAAAAAAAAAAAAAAAAAAAAAAAAAAAAAAAAAAAAAAAAAAAAAAAAAAAAAAAAAAAAAAAAAAAAAAAAAAAAAAAAAAAAAAAAAAAAAAAAAAAAAAAAAAAAAAAAAAAAAAAAAAAAAAAAAAAAAAAAAAAAAAAAAAAAAAAAAAAAAAAAAAAAAAAAAAAAAAAAAAAAAAAAAAAAAAAAAAAAAAAAAAAAAAAAAAAAAAAAAAAAAAAAAAAAAAAAAAAAAAAAAAAAAAAAAAAAAABn/08AZ/9PAGf/TwBn/08AZ/9PAGb/6gBm//8AZv//AGb//wBm//8AZv//AGb//wBm//8AZv//AGb//wBm//8AZv//AGb//wBm//8AZv//AGb//wBm//8AZv//AGb//wBm//8AZv/mAGb/wABm/8AAZv/AAGb/wABm/4oAAAAAAAAAAAAAAAAAAAAAAAAAAAAAAAAAAAAAAAAAAAAAAAAAAAAAAAAAAAAAAAAAAAAAAAAAAAAAAAAAaP8UAGj/FgBo/xYAaP8WAGj/FgBm/9AAZv//AGb//wBm//8AZv//AGb//wBm//8AZv//AGb//wBm//8AZv//AGb//wBm//8AZv//AGb//wBm//8AZv//AGb//wBm//8AZv//AGb//QBm//kAZv/5AGb/+QBm//kAZv/HAAAAAAAAAAAAAAAAAAAAAAAAAAAAAAAAAAAAAAAAAAAAAAAAAAAAAAAAAAAAAAAAAAAAAAAAAAAAAAAAAAAAAAAAAAAAAAAAAAAAAAAAAAAAAAAAAAAAAAAAAAAAAAAAAAAAAAAAAAAAAAAAAAAAAAAAAAAAAAAAAAAAAAAAAAAAAAAAAAAAAAAAAAAAAAAAAAAAAAAAAAAAAAAAAAAAAAAAAAAAAAAAAAAAAAAAAAAAAAAAAAAAAAAAAAAAAAAAAAAAAAAAAAAAAAAAAGf/TwBn/08AZ/9PAGf/TwBn/08AZv/qAGb//wBm//8AZv//AGb//wBm//8AZv//AGb//wBm//8AZv//AGb//wBm//8AZv//AGb//wBm//8AZv//AGb//wBm//8AZv//AGb//wBm/+YAZv/AAGb/wABm/8AAZv/AAGb/igAAAAAAAAAAAAAAAAAAAAAAAAAAAAAAAAAAAAAAAAAAAAAAAAAAAAAAAAAAAAAAAAAAAAAAAAAAAAAAAABo/xQAaP8WAGj/FgBo/xYAaP8WAGb/0ABm//8AZv//AGb//wBm//8AZv//AGb//wBm//8AZv//AGb//wBm//8AZv//AGb//wBm//8AZv//AGb//wBm//8AZv//AGb//wBm//8AZv/9AGb/+QBm//kAZv/5AGb/+QBm/8cAAAAAAAAAAAAAAAAAAAAAAAAAAAAAAAAAAAAAAAAAAAAAAAAAAAAAAAAAAAAAAAAAAAAAAAAAAAAAAAAAAAAAAAAAAAAAAAAAAAAAAAAAAAAAAAAAAAAAAAAAAAAAAAAAAAAAAAAAAAAAAAAAAAAAAAAAAAAAAAAAAAAAAAAAAAAAAAAAAAAAAAAAAAAAAAAAAAAAAAAAAAAAAAAAAAAAAAAAAAAAAAAAAAAAAAAAAAAAAAAAAAAAAAAAAAAAAAAAAAAAAAAAAAAAAAAAZ/9PAGf/TwBn/08AZ/9PAGf/TwBm/+oAZv//AGb//wBm//8AZv//AGb//wBm//8AZv//AGb//wBm//8AZv//AGb//wBm//8AZv//AGb//wBm//8AZv//AGb//wBm//8AZv//AGb/5gBm/8AAZv/AAGb/wABm/8AAZv+KAAAAAAAAAAAAAAAAAAAAAAAAAAAAAAAAAAAAAAAAAAAAAAAAAAAAAAAAAAAAAAAAAAAAAAAAAAAAAAAAAGj/FABo/xYAaP8WAGj/FgBo/xYAZv/QAGb//wBm//8AZv//AGb//wBm//8AZv//AGb//wBm//8AZv//AGb//wBm//8AZv//AGb//wBm//8AZv//AGb//wBm//8AZv//AGb//wBm//0AZv/5AGb/+QBm//kAZv/5AGb/xwAAAAAAAAAAAAAAAAAAAAAAAAAAAAAAAAAAAAAAAAAAAAAAAAAAAAAAAAAAAAAAAAAAAAAAAAAAAAAAAAAAAAAAAAAAAAAAAAAAAAAAAAAAAAAAAAAAAAAAAAAAAAAAAAAAAAAAAAAAAAAAAAAAAAAAAAAAAAAAAAAAAAAAAAAAAAAAAAAAAAAAAAAAAAAAAAAAAAAAAAAAAAAAAAAAAAAAAAAAAAAAAAAAAAAAAAAAAAAAAAAAAAAAAAAAAAAAAAAAAAAAAAAAAAAAAABn/08AZ/9PAGf/TwBn/08AZ/9PAGb/6gBm//8AZv//AGb//wBm//8AZv//AGb//wBm//8AZv//AGb//wBm//8AZv//AGb//wBm//8AZv//AGb//wBm//8AZv//AGb//wBm//8AZv/mAGb/wABm/8AAZv/AAGb/wABm/4oAAAAAAAAAAAAAAAAAAAAAAAAAAAAAAAAAAAAAAAAAAAAAAAAAAAAAAAAAAAAAAAAAAAAAAAAAAAAAAAAAaP8UAGj/FgBo/xYAaP8WAGj/FgBm/9AAZv//AGb//wBm//8AZv//AGb//wBm//8AZv//AGb//wBm//8AZv//AGb//wBm//8AZv//AGb//wBm//8AZv//AGb//wBm//8AZv//AGb//QBm//kAZv/5AGb/+QBm//kAZv/HAAAAAAAAAAAAAAAAAAAAAAAAAAAAAAAAAAAAAAAAAAAAAAAAAAAAAAAAAAAAAAAAAAAAAAAAAAAAAAAAAAAAAAAAAAAAAAAAAAAAAAAAAAAAAAAAAAAAAAAAAAAAAAAAAAAAAAAAAAAAAAAAAAAAAAAAAAAAAAAAAAAAAAAAAAAAAAAAAAAAAAAAAAAAAAAAAAAAAAAAAAAAAAAAAAAAAAAAAAAAAAAAAAAAAAAAAAAAAAAAAAAAAAAAAAAAAAAAAAAAAAAAAAAAAAAAAGf/TwBn/08AZ/9PAGf/TwBn/08AZv/qAGb//wBm//8AZv//AGb//wBm//8AZv//AGb//wBm//8AZv//AGb//wBm//8AZv//AGb//wBm//8AZv//AGb//wBm//8AZv//AGb//wBm/+YAZv/AAGb/wABm/8AAZv/AAGb/igAAAAAAAAAAAAAAAAAAAAAAAAAAAAAAAAAAAAAAAAAAAAAAAAAAAAAAAAAAAAAAAAAAAAAAAAAAAAAAAABo/xQAaP8WAGj/FgBo/xYAaP8WAGb/0ABm//8AZv//AGb//wBm//8AZv//AGb//wBm//8AZv//AGb//wBm//8AZv//AGb//wBm//8AZv//AGb//wBm//8AZv//AGb//wBm//8AZv/9AGb/+QBm//kAZv/5AGb/+QBm/8cAAAAAAAAAAAAAAAAAAAAAAAAAAAAAAAAAAAAAAAAAAAAAAAAAAAAAAAAAAAAAAAAAAAAAAAAAAAAAAAAAAAAAAAAAAAAAAAAAAAAAAAAAAAAAAAAAAAAAAAAAAAAAAAAAAAAAAAAAAAAAAAAAAAAAAAAAAAAAAAAAAAAAAAAAAAAAAAAAAAAAAAAAAAAAAAAAAAAAAAAAAAAAAAAAAAAAAAAAAAAAAAAAAAAAAAAAAAAAAAAAAAAAAAAAAAAAAAAAAAAAAAAAAAAAAAAAZ/9PAGf/TwBn/08AZ/9PAGf/TwBm/+oAZv//AGb//wBm//8AZv//AGb//wBm//8AZv//AGb//wBm//8AZv//AGb//wBm//8AZv//AGb//wBm//8AZv//AGb//wBm//8AZv//AGb/5gBm/8AAZv/AAGb/wABm/8AAZv+KAAAAAAAAAAAAAAAAAAAAAAAAAAAAAAAAAAAAAAAAAAAAAAAAAAAAAAAAAAAAAAAAAAAAAAAAAAAAAAAAAGj/FABo/xYAaP8WAGj/FgBo/xYAZv/QAGb//wBm//8AZv//AGb//wBm//8AZv//AGb//wBm//8AZv//AGb//wBm//8AZv//AGb//wBm//8AZv//AGb//wBm//8AZv//AGb//wBm//0AZv/5AGb/+QBm//kAZv/5AGb/xwAAAAAAAAAAAAAAAAAAAAAAAAAAAAAAAAAAAAAAAAAAAAAAAAAAAAAAAAAAAAAAAAAAAAAAAAAAAAAAAAAAAAAAAAAAAAAAAAAAAAAAAAAAAAAAAAAAAAAAAAAAAAAAAAAAAAAAAAAAAAAAAAAAAAAAAAAAAAAAAAAAAAAAAAAAAAAAAAAAAAAAAAAAAAAAAAAAAAAAAAAAAAAAAAAAAAAAAAAAAAAAAAAAAAAAAAAAAAAAAAAAAAAAAAAAAAAAAAAAAAAAAAAAAAAAAABn/08AZ/9PAGf/TwBn/08AZ/9PAGb/6gBm//8AZv//AGb//wBm//8AZv//AGb//wBm//8AZv//AGb//wBm//8AZv//AGb//wBm//8AZv//AGb//wBm//8AZv//AGb//wBm//8AZv/mAGb/wABm/8AAZv/AAGb/wABm/4oAAAAAAAAAAAAAAAAAAAAAAAAAAAAAAAAAAAAAAAAAAAAAAAAAAAAAAAAAAAAAAAAAAAAAAAAAAAAAAAAAaP8UAGj/FgBo/xYAaP8WAGj/FgBm/9AAZv//AGb//wBm//8AZv//AGb//wBm//8AZv//AGb//wBm//8AZv//AGb//wBm//8AZv//AGb//wBm//8AZv//AGb//wBm//8AZv//AGb//QBm//kAZv/5AGb/+QBm//kAZv/HAAAAAAAAAAAAAAAAAAAAAAAAAAAAAAAAAAAAAAAAAAAAAAAAAAAAAAAAAAAAAAAAAAAAAAAAAAAAAAAAAAAAAAAAAAAAAAAAAAAAAAAAAAAAAAAAAAAAAAAAAAAAAAAAAAAAAAAAAAAAAAAAAAAAAAAAAAAAAAAAAAAAAAAAAAAAAAAAAAAAAAAAAAAAAAAAAAAAAAAAAAAAAAAAAAAAAAAAAAAAAAAAAAAAAAAAAAAAAAAAAAAAAAAAAAAAAAAAAAAAAAAAAAAAAAAAAGf/TwBn/08AZ/9PAGf/TwBn/08AZv/qAGb//wBm//8AZv//AGb//wBm//8AZv//AGb//wBm//8AZv//AGb//wBm//8AZv//AGb//wBm//8AZv//AGb//wBm//8AZv//AGb//wBm/+YAZv/AAGb/wABm/8AAZv/AAGb/igAAAAAAAAAAAAAAAAAAAAAAAAAAAAAAAAAAAAAAAAAAAAAAAAAAAAAAAAAAAAAAAAAAAAAAAAAAAAAAAABo/xQAaP8WAGj/FgBo/xYAaP8WAGb/0ABm//8AZv//AGb//wBm//8AZv//AGb//wBm//8AZv//AGb//wBm//8AZv//AGb//wBm//8AZv//AGb//wBm//8AZv//AGb//wBm//8AZv/9AGb/+QBm//kAZv/5AGb/+QBm/8cAAAAAAAAAAAAAAAAAAAAAAAAAAAAAAAAAAAAAAAAAAAAAAAAAAAAAAAAAAAAAAAAAAAAAAAAAAAAAAAAAAAAAAAAAAAAAAAAAAAAAAAAAAAAAAAAAAAAAAAAAAAAAAAAAAAAAAAAAAAAAAAAAAAAAAAAAAAAAAAAAAAAAAAAAAAAAAAAAAAAAAAAAAAAAAAAAAAAAAAAAAAAAAAAAAAAAAAAAAAAAAAAAAAAAAAAAAAAAAAAAAAAAAAAAAAAAAAAAAAAAAAAAAAAAAAAAZ/9PAGf/TwBn/08AZ/9PAGf/TwBm/+oAZv//AGb//wBm//8AZv//AGb//wBm//8AZv//AGb//wBm//8AZv//AGb//wBm//8AZv//AGb//wBm//8AZv//AGb//wBm//8AZv//AGb/5gBm/8AAZv/AAGb/wABm/8AAZv+KAAAAAAAAAAAAAAAAAAAAAAAAAAAAAAAAAAAAAAAAAAAAAAAAAAAAAAAAAAAAAAAAAAAAAAAAAAAAAAAAAGj/FABo/xYAaP8WAGj/FgBo/xYAZv/QAGb//wBm//8AZv//AGb//wBm//8AZv//AGb//wBm//8AZv//AGb//wBm//8AZv//AGb//wBm//8AZv//AGb//wBm//8AZv//AGb//wBm//0AZv/5AGb/+QBm//kAZv/5AGb/xwAAAAAAAAAAAAAAAAAAAAAAAAAAAAAAAAAAAAAAAAAAAAAAAAAAAAAAAAAAAAAAAAAAAAAAAAAAAAAAAAAAAAAAAAAAAAAAAAAAAAAAAAAAAAAAAAAAAAAAAAAAAAAAAAAAAAAAAAAAAAAAAAAAAAAAAAAAAAAAAAAAAAAAAAAAAAAAAAAAAAAAAAAAAAAAAAAAAAAAAAAAAAAAAAAAAAAAAAAAAAAAAAAAAAAAAAAAAAAAAAAAAAAAAAAAAAAAAAAAAAAAAAAAAAAAAABn/08AZ/9PAGf/TwBn/08AZ/9PAGb/6gBm//8AZv//AGb//wBm//8AZv//AGb//wBm//8AZv//AGb//wBm//8AZv//AGb//wBm//8AZv//AGb//wBm//8AZv//AGb//wBm//8AZv/mAGb/wABm/8AAZv/AAGb/wABm/4oAAAAAAAAAAAAAAAAAAAAAAAAAAAAAAAAAAAAAAAAAAAAAAAAAAAAAAAAAAAAAAAAAAAAAAAAAAAAAAAAAaP8UAGj/FgBo/xYAaP8WAGj/FgBm/9AAZv//AGb//wBm//8AZv//AGb//wBm//8AZv//AGb//wBm//8AZv//AGb//wBm//8AZv//AGb//wBm//8AZv//AGb//wBm//8AZv//AGb//QBm//kAZv/5AGb/+QBm//kAZv/HAAAAAAAAAAAAAAAAAAAAAAAAAAAAAAAAAAAAAAAAAAAAAAAAAAAAAAAAAAAAAAAAAAAAAAAAAAAAAAAAAAAAAAAAAAAAAAAAAAAAAAAAAAAAAAAAAAAAAAAAAAAAAAAAAAAAAAAAAAAAAAAAAAAAAAAAAAAAAAAAAAAAAAAAAAAAAAAAAAAAAAAAAAAAAAAAAAAAAAAAAAAAAAAAAAAAAAAAAAAAAAAAAAAAAAAAAAAAAAAAAAAAAAAAAAAAAAAAAAAAAAAAAAAAAAAAAGf/TwBn/08AZ/9PAGf/TwBn/08AZv/qAGb//wBm//8AZv//AGb//wBm//8AZv//AGb//wBm//8AZv//AGb//wBm//8AZv//AGb//wBm//8AZv//AGb//wBm//8AZv//AGb//wBm/+YAZv/AAGb/wABm/8AAZv/AAGb/igAAAAAAAAAAAAAAAAAAAAAAAAAAAAAAAAAAAAAAAAAAAAAAAAAAAAAAAAAAAAAAAAAAAAAAAAAAAAAAAABo/xQAaP8WAGj/FgBo/xYAaP8WAGb/0ABm//8AZv//AGb//wBm//8AZv//AGb//wBm//8AZv//AGb//wBm//8AZv//AGb//wBm//8AZv//AGb//wBm//8AZv//AGb//wBm//8AZv/9AGb/+QBm//kAZv/5AGb/+QBm/8cAAAAAAAAAAAAAAAAAAAAAAAAAAAAAAAAAAAAAAAAAAAAAAAAAAAAAAAAAAAAAAAAAAAAAAAAAAAAAAAAAAAAAAAAAAAAAAAAAAAAAAAAAAAAAAAAAAAAAAAAAAAAAAAAAAAAAAAAAAAAAAAAAAAAAAAAAAAAAAAAAAAAAAAAAAAAAAAAAAAAAAAAAAAAAAAAAAAAAAAAAAAAAAAAAAAAAAAAAAAAAAAAAAAAAAAAAAAAAAAAAAAAAAAAAAAAAAAAAAAAAAAAAAAAAAAAAZ/9PAGf/TwBn/08AZ/9PAGf/TwBm/+oAZv//AGb//wBm//8AZv//AGb//wBm//8AZv//AGb//wBm//8AZv//AGb//wBm//8AZv//AGb//wBm//8AZv//AGb//wBm//8AZv//AGb/5gBm/8AAZv/AAGb/wABm/8AAZv+KAAAAAAAAAAAAAAAAAAAAAAAAAAAAAAAAAAAAAAAAAAAAAAAAAAAAAAAAAAAAAAAAAAAAAAAAAAAAAAAAAGj/FABo/xYAaP8WAGj/FgBo/xYAZv/QAGb//wBm//8AZv//AGb//wBm//8AZv//AGb//wBm//8AZv//AGb//wBm//8AZv//AGb//wBm//8AZv//AGb//wBm//8AZv//AGb//wBm//0AZv/5AGb/+QBm//kAZv/5AGb/xwAAAAAAAAAAAAAAAAAAAAAAAAAAAAAAAAAAAAAAAAAAAAAAAAAAAAAAAAAAAAAAAAAAAAAAAAAAAAAAAAAAAAAAAAAAAAAAAAAAAAAAAAAAAAAAAAAAAAAAAAAAAAAAAAAAAAAAAAAAAAAAAAAAAAAAAAAAAAAAAAAAAAAAAAAAAAAAAAAAAAAAAAAAAAAAAAAAAAAAAAAAAAAAAAAAAAAAAAAAAAAAAAAAAAAAAAAAAAAAAAAAAAAAAAAAAAAAAAAAAAAAAAAAAAAAAABn/08AZ/9PAGf/TwBn/08AZ/9PAGb/6gBm//8AZv//AGb//wBm//8AZv//AGb//wBm//8AZv//AGb//wBm//8AZv//AGb//wBm//8AZv//AGb//wBm//8AZv//AGb//wBm//8AZv/mAGb/wABm/8AAZv/AAGb/wABm/4oAAAAAAAAAAAAAAAAAAAAAAAAAAAAAAAAAAAAAAAAAAAAAAAAAAAAAAAAAAAAAAAAAAAAAAAAAAAAAAAAAaP8UAGj/FgBo/xYAaP8WAGj/FgBm/9AAZv//AGb//wBm//8AZv//AGb//wBm//8AZv//AGb//wBm//8AZv//AGb//wBm//8AZv//AGb//wBm//8AZv//AGb//wBm//8AZv//AGb//QBm//kAZv/5AGb/+QBm//kAZv/HAAAAAAAAAAAAAAAAAAAAAAAAAAAAAAAAAAAAAAAAAAAAAAAAAAAAAAAAAAAAAAAAAAAAAAAAAAAAAAAAAAAAAAAAAAAAAAAAAAAAAAAAAAAAAAAAAAAAAAAAAAAAAAAAAAAAAAAAAAAAAAAAAAAAAAAAAAAAAAAAAAAAAAAAAAAAAAAAAAAAAAAAAAAAAAAAAAAAAAAAAAAAAAAAAAAAAAAAAAAAAAAAAAAAAAAAAAAAAAAAAAAAAAAAAAAAAAAAAAAAAAAAAAAAAAAAAGf/TwBn/08AZ/9PAGf/TwBn/08AZv/qAGb//wBm//8AZv//AGb//wBm//8AZv//AGb//wBm//8AZv//AGb//wBm//8AZv//AGb//wBm//8AZv//AGb//wBm//8AZv//AGb//wBm/+YAZv/AAGb/wABm/8AAZv/AAGb/igAAAAAAAAAAAAAAAAAAAAAAAAAAAAAAAAAAAAAAAAAAAAAAAAAAAAAAAAAAAAAAAAAAAAAAAAAAAAAAAABo/xQAaP8WAGj/FgBo/xYAaP8WAGb/0ABm//8AZv//AGb//wBm//8AZv//AGb//wBm//8AZv//AGb//wBm//8AZv//AGb//wBm//8AZv//AGb//wBm//8AZv//AGb//wBm//8AZv/9AGb/+QBm//kAZv/5AGb/+QBm/8cAAAAAAAAAAAAAAAAAAAAAAAAAAAAAAAAAAAAAAAAAAAAAAAAAAAAAAAAAAAAAAAAAAAAAAAAAAAAAAAAAAAAAAAAAAAAAAAAAAAAAAAAAAAAAAAAAAAAAAAAAAAAAAAAAAAAAAAAAAAAAAAAAAAAAAAAAAAAAAAAAAAAAAAAAAAAAAAAAAAAAAAAAAAAAAAAAAAAAAAAAAAAAAAAAAAAAAAAAAAAAAAAAAAAAAAAAAAAAAAAAAAAAAAAAAAAAAAAAAAAAAAAAAAAAAAAAZ/9PAGf/TwBn/08AZ/9PAGf/TwBm/+oAZv//AGb//wBm//8AZv//AGb//wBm//8AZv//AGb//wBm//8AZv//AGb//wBm//8AZv//AGb//wBm//8AZv//AGb//wBm//8AZv//AGb/5gBm/8AAZv/AAGb/wABm/8AAZv+KAAAAAAAAAAAAAAAAAAAAAAAAAAAAAAAAAAAAAAAAAAAAAAAAAAAAAAAAAAAAAAAAAAAAAAAAAAAAAAAAAGj/FABo/xYAaP8WAGj/FgBo/xYAZv/QAGb//wBm//8AZv//AGb//wBm//8AZv//AGb//wBm//8AZv//AGb//wBm//8AZv//AGb//wBm//8AZv//AGb//wBm//8AZv//AGb//wBm//0AZv/5AGb/+QBm//kAZv/5AGb/xwAAAAAAAAAAAAAAAAAAAAAAAAAAAAAAAAAAAAAAAAAAAAAAAAAAAAAAAAAAAAAAAAAAAAAAAAAAAAAAAAAAAAAAAAAAAAAAAAAAAAAAAAAAAAAAAAAAAAAAAAAAAAAAAAAAAAAAAAAAAAAAAAAAAAAAAAAAAAAAAAAAAAAAAAAAAAAAAAAAAAAAAAAAAAAAAAAAAAAAAAAAAAAAAAAAAAAAAAAAAAAAAAAAAAAAAAAAAAAAAAAAAAAAAAAAAAAAAAAAAAAAAAAAAAAAAABn/08AZ/9PAGf/TwBn/08AZ/9PAGb/6gBm//8AZv//AGb//wBm//8AZv//AGb//wBm//8AZv//AGb//wBm//8AZv//AGb//wBm//8AZv//AGb//wBm//8AZv//AGb//wBm//8AZv/mAGb/wABm/8AAZv/AAGb/wABm/4oAAAAAAAAAAAAAAAAAAAAAAAAAAAAAAAAAAAAAAAAAAAAAAAAAAAAAAAAAAAAAAAAAAAAAAAAAAAAAAAAAZ/8UAGf/FgBn/xYAZ/8WAGf/FgBm/9AAZv//AGb//wBm//8AZv//AGb//wBm//8AZv//AGb//wBm//8AZv//AGb//wBm//8AZv//AGb//wBm//8AZv//AGb//wBm//8AZv//AGb//QBm//kAZv/5AGb/+QBm//kAZv/HAAAAAAAAAAAAAAAAAAAAAAAAAAAAAAAAAAAAAAAAAAAAAAAAAAAAAAAAAAAAAAAAAAAAAAAAAAAAAAAAAAAAAAAAAAAAAAAAAAAAAAAAAAAAAAAAAAAAAAAAAAAAAAAAAAAAAAAAAAAAAAAAAAAAAAAAAAAAAAAAAAAAAAAAAAAAAAAAAAAAAAAAAAAAAAAAAAAAAAAAAAAAAAAAAAAAAAAAAAAAAAAAAAAAAAAAAAAAAAAAAAAAAAAAAAAAAAAAAAAAAAAAAAAAAAAAAGX/TgBl/04AZf9OAGX/TgBl/04AZv/qAGb//wBm//8AZv//AGb//wBm//8AZv//AGb//wBm//8AZv//AGb//wBm//8AZv//AGb//wBm//8AZv//AGb//wBm//8AZv//AGb//wBm/+UAZf+/AGX/vwBl/78AZf+/AGX/igAAAAAAAAAAAAAAAAAAAAAAAAAAAAAAAAAAAAAAAAAAAAAAAAAAAAAAAAAAAAAAAAAAAAAAAAAAAAAAAABh/xMAYf8VAGH/FQBh/xUAYf8VAGb/0ABm//8AZv//AGb//wBm//8AZv//AGb//wBm//8AZv//AGb//wBm//8AZv//AGb//wBm//8AZv//AGb//wBm//8AZv//AGb//wBm//8AZv/9AGb/+ABm//gAZv/4AGb/+ABm/8YAAAAAAAAAAAAAAAAAAAAAAAAAAAAAAAAAAAAAAAAAAAAAAAAAAAAAAAAAAAAAAAAAAAAAAAAAAAAAAAAAAAAAAAAAAAAAAAAAAAAAAAAAAAAAAAAAAAAAAAAAAAAAAAAAAAAAAAAAAAAAAAAAAAAAAAAAAAAAAAAAAAAAAAAAAAAAAAAAAAAAAAAAAAAAAAAAAAAAAAAAAAAAAAAAAAAAAAAAAAAAAAAAAAAAAAAAAAAAAAAAAAAAAAAAAAAAAAAAAAAAAAAAAAAAAAAAZf9OAGX/TgBl/04AZf9OAGX/TgBm/+oAZv//AGb//wBm//8AZv//AGb//wBm//8AZv//AGb//wBm//8AZv//AGb//wBm//8AZv//AGb//wBm//8AZv//AGb//wBm//8AZv//AGb/5QBl/78AZf+/AGX/vwBl/78AZf+KAAAAAAAAAAAAAAAAAAAAAAAAAAAAAAAAAAAAAAAAAAAAAAAAAAAAAAAAAAAAAAAAAAAAAAAAAAAAAAAAAGH/EwBh/xUAYf8VAGH/FQBh/xUAZv/QAGb//wBm//8AZv//AGb//wBm//8AZv//AGb//wBm//8AZv//AGb//wBm//8AZv//AGb//wBm//8AZv//AGb//wBm//8AZv//AGb//wBm//0AZv/4AGb/+ABm//gAZv/4AGb/xgAAAAAAAAAAAAAAAAAAAAAAAAAAAAAAAAAAAAAAAAAAAAAAAAAAAAAAAAAAAAAAAAAAAAAAAAAAAAAAAAAAAAAAAAAAAAAAAAAAAAAAAAAAAAAAAAAAAAAAAAAAAAAAAAAAAAAAAAAAAAAAAAAAAAAAAAAAAAAAAAAAAAAAAAAAAAAAAAAAAAAAAAAAAAAAAAAAAAAAAAAAAAAAAAAAAAAAAAAAAAAAAAAAAAAAAAAAAAAAAAAAAAAAAAAAAAAAAAAAAAAAAAAAAAAAAABl/04AZf9OAGX/TgBl/04AZf9OAGb/6gBm//8AZv//AGb//wBm//8AZv//AGb//wBm//8AZv//AGb//wBm//8AZv//AGb//wBm//8AZv//AGb//wBm//8AZv//AGb//wBm//8AZv/lAGX/vwBl/78AZf+/AGX/vwBl/4oAAAAAAAAAAAAAAAAAAAAAAAAAAAAAAAAAAAAAAAAAAAAAAAAAAAAAAAAAAAAAAAAAAAAAAAAAAAAAAAAAYf8TAGH/FQBh/xUAYf8VAGH/FQBm/9AAZv//AGb//wBm//8AZv//AGb//wBm//8AZv//AGb//wBm//8AZv//AGb//wBm//8AZv//AGb//wBm//8AZv//AGb//wBm//8AZv//AGb//QBm//gAZv/4AGb/+ABm//gAZv/GAAAAAAAAAAAAAAAAAAAAAAAAAAAAAAAAAAAAAAAAAAAAAAAAAAAAAAAAAAAAAAAAAAAAAAAAAAAAAAAAAAAAAAAAAAAAAAAAAAAAAAAAAAAAAAAAAAAAAAAAAAAAAAAAAAAAAAAAAAAAAAAAAAAAAAAAAAAAAAAAAAAAAAAAAAAAAAAAAAAAAAAAAAAAAAAAAAAAAAAAAAAAAAAAAAAAAAAAAAAAAAAAAAAAAAAAAAAAAAAAAAAAAAAAAAAAAAAAAAAAAAAAAAAAAAAAAGX/TgBl/04AZf9OAGX/TgBl/04AZv/qAGb//wBm//8AZv//AGb//wBm//8AZv//AGb//wBm//8AZv//AGb//wBm//8AZv//AGb//wBm//8AZv//AGb//wBm//8AZv//AGb//wBm/+UAZf+/AGX/vwBl/78AZf+/AGX/igAAAAAAAAAAAAAAAAAAAAAAAAAAAAAAAAAAAAAAAAAAAAAAAAAAAAAAAAAAAAAAAAAAAAAAAAAAAAAAAABh/xMAYf8VAGH/FQBh/xUAYf8VAGb/0ABm//8AZv//AGb//wBm//8AZv//AGb//wBm//8AZv//AGb//wBm//8AZv//AGb//wBm//8AZv//AGb//wBm//8AZv//AGb//wBm//8AZv/9AGb/+ABm//gAZv/4AGb/+ABm/8YAAAAAAAAAAAAAAAAAAAAAAAAAAAAAAAAAAAAAAAAAAAAAAAAAAAAAAAAAAAAAAAAAAAAAAAAAAAAAAAAAAAAAAAAAAAAAAAAAAAAAAAAAAAAAAAAAAAAAAAAAAAAAAAAAAAAAAAAAAAAAAAAAAAAAAAAAAAAAAAAAAAAAAAAAAAAAAAAAAAAAAAAAAAAAAAAAAAAAAAAAAAAAAAAAAAAAAAAAAAAAAAAAAAAAAAAAAAAAAAAAAAAAAAAAAAAAAAAAAAAAAAAAAAAAAAAAZf9IAGX/SABl/0gAZf9IAGX/SABm/+YAZv/7AGb/+wBm//sAZv/7AGb//gBm//8AZv//AGb//wBm//8AZv//AGb//wBm//8AZv//AGb//wBm//8AZv/+AGb//gBm//4AZv/+AGb/4QBl/7UAZf+1AGX/tQBl/7UAZf+DAAAAAAAAAAAAAAAAAAAAAAAAAAAAAAAAAAAAAAAAAAAAAAAAAAAAAAAAAAAAAAAAAAAAAAAAAAAAAAAAAGH/EQBh/xMAYf8TAGH/EwBh/xMAZv/JAGb/9wBm//cAZv/3AGb/9wBm//0AZv//AGb//wBm//8AZv//AGb//wBm//8AZv//AGb//wBm//8AZv//AGb//wBm//8AZv//AGb//wBm//kAZv/uAGb/7gBm/+4AZv/uAGb/vgAAAAAAAAAAAAAAAAAAAAAAAAAAAAAAAAAAAAAAAAAAAAAAAAAAAAAAAAAAAAAAAAAAAAAAAAAAAAAAAAAAAAAAAAAAAAAAAAAAAAAAAAAAAAAAAAAAAAAAAAAAAAAAAAAAAAAAAAAAAAAAAAAAAAAAAAAAAAAAAAAAAAAAAAAAAAAAAAAAAAAAAAAAAAAAAAAAAAAAAAAAAAAAAAAAAAAAAAAAAAAAAAAAAAAAAAAAAAAAAAAAAAAAAAAAAAAAAAAAAAAAAAAAAAAAAABm/xkAZv8ZAGb/GQBm/xkAZv8ZAGb/xwBm/98AZv/fAGb/3wBm/98AZv/3AGb//wBm//8AZv//AGb//wBm//8AZv//AGb//wBm//8AZv//AGb//ABm//oAZv/6AGb/+gBm//oAZv/CAGX/bwBl/28AZf9vAGX/bwBl/1AAAAAAAAAAAAAAAAAAAAAAAAAAAAAAAAAAAAAAAAAAAAAAAAAAAAAAAAAAAAAAAAAAAAAAAAAAAAAAAAAAAP8BAAD/AQAA/wEAAP8BAAD/AQBm/5gAZv++AGb/vgBm/74AZv++AGb/6gBm//8AZv//AGb//wBm//8AZv//AGb//wBm//8AZv//AGb//wBm//8AZv/+AGb//gBm//4AZv/+AGb/4QBn/6QAZ/+kAGf/pABn/6QAZ/+DAAAAAAAAAAAAAAAAAAAAAAAAAAAAAAAAAAAAAAAAAAAAAAAAAAAAAAAAAAAAAAAAAAAAAAAAAAAAAAAAAAAAAAAAAAAAAAAAAAAAAAAAAAAAAAAAAAAAAAAAAAAAAAAAAAAAAAAAAAAAAAAAAAAAAAAAAAAAAAAAAAAAAAAAAAAAAAAAAAAAAAAAAAAAAAAAAAAAAAAAAAAAAAAAAAAAAAAAAAAAAAAAAAAAAAAAAAAAAAAAAAAAAAAAAAAAAAAAAAAAAAAAAAAAAAAAAGb/GQBm/xkAZv8ZAGb/GQBm/xkAZv/HAGb/3wBm/98AZv/fAGb/3wBm//cAZv//AGb//wBm//8AZv//AGb//wBm//8AZv//AGb//wBm//8AZv/8AGb/+gBm//oAZv/6AGb/+gBm/8IAZf9vAGX/bwBl/28AZf9vAGX/UAAAAAAAAAAAAAAAAAAAAAAAAAAAAAAAAAAAAAAAAAAAAAAAAAAAAAAAAAAAAAAAAAAAAAAAAAAAAAAAAAAA/wEAAP8BAAD/AQAA/wEAAP8BAGb/mABm/74AZv++AGb/vgBm/74AZv/qAGb//wBm//8AZv//AGb//wBm//8AZv//AGb//wBm//8AZv//AGb//wBm//4AZv/+AGb//gBm//4AZv/hAGf/pABn/6QAZ/+kAGf/pABn/4MAAAAAAAAAAAAAAAAAAAAAAAAAAAAAAAAAAAAAAAAAAAAAAAAAAAAAAAAAAAAAAAAAAAAAAAAAAAAAAAAAAAAAAAAAAAAAAAAAAAAAAAAAAAAAAAAAAAAAAAAAAAAAAAAAAAAAAAAAAAAAAAAAAAAAAAAAAAAAAAAAAAAAAAAAAAAAAAAAAAAAAAAAAAAAAAAAAAAAAAAAAAAAAAAAAAAAAAAAAAAAAAAAAAAAAAAAAAAAAAAAAAAAAAAAAAAAAAAAAAAAAAAAAAAAAAAAZv8ZAGb/GQBm/xkAZv8ZAGb/GQBm/8cAZv/fAGb/3wBm/98AZv/fAGb/9wBm//8AZv//AGb//wBm//8AZv//AGb//wBm//8AZv//AGb//wBm//wAZv/6AGb/+gBm//oAZv/6AGb/wgBl/28AZf9vAGX/bwBl/28AZf9QAAAAAAAAAAAAAAAAAAAAAAAAAAAAAAAAAAAAAAAAAAAAAAAAAAAAAAAAAAAAAAAAAAAAAAAAAAAAAAAAAAD/AQAA/wEAAP8BAAD/AQAA/wEAZv+YAGb/vgBm/74AZv++AGb/vgBm/+oAZv//AGb//wBm//8AZv//AGb//wBm//8AZv//AGb//wBm//8AZv//AGb//gBm//4AZv/+AGb//gBm/+EAZ/+kAGf/pABn/6QAZ/+kAGf/gwAAAAAAAAAAAAAAAAAAAAAAAAAAAAAAAAAAAAAAAAAAAAAAAAAAAAAAAAAAAAAAAAAAAAAAAAAAAAAAAAAAAAAAAAAAAAAAAAAAAAAAAAAAAAAAAAAAAAAAAAAAAAAAAAAAAAAAAAAAAAAAAAAAAAAAAAAAAAAAAAAAAAAAAAAAAAAAAAAAAAAAAAAAAAAAAAAAAAAAAAAAAAAAAAAAAAAAAAAAAAAAAAAAAAAAAAAAAAAAAAAAAAAAAAAAAAAAAAAAAAAAAAAAAAAAAABm/xkAZv8ZAGb/GQBm/xkAZv8ZAGb/xwBm/98AZv/fAGb/3wBm/98AZv/3AGb//wBm//8AZv//AGb//wBm//8AZv//AGb//wBm//8AZv//AGb//ABm//oAZv/6AGb/+gBm//oAZv/CAGX/bwBl/28AZf9vAGX/bwBl/1AAAAAAAAAAAAAAAAAAAAAAAAAAAAAAAAAAAAAAAAAAAAAAAAAAAAAAAAAAAAAAAAAAAAAAAAAAAAAAAAAAAP8BAAD/AQAA/wEAAP8BAAD/AQBm/5gAZv++AGb/vgBm/74AZv++AGb/6gBm//8AZv//AGb//wBm//8AZv//AGb//wBm//8AZv//AGb//wBm//8AZv/+AGb//gBm//4AZv/+AGb/4QBn/6QAZ/+kAGf/pABn/6QAZ/+DAAAAAAAAAAAAAAAAAAAAAAAAAAAAAAAAAAAAAAAAAAAAAAAAAAAAAAAAAAAAAAAAAAAAAAAAAAAAAAAAAAAAAAAAAAAAAAAAAAAAAAAAAAAAAAAAAAAAAAAAAAAAAAAAAAAAAAAAAAAAAAAAAAAAAAAAAAAAAAAAAAAAAAAAAAAAAAAAAAAAAAAAAAAAAAAAAAAAAAAAAAAAAAAAAAAAAAAAAAAAAAAAAAAAAAAAAAAAAAAAAAAAAAAAAAAAAAAAAAAAAAAAAAAAAAAAAGb/GQBm/xkAZv8ZAGb/GQBm/xkAZv/HAGb/3wBm/98AZv/fAGb/3wBm//cAZv//AGb//wBm//8AZv//AGb//wBm//8AZv//AGb//wBm//8AZv/8AGb/+gBm//oAZv/6AGb/+gBm/8IAZf9vAGX/bwBl/28AZf9vAGX/UAAAAAAAAAAAAAAAAAAAAAAAAAAAAAAAAAAAAAAAAAAAAAAAAAAAAAAAAAAAAAAAAAAAAAAAAAAAAAAAAAAA/wEAAP8BAAD/AQAA/wEAAP8BAGb/mABm/74AZv++AGb/vgBm/74AZv/qAGb//wBm//8AZv//AGb//wBm//8AZv//AGb//wBm//8AZv//AGb//wBm//4AZv/+AGb//gBm//4AZv/hAGf/pABn/6QAZ/+kAGf/pABn/4MAAAAAAAAAAAAAAAAAAAAAAAAAAAAAAAAAAAAAAAAAAAAAAAAAAAAAAAAAAAAAAAAAAAAAAAAAAAAAAAAAAAAAAAAAAAAAAAAAAAAAAAAAAAAAAAAAAAAAAAAAAAAAAAAAAAAAAAAAAAAAAAAAAAAAAAAAAAAAAAAAAAAAAAAAAAAAAAAAAAAAAAAAAAAAAAAAAAAAAAAAAAAAAAAAAAAAAAAAAAAAAAAAAAAAAAAAAAAAAAAAAAAAAAAAAAAAAAAAAAAAAAAAAAAAAAAAAAAAAAAAAAAAAAAAAAAAAAAAAAAAAAAAAAAAAAAAAAAAAAAAAAAAAAAAAAAAAAAAAAAAAAAAAAAAAAAAAAAAAAAAAAAAAAAAAAAAAAAAAAAAAAAAAAAAAAAAAAAAAAAAAAAAAAAAAAAAAAAAAAAAAAAAAAAAAAAAAAAAAAAAAAAAAAAAAAAAAAAAAAAAAAAAAAAAAAAAAAAAAAAAAAAAAAAAAAAAAAAAAAAAAAAAAAAAAAAAAAAAAAAAAAAAAAAAAAAAAAAAAAAAAAAAAAAAAAAAAAAAAAAAAAAAAAAAAAAAAAAAAAAAAAAAAAAAAAAAAAAAAAAAAAAAAAAAAAAAAAAAAAAAAAAAAAAAAAAAAAAAAAAAAAAAAAAAAAAAAAAAAAAAAAAAAAAAAAAAAAAAAAAAAAAAAAAAAAAAAAAAAAAAAAAAAAAAAAAAAAAAAAAAAAAAAAAAAAAAAAAAAAAAAAAAAAAAAAAAAAAAAAAAAAAAAAAAAAAAAAAAAAAAAAAAAAAAAAAAAAAAAAAAAAAAAAAAAAAAAAAAAAAAAAAAAAAAAAAAAAAAAAA//4AAAAAAAAAAAAAAAAAAP/+AAAAAAAAAAAAAAAAAAD//gAAAAAAAAAAAAAAAAAA//4AAAAAAAAAAAAAAAAAAP/+AAAAAAAAAAAAAAAAAAD///AAAAAAAAAAAAAAAAAA///wAAAAAAAAAAAAAAAAAP//8AAAAAAAAAAAAAAAAAD///AAAAAAAAAAAAAAAAAA///wAAAAAAAAAAAAAAAAAP//8AAAAAAAAAAAAAAAAAD///AAAAAAAAAAAAAAAAAA///wAAAAAAAAAAAAAAAAAP//8AAAAAAAAAAAAAAAAAD//gAAAAAAAAAAAAAAAAAA//4AAAAAAAAAAAAAAAAAAP/+AAAAAAAAAAAAAAAAAAD//gAAAAAAAAAAAAAAAAAA//4AAAAAAAAAAAAAAAAAAP/+AAAAAAAAAAAAAAAAAAAAAAAAAAAAAAAAAAAAAAAAAAAAAAAAAAAAAAAAAAAAAAAAAAAAAAAAAAAAAAAAAAAAAAAAAAAAAAAAAAAAAAAAAAAAAAAAAAAAAAAAAAAAAAAAAAAAAAAAAAAAAAAAAAAAAAAAAAAAAAAAAAAAAAAAAAAAAAAAAAAAAAAAAAAAAAAAAAAAAAAAAAAAAAAAAAAAAAAAAAAAAAAAAAAAAAAAAAAAAAAAAAAAAAAAAAAAAAAAAAAAAAAAAAAAAAAAAAAAAAAAAAAAAAAAAAAAAAAAAAAAAAAAAAAAAAAAAAAAAAAAAAAAAAAAAAAAAAAAAAAAAAAAAAAAAAAAAAAAAAAAAAAAAAAAAAAAAAAAAAAAAAAAAAAAAAAAAAAAAAAAAAAAAAAAAAAAAAAAAAAAAAAAAAAAAAAAAAAAAAAAAAAAAAAAAAAAAAAAAAAAAAAAAAAAAAAAAAAAAAAAAAAAAAAAAAAAAAAAAAAAAAAAAAAAAAAAAAAAAAAAAAAAAAAAAAAAAAAAAAAAAAAAAAAAAAAAAAAAAAAAAAAAAAAAAAAAAAAAAAAAAAAAAAAAAAAAAAAAAAAAAAAAAAAAAAAAAAAAAAAAAAAAAAAAAAAAAAAAAAAAAAAAAAAAAAAAAAAAAAAAAAAAAAAAAAAAP/AAAAAA///////8AAAAAD/wAAAAAP///////AAAAAA/8AAAAAD///////wAAAAAP/AAAAAA///////8AAAAAD/wAAAAAP///////AAAAAf/8AAAAB////////wAAAAH//AAAAAf///////8AAAAB//wAAAAH////////AAAAAf/8AAAAB////////wAAAAH//AAAAAf///////8AAAAB//wAAAAH////////AAAAAf/8AAAAB////////wAAAAH//AAAAAf///////8AAAAB//wAAAAH////////AAAAAf/8AAAAB////////wAAAAH//AAAAAf///////8AAAAB//wAAAAH////////AAAAAf/8AAAAB////////wAAAAH//AAAAAf///////8AAAAB//wAAAAH////////AAAAAf/8AAAAB////////wAAAAH//AAAAAf///////8AAAAB//wAAAAH////////AAAAAf/8AAAAB////////wAAAAH//AAAAAf///////8AAAAB//wAAAAH////////AAAAAf/8AAAAB////////wAAAAH//AAAAAf///////8AAAAB//wAAAAH////////AAAAAf/8AAAAB////////wAAAAH//AAAAAf///////8AAAAB//wAAAAH////////AAAAAf/8AAAAB////////wAAAAH//AAAAAf///////8AAAAB//wAAAAH////////AAAAAf/8AAAAB////////wAAAAH//AAAAAf///////8AAAAB//wAAAAH////////AAAAAf/8AAAAB////////wAAAAH//AAAAAf///////8AAAAB//wAAAAH////////AAAAAf/8AAAAB////////wAAAAH//AAAAAf///////8AAAAB//wAAAAH////////AAAAAf/8AAAAB////////wAAAAH//AAAAAf///////8AAAAB//wAAAAH////////AAAAAf/8AAAAB////////wAAAAH//AAAAAf///////8AAAAB//wAAAAH////////AAAAAf/8AAAAB////////ygAAABAAAAAgAAAAAEAIAAAAAAAAEAAAMMOAADDDgAAAAAAAAAAAAAAZv88AGb/PABm/5IAZv//AGb//wBm//8AZv//AGb//wBm//8AZv//AGb//wBm//8AZv//AGb//wBm//8AZv//AGb//wBm//8AZv//AGb//wBm//8AZv//AGb//wBm//8AZv//AGb//wBm//8AZv//AGb//wBm//8AZv//AGb//wBm//8AZv//AGb//wBm//8AZv//AGb//wBm//8AZv//AGb//wBm//8AZv//AGb//wBm//8AZv//AGb//wBm//8AZv//AGb//wBm//8AZv//AGb//wBm//8AZv//AGb//wBm//8AZv//AGb//wBm//8AZv//AGb/1QBm/7QAZv+0AGb/PABm/zwAZv+SAGb//wBm//8AZv//AGb//wBm//8AZv//AGb//wBm//8AZv//AGb//wBm//8AZv//AGb//wBm//8AZv//AGb//wBm//8AZv//AGb//wBm//8AZv//AGb//wBm//8AZv//AGb//wBm//8AZv//AGb//wBm//8AZv//AGb//wBm//8AZv//AGb//wBm//8AZv//AGb//wBm//8AZv//AGb//wBm//8AZv//AGb//wBm//8AZv//AGb//wBm//8AZv//AGb//wBm//8AZv//AGb//wBm//8AZv//AGb//wBm//8AZv//AGb//wBm/9UAZv+0AGb/tABn/0QAZ/9EAGb/lgBm//8AZv//AGb//wBm//8AZv//AGb//wBm//8AZv//AGb//wBm//8AZv//AGb//wBm//8AZv//AGb//wBm//8AZv//AGb//wBm//8AZv//AGb//wBm//8AZv//AGb//wBm//8AZv//AGb//wBm//8AZv//AGb//wBm//8AZv//AGb//wBm//8AZv//AGb//wBm//8AZv//AGb//wBm//8AZv//AGb//wBm//8AZv//AGb//wBm//8AZv//AGb//wBm//8AZv//AGb//wBm//8AZv//AGb//wBm//8AZv//AGb//wBm//8AZv/aAGb/vABm/7wAZ/9PAGf/TwBm/5wAZv//AGb//wBm//8AZv//AGb//wBm//8AZv//AGb//wBm//8AZv//AGb//wBm//8AZv//AGb//wBm//8AZv//AGb//wBm//8AZv//AGb//wBm//8AZv//AGb//wBm//8AZv//AGb//wBm//8AZv//AGb//wBm//8AZv//AGb//wBm//8AZv//AGb//wBm//8AZv//AGb//wBm//8AZv//AGb//wBm//8AZv//AGb//wBm//8AZv//AGb//wBm//8AZv//AGb//wBm//8AZv//AGb//wBm//8AZv//AGb//wBm//8AZv//AGb/4ABn/8cAZ//HAGf/TwBn/08AZv+cAGb//wBm//8AZv//AGb//wBm//8AZv//AGb//wBm//8AZv//AGb//wBm//8AZv//AGb//wBm//8AZv//AGb//wBm//8AZv//AGb//wBm//8AZv//AGb//wBm//8AZv//AGb//wBm//8AZv//AGb//wBm//8AZv//AGb//wBm//8AZv//AGb//wBm//8AZv//AGb//wBm//8AZv//AGb//wBm//8AZv//AGb//wBm//8AZv//AGb//wBm//8AZv//AGb//wBm//8AZv//AGb//wBm//8AZv//AGb//wBm//8AZv//AGb//wBm/+AAZ//HAGf/xwBn/08AZ/9PAGb/nABm//8AZv//AGb//wBm//8AZv//AGb//wBm//8AZv//AGb//wBm//8AZv//AGb//wBm//8AZv//AGb//wBm//8AZv//AGb//wBm//8AZv//AGb//wBm//8AZv//AGb//wBm//8AZv//AGb//wBm//8AZv//AGb//wBm//8AZv//AGb//wBm//8AZv//AGb//wBm//8AZv//AGb//wBm//8AZv//AGb//wBm//8AZv//AGb//wBm//8AZv//AGb//wBm//8AZv//AGb//wBm//8AZv//AGb//wBm//8AZv//AGb//wBm//8AZv/gAGf/xwBn/8cAZ/9PAGf/TwBm/5wAZv//AGb//wBm//8AZv//AGb//wBm//8AZv//AGb//wBm//8AZv//AGb//wBm//8AZv//AGb//wBm//8AZv//AGb//wBm//8AZv//AGb//wBm//8AZv//AGb//wBm//8AZv//AGb//wBm//8AZv//AGb//wBm//8AZv//AGb//wBm//8AZv//AGb//wBm//8AZv//AGb//wBm//8AZv//AGb//wBm//8AZv//AGb//wBm//8AZv//AGb//wBm//8AZv//AGb//wBm//8AZv//AGb//wBm//8AZv//AGb//wBm//8AZv//AGb/4ABn/8cAZ//HAGf/TwBn/08AZv+cAGb//wBm//8AZv//AGb//wBm//8AZv//AGb//wBm//8AZv//AGb//wBm//8AZv//AGb//wBm//8AZv//AGb//wBm//8AZv//AGb//wBm//8AZv//AGb//wBm//8AZv//AGb//wBm//8AZv//AGb//wBm//8AZv//AGb//wBm//8AZv//AGb//wBm//8AZv//AGb//wBm//8AZv//AGb//wBm//8AZv//AGb//wBm//8AZv//AGb//wBm//8AZv//AGb//wBm//8AZv//AGb//wBm//8AZv//AGb//wBm//8AZv//AGb//wBm/+AAZ//HAGf/xwBn/08AZ/9PAGb/nABm//8AZv//AGb//wBm//8AZv//AGb//wBm//8AZv//AGb//wBm//8AZv//AGb//wBm//8AZv//AGb//wBm//8AZv//AGb//wBm//8AZv//AGb//wBm//8AZv//AGb//wBm//8AZv//AGb//wBm//8AZv//AGb//wBm//8AZv//AGb//wBm//8AZv//AGb//wBm//8AZv//AGb//wBm//8AZv//AGb//wBm//8AZv//AGb//wBm//8AZv//AGb//wBm//8AZv//AGb//wBm//8AZv//AGb//wBm//8AZv//AGb//wBm//8AZv/gAGf/xwBn/8cAZ/9PAGf/TwBm/5wAZv//AGb//wBm//8AZv//AGb//wBm//8AZv//AGb//wBm//8AZv//AGb//wBm//8AZv//AGb//wBm//8AZv//AGb//wBm//8AZv//AGb//wBm//8AZv//AGb//wBm//8AZv//AGb//wBm//8AZv//AGb//wBm//8AZv//AGb//wBm//8AZv//AGb//wBm//8AZv//AGb//wBm//8AZv//AGb//wBm//8AZv//AGb//wBm//8AZv//AGb//wBm//8AZv//AGb//wBm//8AZv//AGb//wBm//8AZv//AGb//wBm//8AZv//AGb/4ABn/8cAZ//HAGf/TwBn/08AZv+cAGb//wBm//8AZv//AGb//wBm//8AZv//AGb//wBm//8AZv//AGb//wBm//8AZv//AGb//wBm//8AZv//AGb//wBm//8AZv//AGb//wBm//8AZv//AGb//wBm//8AZv//AGb//wBm//8AZv//AGb//wBm//8AZv//AGb//wBm//8AZv//AGb//wBm//8AZv/3AGb/8gBm//EAZv/NAGb/zQBm/8wAZv/LAGb/ywBm/8sAZv/LAGb/2ABm/+4AZv/uAGb//ABm//8AZv//AGb//wBm//8AZv//AGb//wBm//8AZv//AGb//wBm/+AAZ//HAGf/xwBn/08AZ/9PAGb/nABm//8AZv//AGb//wBm//8AZv//AGb//wBm//8AZv//AGb//wBm//8AZv//AGb//wBm//8AZv//AGb//wBm//8AZv//AGb//wBm//8AZv//AGb//wBm//8AZv//AGb//wBm//8AZv//AGb//wBm//8AZv//AGb//wBm//8AZv//AGb//wBm//8AZv//AGb/9QBm/+4AZv/sAGf/vQBn/70AZv+8AGb/uwBm/7sAZv+7AGb/uwBm/8sAZv/oAGb/6ABm//oAZv//AGb//wBm//8AZv//AGb//wBm//8AZv//AGb//wBm//8AZv/gAGf/xwBn/8cAZ/9PAGf/TwBm/5wAZv//AGb//wBm//8AZv//AGb//wBm//8AZv//AGb//wBm//8AZv//AGb//wBm//8AZv//AGb//wBm//8AZv//AGb//wBm//8AZv//AGb//wBm//8AZv//AGb//wBm//8AZv//AGb//wBm//8AZv//AGb//wBm//8AZv//AGb//wBm//8AZv//AGb//wBm/94AZv/HAGb/xQBn/5cAZ/+XAGb/lgBm/5YAZv+WAGb/lgBm/5YAZv+kAGb/vgBm/74AZv/xAGb//gBm//4AZv//AGb//wBm//8AZv//AGb//wBm//8AZv//AGb/4ABn/8cAZ//HAGf/TwBn/08AZv+cAGb//wBm//8AZv//AGb//wBm//8AZv//AGb//wBm//8AZv//AGb//wBm//8AZv//AGb//wBm//8AZv//AGb//wBm//8AZv//AGb//wBm//8AZv//AGb//wBm//8AZv//AGb//wBm//8AZv//AGb//wBm//8AZv//AGb//wBm//8AZv//AGb//wBm//8AZv+BAGb/LQBm/ysAAAAAAAAAAAAAAAAAAAAAAAAAAAAAAAAAAAAAAGH/CABh/xUAYf8VAGb/ywBm//gAZv/6AGb//wBm//8AZv//AGb//wBm//8AZv//AGb//wBm/+AAZ//HAGf/xwBn/08AZ/9PAGb/nABm//8AZv//AGb//wBm//8AZv//AGb//wBm//8AZv//AGb//wBm//8AZv//AGb//wBm//8AZv//AGb//wBm//8AZv//AGb//wBm//8AZv//AGb//wBm//8AZv//AGb//wBm//8AZv//AGb//wBm//8AZv//AGb//wBm//8AZv//AGb//wBm//8AZv//AGb/gQBm/y0AZv8rAAAAAAAAAAAAAAAAAAAAAAAAAAAAAAAAAAAAAABh/wgAYf8VAGH/FQBm/8sAZv/4AGb/+gBm//8AZv//AGb//wBm//8AZv//AGb//wBm//8AZv/gAGf/xwBn/8cAZ/9PAGf/TwBm/5wAZv//AGb//wBm//8AZv//AGb//wBm//8AZv//AGb//wBm//8AZv//AGb//wBm//8AZv//AGb//wBm//8AZv//AGb//wBm//8AZv//AGb//wBm//8AZv//AGb//wBm//8AZv//AGb//wBm//8AZv//AGb//wBm//8AZv//AGb//wBm//8AZv//AGb//wBm/3MAZP8VAGT/FAAAAAAAAAAAAAAAAAAAAAAAAAAAAAAAAAAAAAAAYf8DAGH/CABh/wgAZv+/AGb/7QBm//EAZv//AGb//wBm//8AZv//AGb//wBm//8AZv//AGb/4ABn/8cAZ//HAGf/TwBn/08AZv+cAGb//wBm//8AZv//AGb//wBm//8AZv//AGb//wBm//8AZv//AGb//wBm//8AZv//AGb//wBm//8AZv//AGb//wBm//8AZv//AGb//wBm//8AZv//AGb//wBm//8AZv//AGb//wBm//8AZv//AGb//wBm//8AZv//AGb//wBm//8AZv//AGb//wBm//8AZv9rAGD/CABg/wgAAAAAAAAAAAAAAAAAAAAAAAAAAAAAAAAAAAAAAAAAAAAAAAAAAAAAAGb/uQBm/+cAZv/tAGb//wBm//8AZv//AGb//wBm//8AZv//AGb//wBm/+AAZ//HAGf/xwBn/08AZ/9PAGb/nABm//8AZv//AGb//wBm//8AZv//AGb//wBm//8AZv//AGb//wBm//8AZv//AGb//wBm//8AZv//AGb//wBm//8AZv//AGb//wBm//8AZv//AGb//wBm//8AZv//AGb//wBm//8AZv//AGb//wBm//8AZv//AGb//wBm//8AZv//AGb//wBm//8AZv//AGb/awBg/wgAYP8IAAAAAAAAAAAAAAAAAAAAAAAAAAAAAAAAAAAAAAAAAAAAAAAAAAAAAABm/7kAZv/nAGb/7QBm//8AZv//AGb//wBm//8AZv//AGb//wBm//8AZv/gAGf/xwBn/8cAZ/9PAGf/TwBm/5wAZv//AGb//wBm//8AZv//AGb//wBm//8AZv//AGb//wBm//8AZv//AGb//wBm//8AZv//AGb//wBm//8AZv//AGb//wBm//8AZv//AGb//wBm//8AZv//AGb//wBm//8AZv//AGb//wBm//8AZv//AGb//wBm//8AZv//AGb//wBm//8AZv//AGb//wBm/2sAYP8IAGD/CAAAAAAAAAAAAAAAAAAAAAAAAAAAAAAAAAAAAAAAAAAAAAAAAAAAAAAAZv+5AGb/5wBm/+0AZv//AGb//wBm//8AZv//AGb//wBm//8AZv//AGb/4ABn/8cAZ//HAGf/TwBn/08AZv+cAGb//wBm//8AZv//AGb//wBm//8AZv//AGb//wBm//8AZv//AGb//wBm//8AZv//AGb//wBm//8AZv//AGb//wBm//8AZv//AGb//wBm//8AZv//AGb//wBm//8AZv//AGb//wBm//8AZv//AGb//wBm//8AZv//AGb//wBm//8AZv//AGb//wBm//8AZv9rAGD/CABg/wgAAAAAAAAAAAAAAAAAAAAAAAAAAAAAAAAAAAAAAAAAAAAAAAAAAAAAAGb/uQBm/+cAZv/tAGb//wBm//8AZv//AGb//wBm//8AZv//AGb//wBm/+AAZ//HAGf/xwBn/08AZ/9PAGb/nABm//8AZv//AGb//wBm//8AZv//AGb//wBm//8AZv//AGb//wBm//8AZv//AGb//wBm//8AZv//AGb//wBm//8AZv//AGb//wBm//8AZv//AGb//wBm//8AZv//AGb//wBm//8AZv//AGb//wBm//8AZv//AGb//wBm//8AZv//AGb//wBm//8AZv//AGb/bQBg/wwAYP8MAAAAAAAAAAAAAAAAAAAAAAAAAAAAAAAAAAAAAAAA/wAAAP8BAAD/AQBm/7wAZv/rAGb/8ABm//8AZv//AGb//wBm//8AZv//AGb//wBm//8AZv/gAGf/xwBn/8cAZ/9PAGf/TwBm/5wAZv//AGb//wBm//8AZv//AGb//wBm//8AZv//AGb//wBm//8AZv//AGb//wBm//8AZv//AGb//wBm//8AZv//AGb//wBm//8AZv//AGb//wBm//8AZv//AGb//wBm//8AZv//AGb//wBm//8AZv//AGb//wBm//8AZv//AGb//wBm//8AZv//AGb//wBl/3AAYP8QAGD/DwAAAAAAAAAAAAAAAAAAAAAAAAAAAAAAAAAAAAAAAP8AAAD/AQAA/wEAZv+/AGb/7wBm//MAZv//AGb//wBm//8AZv//AGb//wBm//8AZv//AGb/4ABn/8cAZ//HAGf/TwBn/08AZv+cAGb//wBm//8AZv//AGb//wBm//8AZv//AGb//wBm//8AZv//AGb//wBm//8AZv//AGb//wBm//8AZv//AGb//wBm//8AZv//AGb//wBm//8AZv//AGb//wBm//8AZv//AGb//wBm//8AZv//AGb//wBm//8AZv//AGb//wBm//8AZv//AGb//wBm//8AZf9wAGD/EABg/w8AAAAAAAAAAAAAAAAAAAAAAAAAAAAAAAAAAAAAAAD/AAAA/wEAAP8BAGb/vwBm/+8AZv/zAGb//wBm//8AZv//AGb//wBm//8AZv//AGb//wBm/+AAZ//HAGf/xwBn/08AZ/9PAGb/nABm//8AZv//AGb//wBm//8AZv//AGb//wBm//8AZv//AGb//wBm//8AZv//AGb//wBm//8AZv//AGb//wBm//8AZv//AGb//wBm//8AZv//AGb//wBm//8AZv//AGb//wBm//8AZv//AGb//wBm//8AZv//AGb//wBm//8AZv//AGb//wBm//8AZv//AGb/yQBl/6UAZf+iAGX/VABl/1QAZv9TAGb/UgBm/1IAZf9SAGX/UwBm/2kAZv+SAGb/kgBm/+kAZv/+AGb//wBm//8AZv//AGb//wBm//8AZv//AGb//wBm//8AZv/gAGf/xwBn/8cAZ/9PAGf/TwBm/5wAZv//AGb//wBm//8AZv//AGb//wBm//8AZv//AGb//wBm//8AZv//AGb//wBm//8AZv//AGb//wBm//8AZv//AGb//wBm//8AZv//AGb//wBm//8AZv//AGb//wBm//8AZv//AGb//wBm//8AZv//AGb//wBm//8AZv//AGb//wBm//8AZv//AGb//wBm/80AZf+rAGX/qABl/1gAZf9YAGb/VwBm/1UAZv9VAGX/VgBl/1YAZv9uAGb/mABm/5gAZv/qAGb//wBm//8AZv//AGb//wBm//8AZv//AGb//wBm//8AZv//AGb/4ABn/8cAZ//HAGf/TwBn/08AZv+cAGb//wBm//8AZv//AGb//wBm//8AZv//AGb//wBm//8AZv//AGb//wBm//8AZv//AGb//wBm//8AZv//AGb//wBm//8AZv//AGb//wBm//8AZv//AGb//wBm//8AZv//AGb//wBm//8AZv//AGb//wBm//8AZv//AGb//wBm//8AZv//AGb//wBm//8AZv/hAGb/zQBm/8sAZv+bAGb/mwBm/5oAZv+ZAGb/mQBm/5oAZv+aAGb/qABm/8EAZv/BAGb/8wBm//8AZv//AGb//wBm//8AZv//AGb//wBm//8AZv//AGb//wBm/+AAZ//HAGf/xwBn/08AZ/9PAGb/nABm//8AZv//AGb//wBm//8AZv//AGb//wBm//8AZv//AGb//wBm//8AZv//AGb//wBm//8AZv//AGb//wBm//8AZv//AGb//wBm//8AZv//AGb//wBm//8AZv//AGb//wBm//8AZv//AGb//wBm//8AZv//AGb//wBm//8AZv//AGb//wBm//8AZv//AGb//wBm//8AZv//AGb//wBm//8AZv//AGb//wBm//8AZv//AGb//wBm//8AZv//AGb//wBm//8AZv//AGb//wBm//8AZv//AGb//wBm//8AZv//AGb//wBm//8AZv/gAGf/xwBn/8cAZ/9PAGf/TwBm/5wAZv//AGb//wBm//8AZv//AGb//wBm//8AZv//AGb//wBm//8AZv//AGb//wBm//8AZv//AGb//wBm//8AZv//AGb//wBm//8AZv//AGb//wBm//8AZv//AGb//wBm//8AZv//AGb//wBm//8AZv//AGb//wBm//8AZv//AGb//wBm//8AZv//AGb//wBm//8AZv//AGb//wBm//8AZv//AGb//wBm//8AZv//AGb//wBm//8AZv//AGb//wBm//8AZv//AGb//wBm//8AZv//AGb//wBm//8AZv//AGb//wBm//8AZv//AGb/4ABn/8cAZ//HAGf/TwBn/08AZv+cAGb//wBm//8AZv//AGb//wBm//8AZv//AGb//wBm//8AZv//AGb//wBm//8AZv//AGb//wBm//8AZv//AGb//wBm//8AZv//AGb//wBm//8AZv//AGb//wBm//8AZv//AGb//wBm//8AZv//AGb//wBm//8AZv//AGb//wBm//8AZv//AGb//wBm//8AZv//AGb//wBm//8AZv//AGb//wBm//8AZv//AGb//wBm//8AZv//AGb//wBm//8AZv//AGb//wBm//8AZv//AGb//wBm//8AZv//AGb//wBm//8AZv//AGb//wBm/+AAZ//HAGf/xwBn/08AZ/9PAGb/nABm//8AZv//AGb//wBm//8AZv//AGb//wBm//8AZv//AGb//wBm//8AZv//AGb//wBm//8AZv//AGb//wBm//8AZv//AGb//wBm//8AZv//AGb//wBm//8AZv//AGb//wBm//8AZv//AGb//wBm//8AZv//AGb//wBm//8AZv//AGb//wBm//8AZv//AGb//wBm//8AZv//AGb//wBm//8AZv//AGb//wBm//8AZv//AGb//wBm//8AZv//AGb//wBm//8AZv//AGb//wBm//8AZv//AGb//wBm//8AZv//AGb//wBm//8AZv/gAGf/xwBn/8cAZ/9PAGf/TwBm/5wAZv//AGb//wBm//8AZv//AGb//wBm//8AZv//AGb//wBm//8AZv//AGb//wBm//8AZv//AGb//wBm//8AZv//AGb//wBm//8AZv//AGb//wBm//8AZv//AGb//wBm//8AZv//AGb//wBm//8AZv//AGb//wBm//8AZv//AGb//wBm//8AZv//AGb//wBm//8AZv//AGb//wBm//8AZv//AGb//wBm//8AZv//AGb//wBm//8AZv//AGb//wBm//8AZv//AGb//wBm//8AZv//AGb//wBm//8AZv//AGb//wBm//8AZv//AGb/4ABn/8cAZ//HAGf/TwBn/08AZv+cAGb//wBm//8AZv//AGb//wBm//8AZv//AGb//wBm//8AZv//AGb//wBm//8AZv//AGb//wBm//8AZv//AGb//wBm//8AZv//AGb//wBm//8AZv//AGb//wBm//8AZv//AGb//wBm//8AZv//AGb//wBm//8AZv//AGb//wBm//8AZv//AGb//wBm//8AZv//AGb//wBm//8AZv//AGb//wBm//8AZv//AGb//wBm//8AZv//AGb//wBm//8AZv//AGb//wBm//8AZv//AGb//wBm//8AZv//AGb//wBm//8AZv//AGb//wBm/+AAZ//HAGf/xwBn/08AZ/9PAGb/nABm//8AZv//AGb//wBm//8AZv//AGb//wBm//8AZv//AGb//wBm//8AZv//AGb//wBm//8AZv//AGb//wBm//8AZv//AGb//wBm//8AZv//AGb//wBm//8AZv//AGb//wBm//8AZv//AGb//wBm//8AZv//AGb//wBm//8AZv//AGb//wBm//8AZv//AGb//wBm//8AZv//AGb//wBm//8AZv//AGb//wBm//8AZv//AGb//wBm//8AZv//AGb//wBm//8AZv//AGb//wBm//8AZv//AGb//wBm//8AZv//AGb//wBm//8AZv/gAGf/xwBn/8cAZ/9PAGf/TwBm/5wAZv//AGb//wBm//8AZv//AGb//wBm//8AZv//AGb//wBm//8AZv//AGb//wBm//8AZv//AGb//wBm//8AZv//AGb//wBm//8AZv//AGb//wBm//8AZv//AGb//wBm//8AZv//AGb//wBm//8AZv//AGb//wBm//8AZv//AGb//wBm//8AZv//AGb//wBm//8AZv//AGb//wBm//8AZv//AGb//wBm//8AZv//AGb//wBm//8AZv//AGb//wBm//8AZv//AGb//wBm//8AZv//AGb//wBm//8AZv//AGb//wBm//8AZv//AGb/3ABm/8EAZv/BAGf/TwBn/08AZv+cAGb//wBm//8AZv//AGb//wBm//8AZv//AGb//wBm//8AZv//AGb//wBm//8AZv//AGb//wBm//8AZv//AGb//wBm//8AZv//AGb//wBm//8AZv//AGb//wBm//8AZv//AGb//wBm//8AZv//AGb//wBm//8AZv//AGb//wBm//8AZv//AGb//wBm//8AZv//AGb//wBm//8AZv//AGb//wBm//8AZv//AGb//wBm//8AZv//AGb//wBm//8AZv//AGb//wBm//8AZv//AGb//wBm//8AZv//AGb//wBm//8AZv//AGb//wBm/9sAZf+/AGX/vwBn/08AZ/9PAGb/nABm//8AZv//AGb//wBm//8AZv//AGb//wBm//8AZv//AGb//wBm//8AZv//AGb//wBm//oAZv/3AGb/9gBm//EAZv/xAGb/8QBm//IAZv/yAGb/+wBm//wAZv/9AGb//wBm//8AZv//AGb//wBm//8AZv//AGb//wBm//8AZv//AGb//wBm//8AZv//AGb//ABm//oAZv/6AGb/8QBm//EAZv/xAGb/8QBm//EAZv/xAGb/8QBm//EAZv/xAGb/8QBm//EAZv/xAGb/8QBm//EAZv/xAGb/8QBm//EAZv/xAGb/8QBm//EAZv/JAGb/qgBm/6oAZ/9PAGf/TwBm/5wAZv//AGb//wBm//8AZv//AGb//wBm//8AZv//AGb//wBm//8AZv//AGb//wBm//8AZv/eAGf/zABm/8kAZv+qAGb/qgBm/6sAZf+rAGX/qwBm/+cAZv/qAGb/8gBm//8AZv//AGb//wBm//8AZv//AGb//wBm//8AZv//AGb//wBm//8AZv//AGb//wBm/+wAZv/fAGb/3QBm/6oAZv+qAGb/qgBm/6oAZv+qAGb/qgBm/6oAZv+qAGb/qgBm/6oAZv+qAGb/qgBm/6oAZv+qAGb/qgBm/6oAZv+qAGb/qQBm/6UAZv+lAGb/aQBn/zkAZ/85AGf/TwBn/08AZv+cAGb//wBm//8AZv//AGb//wBm//8AZv//AGb//wBm//8AZv//AGb//wBm//8AZv//AGb/3gBn/8wAZv/JAGb/qgBm/6oAZv+rAGX/qwBl/6sAZv/nAGb/6gBm//IAZv//AGb//wBm//8AZv//AGb//wBm//8AZv//AGb//wBm//8AZv//AGb//wBm//8AZv/sAGb/3wBm/90AZv+qAGb/qgBm/6oAZv+qAGb/qgBm/6oAZv+qAGb/qgBm/6oAZv+qAGb/qgBm/6oAZv+qAGb/qgBm/6oAZv+qAGb/qgBm/6kAZv+lAGb/pQBm/2kAZ/85AGf/OQBn/08AZ/9PAGb/nABm//8AZv//AGb//wBm//8AZv//AGb//wBm//8AZv//AGb//wBm//sAZv/pAGb/6QBm/4kAZ/9TAGf/UgBm/0QAZv9EAGb/RABl/0QAZf9EAGf/ewBn/30AZv+xAGb//wBm//8AZv//AGb//wBm//8AZv//AGb//wBm//8AZv//AGb//wBm//4AZv/+AGb/pABm/2gAZv9mAGb/RABm/0QAZv9EAGb/RABm/0QAZv9EAGb/RABm/0QAZv9EAGb/RABm/0QAZv9EAGb/RABm/0QAZv9EAGb/RABm/0QAZv9EAGb/QgBm/0IAZv8qAGf/FwBn/xcAZ/9PAGf/TwBm/5wAZv//AGb//wBm//8AZv//AGb//wBm//8AZv//AGb//wBm//8AZv/4AGb/2gBm/9oAZv9QAID/AgCA/wIAAAAAAAAAAAAAAAAAAAAAAAAAAABn/zIAZ/80AGb/hQBm//8AZv//AGb//wBm//8AZv//AGb//wBm//8AZv//AGb//wBm//8AZv/+AGb//gBn/3QAav8YAGr/FwAAAAAAAAAAAAAAAAAAAAAAAAAAAAAAAAAAAAAAAAAAAAAAAAAAAAAAAAAAAAAAAAAAAAAAAAAAAAAAAAAAAAAAAAAAAAAAAAAAAAAAAAAAAAAAAAAAAAAAAAAAAGf/TwBn/08AZv+cAGb//wBm//8AZv//AGb//wBm//8AZv//AGb//wBm//8AZv//AGb/9wBm/9kAZv/ZAGb/TwCA/wIAgP8CAAAAAAAAAAAAAAAAAAAAAAAAAAAAZ/8xAGf/MwBm/4QAZv//AGb//wBm//8AZv//AGb//wBm//8AZv//AGb//wBm//8AZv//AGb//gBm//4AZ/9zAGr/FwBq/xYAAAAAAAAAAAAAAAAAAAAAAAAAAAAAAAAAAAAAAAAAAAAAAAAAAAAAAAAAAAAAAAAAAAAAAAAAAAAAAAAAAAAAAAAAAAAAAAAAAAAAAAAAAAAAAAAAAAAAAAAAAABn/08AZ/9PAGb/nABm//8AZv//AGb//wBm//8AZv//AGb//wBm//8AZv//AGb//wBm//IAZv/AAGb/wABm/0UAAAAAAAAAAAAAAAAAAAAAAAAAAAAAAAAAAAAAAGj/FQBo/xYAZv9zAGb//wBm//8AZv//AGb//wBm//8AZv//AGb//wBm//8AZv//AGb//gBm//kAZv/5AGb/ZAAAAAAAAAAAAAAAAAAAAAAAAAAAAAAAAAAAAAAAAAAAAAAAAAAAAAAAAAAAAAAAAAAAAAAAAAAAAAAAAAAAAAAAAAAAAAAAAAAAAAAAAAAAAAAAAAAAAAAAAAAAAAAAAAAAAAAAZ/9PAGf/TwBm/5wAZv//AGb//wBm//8AZv//AGb//wBm//8AZv//AGb//wBm//8AZv/yAGb/wABm/8AAZv9FAAAAAAAAAAAAAAAAAAAAAAAAAAAAAAAAAAAAAABo/xUAaP8WAGb/cwBm//8AZv//AGb//wBm//8AZv//AGb//wBm//8AZv//AGb//wBm//4AZv/5AGb/+QBm/2QAAAAAAAAAAAAAAAAAAAAAAAAAAAAAAAAAAAAAAAAAAAAAAAAAAAAAAAAAAAAAAAAAAAAAAAAAAAAAAAAAAAAAAAAAAAAAAAAAAAAAAAAAAAAAAAAAAAAAAAAAAAAAAAAAAAAAAGf/TwBn/08AZv+cAGb//wBm//8AZv//AGb//wBm//8AZv//AGb//wBm//8AZv//AGb/8gBm/8AAZv/AAGb/RQAAAAAAAAAAAAAAAAAAAAAAAAAAAAAAAAAAAAAAaP8VAGj/FgBm/3MAZv//AGb//wBm//8AZv//AGb//wBm//8AZv//AGb//wBm//8AZv/+AGb/+QBm//kAZv9kAAAAAAAAAAAAAAAAAAAAAAAAAAAAAAAAAAAAAAAAAAAAAAAAAAAAAAAAAAAAAAAAAAAAAAAAAAAAAAAAAAAAAAAAAAAAAAAAAAAAAAAAAAAAAAAAAAAAAAAAAAAAAAAAAAAAAABn/08AZ/9PAGb/nABm//8AZv//AGb//wBm//8AZv//AGb//wBm//8AZv//AGb//wBm//IAZv/AAGb/wABm/0UAAAAAAAAAAAAAAAAAAAAAAAAAAAAAAAAAAAAAAGj/FQBo/xYAZv9zAGb//wBm//8AZv//AGb//wBm//8AZv//AGb//wBm//8AZv//AGb//gBm//kAZv/5AGb/ZAAAAAAAAAAAAAAAAAAAAAAAAAAAAAAAAAAAAAAAAAAAAAAAAAAAAAAAAAAAAAAAAAAAAAAAAAAAAAAAAAAAAAAAAAAAAAAAAAAAAAAAAAAAAAAAAAAAAAAAAAAAAAAAAAAAAAAAZ/9PAGf/TwBm/5wAZv//AGb//wBm//8AZv//AGb//wBm//8AZv//AGb//wBm//8AZv/yAGb/wABm/8AAZv9FAAAAAAAAAAAAAAAAAAAAAAAAAAAAAAAAAAAAAABo/xUAaP8WAGb/cwBm//8AZv//AGb//wBm//8AZv//AGb//wBm//8AZv//AGb//wBm//4AZv/5AGb/+QBm/2QAAAAAAAAAAAAAAAAAAAAAAAAAAAAAAAAAAAAAAAAAAAAAAAAAAAAAAAAAAAAAAAAAAAAAAAAAAAAAAAAAAAAAAAAAAAAAAAAAAAAAAAAAAAAAAAAAAAAAAAAAAAAAAAAAAAAAAGf/TwBn/08AZv+cAGb//wBm//8AZv//AGb//wBm//8AZv//AGb//wBm//8AZv//AGb/8gBm/8AAZv/AAGb/RQAAAAAAAAAAAAAAAAAAAAAAAAAAAAAAAAAAAAAAaP8VAGj/FgBm/3MAZv//AGb//wBm//8AZv//AGb//wBm//8AZv//AGb//wBm//8AZv/+AGb/+QBm//kAZv9kAAAAAAAAAAAAAAAAAAAAAAAAAAAAAAAAAAAAAAAAAAAAAAAAAAAAAAAAAAAAAAAAAAAAAAAAAAAAAAAAAAAAAAAAAAAAAAAAAAAAAAAAAAAAAAAAAAAAAAAAAAAAAAAAAAAAAABn/08AZ/9PAGb/nABm//8AZv//AGb//wBm//8AZv//AGb//wBm//8AZv//AGb//wBm//IAZv/AAGb/wABm/0UAAAAAAAAAAAAAAAAAAAAAAAAAAAAAAAAAAAAAAGj/FQBo/xYAZv9zAGb//wBm//8AZv//AGb//wBm//8AZv//AGb//wBm//8AZv//AGb//gBm//kAZv/5AGb/ZAAAAAAAAAAAAAAAAAAAAAAAAAAAAAAAAAAAAAAAAAAAAAAAAAAAAAAAAAAAAAAAAAAAAAAAAAAAAAAAAAAAAAAAAAAAAAAAAAAAAAAAAAAAAAAAAAAAAAAAAAAAAAAAAAAAAAAAZ/9PAGf/TwBm/5wAZv//AGb//wBm//8AZv//AGb//wBm//8AZv//AGb//wBm//8AZv/yAGb/wABm/8AAZv9FAAAAAAAAAAAAAAAAAAAAAAAAAAAAAAAAAAAAAABo/xUAaP8WAGb/cwBm//8AZv//AGb//wBm//8AZv//AGb//wBm//8AZv//AGb//wBm//4AZv/5AGb/+QBm/2QAAAAAAAAAAAAAAAAAAAAAAAAAAAAAAAAAAAAAAAAAAAAAAAAAAAAAAAAAAAAAAAAAAAAAAAAAAAAAAAAAAAAAAAAAAAAAAAAAAAAAAAAAAAAAAAAAAAAAAAAAAAAAAAAAAAAAAGf/TwBn/08AZv+cAGb//wBm//8AZv//AGb//wBm//8AZv//AGb//wBm//8AZv//AGb/8gBm/8AAZv/AAGb/RQAAAAAAAAAAAAAAAAAAAAAAAAAAAAAAAAAAAAAAaP8VAGj/FgBm/3MAZv//AGb//wBm//8AZv//AGb//wBm//8AZv//AGb//wBm//8AZv/+AGb/+QBm//kAZv9kAAAAAAAAAAAAAAAAAAAAAAAAAAAAAAAAAAAAAAAAAAAAAAAAAAAAAAAAAAAAAAAAAAAAAAAAAAAAAAAAAAAAAAAAAAAAAAAAAAAAAAAAAAAAAAAAAAAAAAAAAAAAAAAAAAAAAABn/08AZ/9PAGb/nABm//8AZv//AGb//wBm//8AZv//AGb//wBm//8AZv//AGb//wBm//IAZv/AAGb/wABm/0UAAAAAAAAAAAAAAAAAAAAAAAAAAAAAAAAAAAAAAGj/FQBo/xYAZv9zAGb//wBm//8AZv//AGb//wBm//8AZv//AGb//wBm//8AZv//AGb//gBm//kAZv/5AGb/ZAAAAAAAAAAAAAAAAAAAAAAAAAAAAAAAAAAAAAAAAAAAAAAAAAAAAAAAAAAAAAAAAAAAAAAAAAAAAAAAAAAAAAAAAAAAAAAAAAAAAAAAAAAAAAAAAAAAAAAAAAAAAAAAAAAAAAAAZ/9PAGf/TwBm/5wAZv//AGb//wBm//8AZv//AGb//wBm//8AZv//AGb//wBm//8AZv/yAGb/wABm/8AAZv9FAAAAAAAAAAAAAAAAAAAAAAAAAAAAAAAAAAAAAABo/xUAaP8WAGb/cwBm//8AZv//AGb//wBm//8AZv//AGb//wBm//8AZv//AGb//wBm//4AZv/5AGb/+QBm/2QAAAAAAAAAAAAAAAAAAAAAAAAAAAAAAAAAAAAAAAAAAAAAAAAAAAAAAAAAAAAAAAAAAAAAAAAAAAAAAAAAAAAAAAAAAAAAAAAAAAAAAAAAAAAAAAAAAAAAAAAAAAAAAAAAAAAAAGf/TwBn/08AZv+cAGb//wBm//8AZv//AGb//wBm//8AZv//AGb//wBm//8AZv//AGb/8gBm/8AAZv/AAGb/RQAAAAAAAAAAAAAAAAAAAAAAAAAAAAAAAAAAAAAAaP8VAGj/FgBm/3MAZv//AGb//wBm//8AZv//AGb//wBm//8AZv//AGb//wBm//8AZv/+AGb/+QBm//kAZv9kAAAAAAAAAAAAAAAAAAAAAAAAAAAAAAAAAAAAAAAAAAAAAAAAAAAAAAAAAAAAAAAAAAAAAAAAAAAAAAAAAAAAAAAAAAAAAAAAAAAAAAAAAAAAAAAAAAAAAAAAAAAAAAAAAAAAAABn/08AZ/9PAGb/nABm//8AZv//AGb//wBm//8AZv//AGb//wBm//8AZv//AGb//wBm//IAZv/AAGb/wABm/0UAAAAAAAAAAAAAAAAAAAAAAAAAAAAAAAAAAAAAAGj/FQBo/xYAZv9zAGb//wBm//8AZv//AGb//wBm//8AZv//AGb//wBm//8AZv//AGb//gBm//kAZv/5AGb/ZAAAAAAAAAAAAAAAAAAAAAAAAAAAAAAAAAAAAAAAAAAAAAAAAAAAAAAAAAAAAAAAAAAAAAAAAAAAAAAAAAAAAAAAAAAAAAAAAAAAAAAAAAAAAAAAAAAAAAAAAAAAAAAAAAAAAAAAZ/9PAGf/TwBm/5wAZv//AGb//wBm//8AZv//AGb//wBm//8AZv//AGb//wBm//8AZv/yAGb/wABm/8AAZv9FAAAAAAAAAAAAAAAAAAAAAAAAAAAAAAAAAAAAAABo/xUAaP8WAGb/cwBm//8AZv//AGb//wBm//8AZv//AGb//wBm//8AZv//AGb//wBm//4AZv/5AGb/+QBm/2QAAAAAAAAAAAAAAAAAAAAAAAAAAAAAAAAAAAAAAAAAAAAAAAAAAAAAAAAAAAAAAAAAAAAAAAAAAAAAAAAAAAAAAAAAAAAAAAAAAAAAAAAAAAAAAAAAAAAAAAAAAAAAAAAAAAAAAGf/TwBn/08AZv+cAGb//wBm//8AZv//AGb//wBm//8AZv//AGb//wBm//8AZv//AGb/8gBm/8AAZv/AAGb/RQAAAAAAAAAAAAAAAAAAAAAAAAAAAAAAAAAAAAAAaP8VAGj/FgBm/3MAZv//AGb//wBm//8AZv//AGb//wBm//8AZv//AGb//wBm//8AZv/+AGb/+QBm//kAZv9kAAAAAAAAAAAAAAAAAAAAAAAAAAAAAAAAAAAAAAAAAAAAAAAAAAAAAAAAAAAAAAAAAAAAAAAAAAAAAAAAAAAAAAAAAAAAAAAAAAAAAAAAAAAAAAAAAAAAAAAAAAAAAAAAAAAAAABn/08AZ/9PAGb/nABm//8AZv//AGb//wBm//8AZv//AGb//wBm//8AZv//AGb//wBm//IAZv/AAGb/wABm/0UAAAAAAAAAAAAAAAAAAAAAAAAAAAAAAAAAAAAAAGj/FQBo/xYAZv9zAGb//wBm//8AZv//AGb//wBm//8AZv//AGb//wBm//8AZv//AGb//gBm//kAZv/5AGb/ZAAAAAAAAAAAAAAAAAAAAAAAAAAAAAAAAAAAAAAAAAAAAAAAAAAAAAAAAAAAAAAAAAAAAAAAAAAAAAAAAAAAAAAAAAAAAAAAAAAAAAAAAAAAAAAAAAAAAAAAAAAAAAAAAAAAAAAAZ/9PAGf/TwBm/5wAZv//AGb//wBm//8AZv//AGb//wBm//8AZv//AGb//wBm//8AZv/yAGb/wABm/8AAZv9FAAAAAAAAAAAAAAAAAAAAAAAAAAAAAAAAAAAAAABo/xUAaP8WAGb/cwBm//8AZv//AGb//wBm//8AZv//AGb//wBm//8AZv//AGb//wBm//4AZv/5AGb/+QBm/2QAAAAAAAAAAAAAAAAAAAAAAAAAAAAAAAAAAAAAAAAAAAAAAAAAAAAAAAAAAAAAAAAAAAAAAAAAAAAAAAAAAAAAAAAAAAAAAAAAAAAAAAAAAAAAAAAAAAAAAAAAAAAAAAAAAAAAAGf/TwBn/08AZv+cAGb//wBm//8AZv//AGb//wBm//8AZv//AGb//wBm//8AZv//AGb/8gBm/8AAZv/AAGb/RQAAAAAAAAAAAAAAAAAAAAAAAAAAAAAAAAAAAAAAZ/8VAGf/FgBm/3MAZv//AGb//wBm//8AZv//AGb//wBm//8AZv//AGb//wBm//8AZv/+AGb/+QBm//kAZv9kAAAAAAAAAAAAAAAAAAAAAAAAAAAAAAAAAAAAAAAAAAAAAAAAAAAAAAAAAAAAAAAAAAAAAAAAAAAAAAAAAAAAAAAAAAAAAAAAAAAAAAAAAAAAAAAAAAAAAAAAAAAAAAAAAAAAAABl/04AZf9OAGb/nABm//8AZv//AGb//wBm//8AZv//AGb//wBm//8AZv//AGb//wBm//IAZf+/AGX/vwBl/0UAAAAAAAAAAAAAAAAAAAAAAAAAAAAAAAAAAAAAAGH/FABh/xUAZf9zAGb//wBm//8AZv//AGb//wBm//8AZv//AGb//wBm//8AZv//AGb//gBm//gAZv/4AGb/YwAAAAAAAAAAAAAAAAAAAAAAAAAAAAAAAAAAAAAAAAAAAAAAAAAAAAAAAAAAAAAAAAAAAAAAAAAAAAAAAAAAAAAAAAAAAAAAAAAAAAAAAAAAAAAAAAAAAAAAAAAAAAAAAAAAAAAAZf9OAGX/TgBm/5wAZv//AGb//wBm//8AZv//AGb//wBm//8AZv//AGb//wBm//8AZv/yAGX/vwBl/78AZf9FAAAAAAAAAAAAAAAAAAAAAAAAAAAAAAAAAAAAAABh/xQAYf8VAGX/cwBm//8AZv//AGb//wBm//8AZv//AGb//wBm//8AZv//AGb//wBm//4AZv/4AGb/+ABm/2MAAAAAAAAAAAAAAAAAAAAAAAAAAAAAAAAAAAAAAAAAAAAAAAAAAAAAAAAAAAAAAAAAAAAAAAAAAAAAAAAAAAAAAAAAAAAAAAAAAAAAAAAAAAAAAAAAAAAAAAAAAAAAAAAAAAAAAGb/MABm/zAAZv+DAGb/7QBm/+0AZv/9AGb//wBm//8AZv//AGb//wBm//0AZv/8AGb/5wBl/5IAZf+SAGX/NQAAAAAAAAAAAAAAAAAAAAAAAAAAAAAAAAAAAAAAXP8JAFz/CgBl/10AZv/bAGb/2wBm//kAZv//AGb//wBm//8AZv//AGb//wBm//4AZv/2AGb/yQBm/8kAZv9QAAAAAAAAAAAAAAAAAAAAAAAAAAAAAAAAAAAAAAAAAAAAAAAAAAAAAAAAAAAAAAAAAAAAAAAAAAAAAAAAAAAAAAAAAAAAAAAAAAAAAAAAAAAAAAAAAAAAAAAAAAAAAAAAAAAAAABm/xkAZv8ZAGb/cABm/98AZv/fAGb/+wBm//8AZv//AGb//wBm//8AZv/7AGb/+gBm/94AZf9vAGX/bwBl/ygAAAAAAAAAAAAAAAAAAAAAAAAAAAAAAAAAAAAAAAD/AQAA/wEAZf9NAGb/vgBm/74AZv/1AGb//wBm//8AZv//AGb//wBm//4AZv/+AGb/8ABn/6QAZ/+kAGf/QgAAAAAAAAAAAAAAAAAAAAAAAAAAAAAAAAAAAAAAAAAAAAAAAAAAAAAAAAAAAAAAAAAAAAAAAAAAAAAAAAAAAAAAAAAAAAAAAAAAAAAAAAAAAAAAAAAAAAAAAAAAAAAAAAAAAAAAZv8ZAGb/GQBm/3AAZv/fAGb/3wBm//sAZv//AGb//wBm//8AZv//AGb/+wBm//oAZv/eAGX/bwBl/28AZf8oAAAAAAAAAAAAAAAAAAAAAAAAAAAAAAAAAAAAAAAA/wEAAP8BAGX/TQBm/74AZv++AGb/9QBm//8AZv//AGb//wBm//8AZv/+AGb//gBm//AAZ/+kAGf/pABn/0IAAAAAAAAAAAAAAAAAAAAAAAAAAAAAAAAAAAAAAAAAAAAAAAAAAAAAAAAAAAAAAAAAAAAAAAAAAAAAAAAAAAAAAAAAAAAAAAAAAAAAAAAAAAAAAAAAAAAAAAAAAAAAAAAAAAAAAAAAAAAAAAAAAAAAAAAAAAAAAAAAAAAAAAAAAAAAAAAAAAAAAAAAAAAAAAAAAAAAAAAAAAAAAAAAAAAAAAAAAAAAAAAAAAAAAAAAAAAAAAAAAAAAAAAAAAAAAAAAAAAAAAAAAAAAAAAAAAAAAH8AAAAAAAAAfwAAAAAAAAB/AAAAAAAAAH/gAAAAAAAAf+AAAAAAAAB/4AAAAAAAAH/gAAAAAAAAfwAAAAAAAAB/AAAAAAAAAH8AAAAAAAAAAAAAAAAAAAAAAAAAAAAAAAAAAAAAAAAAAAAAAAAAAAAAAAAAAAAAAAAAAAAAAAAAAAAAAAAAAAAAAAAAAAAAAAAAAAAAAAAAAAAAAAAAAAAAAAAAAAAAAAAAAAAAAAAAAAAAAAAAAAAAAAAAAAAAAAAAAAAAAAAAAAAAAAA+AAB///8AAD4AAH///wAA/gAB////AAD+AAH///8AAP4AAf///wAA/gAB////AAD+AAH///8AAP4AAf///wAA/gAB////AAD+AAH///8AAP4AAf///wAA/gAB////AAD+AAH///8AAP4AAf///wAA/gAB////AAD+AAH///8AAP4AAf///wAA/gAB////AAD+AAH///8AAP4AAf///wAA/gAB////AAD+AAH///8AAP4AAf///wAA/gAB////AAD+AAH///8oAAAAMAAAAGAAAAABACAAAAAAAAAkAADDDgAAww4AAAAAAAAAAAAAAGb/PABm/08AZv/8AGb//wBm//8AZv//AGb//wBm//8AZv//AGb//wBm//8AZv//AGb//wBm//8AZv//AGb//wBm//8AZv//AGb//wBm//8AZv//AGb//wBm//8AZv//AGb//wBm//8AZv//AGb//wBm//8AZv//AGb//wBm//8AZv//AGb//wBm//8AZv//AGb//wBm//8AZv//AGb//wBm//8AZv//AGb//wBm//8AZv//AGb//gBm/7sAZv+0AGb/PgBm/1AAZv/8AGb//wBm//8AZv//AGb//wBm//8AZv//AGb//wBm//8AZv//AGb//wBm//8AZv//AGb//wBm//8AZv//AGb//wBm//8AZv//AGb//wBm//8AZv//AGb//wBm//8AZv//AGb//wBm//8AZv//AGb//wBm//8AZv//AGb//wBm//8AZv//AGb//wBm//8AZv//AGb//wBm//8AZv//AGb//wBm//8AZv//AGb//gBm/70AZv+2AGf/TwBn/18AZv/8AGb//wBm//8AZv//AGb//wBm//8AZv//AGb//wBm//8AZv//AGb//wBm//8AZv//AGb//wBm//8AZv//AGb//wBm//8AZv//AGb//wBm//8AZv//AGb//wBm//8AZv//AGb//wBm//8AZv//AGb//wBm//8AZv//AGb//wBm//8AZv//AGb//wBm//8AZv//AGb//wBm//8AZv//AGb//wBm//8AZv//AGb//gBm/8wAZ//HAGf/TwBn/2AAZv/8AGb//wBm//8AZv//AGb//wBm//8AZv//AGb//wBm//8AZv//AGb//wBm//8AZv//AGb//wBm//8AZv//AGb//wBm//8AZv//AGb//wBm//8AZv//AGb//wBm//8AZv//AGb//wBm//8AZv//AGb//wBm//8AZv//AGb//wBm//8AZv//AGb//wBm//8AZv//AGb//wBm//8AZv//AGb//wBm//8AZv//AGb//gBm/8wAZ//HAGf/TwBn/2AAZv/8AGb//wBm//8AZv//AGb//wBm//8AZv//AGb//wBm//8AZv//AGb//wBm//8AZv//AGb//wBm//8AZv//AGb//wBm//8AZv//AGb//wBm//8AZv//AGb//wBm//8AZv//AGb//wBm//8AZv//AGb//wBm//8AZv//AGb//wBm//8AZv//AGb//wBm//8AZv//AGb//wBm//8AZv//AGb//wBm//8AZv//AGb//gBm/8wAZ//HAGf/TwBn/2AAZv/8AGb//wBm//8AZv//AGb//wBm//8AZv//AGb//wBm//8AZv//AGb//wBm//8AZv//AGb//wBm//8AZv//AGb//wBm//8AZv//AGb//wBm//8AZv//AGb//wBm//8AZv//AGb//wBm//8AZv//AGb//wBm//8AZv//AGb//wBm//8AZv//AGb//wBm//8AZv//AGb//wBm//8AZv//AGb//wBm//8AZv//AGb//gBm/8wAZ//HAGf/TwBn/2AAZv/8AGb//wBm//8AZv//AGb//wBm//8AZv//AGb//wBm//8AZv//AGb//wBm//8AZv//AGb//wBm//8AZv//AGb//wBm//8AZv//AGb//wBm//8AZv//AGb//wBm//8AZv//AGb//wBm//8AZv//AGb//wBm//8AZv//AGb//wBm//8AZv//AGb//wBm//8AZv//AGb//wBm//8AZv//AGb//wBm//8AZv//AGb//gBm/8wAZ//HAGf/TwBn/2AAZv/8AGb//wBm//8AZv//AGb//wBm//8AZv//AGb//wBm//8AZv//AGb//wBm//8AZv//AGb//wBm//8AZv//AGb//wBm//8AZv//AGb//wBm//8AZv//AGb//wBm//8AZv//AGb//wBm//4AZv/6AGb/9QBm/+oAZv/qAGb/6QBm/+kAZv/pAGb/8QBm//gAZv/8AGb//wBm//8AZv//AGb//wBm//8AZv//AGb//gBm/8wAZ//HAGf/TwBn/2AAZv/8AGb//wBm//8AZv//AGb//wBm//8AZv//AGb//wBm//8AZv//AGb//wBm//8AZv//AGb//wBm//8AZv//AGb//wBm//8AZv//AGb//wBm//8AZv//AGb//wBm//8AZv//AGb//wBm//wAZv/uAGb/4ABn/70AZv+8AGb/uwBm/7sAZv+7AGb/0gBm/+gAZv/2AGb//wBm//8AZv//AGb//wBm//8AZv//AGb//gBm/8wAZ//HAGf/TwBn/2AAZv/8AGb//wBm//8AZv//AGb//wBm//8AZv//AGb//wBm//8AZv//AGb//wBm//8AZv//AGb//wBm//8AZv//AGb//wBm//8AZv//AGb//wBm//8AZv//AGb//wBm//8AZv//AGb//wBm/+wAZv+hAGb/lABn/3EAZv9xAGb/cABm/3AAZv9wAGb/gwBm/5QAZv/SAGb//ABm//4AZv//AGb//wBm//8AZv//AGb//gBm/8wAZ//HAGf/TwBn/2AAZv/8AGb//wBm//8AZv//AGb//wBm//8AZv//AGb//wBm//8AZv//AGb//wBm//8AZv//AGb//wBm//8AZv//AGb//wBm//8AZv//AGb//wBm//8AZv//AGb//wBm//8AZv//AGb//wBm/9UAZv8tAGb/IAAAAAAAAAAAAAAAAAAAAAAAAAAAAGH/CwBh/xUAZv+dAGb/+ABm//0AZv//AGb//wBm//8AZv//AGb//gBm/8wAZ//HAGf/TwBn/2AAZv/8AGb//wBm//8AZv//AGb//wBm//8AZv//AGb//wBm//8AZv//AGb//wBm//8AZv//AGb//wBm//8AZv//AGb//wBm//8AZv//AGb//wBm//8AZv//AGb//wBm//8AZv//AGb//wBm/9EAZf8bAGX/FAAAAAAAAAAAAAAAAAAAAAAAAAAAAGH/BgBh/wsAZv+UAGb/8ABm//oAZv//AGb//wBm//8AZv//AGb//gBm/8wAZ//HAGf/TwBn/2AAZv/8AGb//wBm//8AZv//AGb//wBm//8AZv//AGb//wBm//8AZv//AGb//wBm//8AZv//AGb//wBm//8AZv//AGb//wBm//8AZv//AGb//wBm//8AZv//AGb//wBm//8AZv//AGb//wBm/84AYP8IAGD/BgAAAAAAAAAAAAAAAAAAAAAAAAAAAAAAAAAAAAAAZv+LAGb/5wBm//cAZv//AGb//wBm//8AZv//AGb//gBm/8wAZ//HAGf/TwBn/2AAZv/8AGb//wBm//8AZv//AGb//wBm//8AZv//AGb//wBm//8AZv//AGb//wBm//8AZv//AGb//wBm//8AZv//AGb//wBm//8AZv//AGb//wBm//8AZv//AGb//wBm//8AZv//AGb//wBm/84AYP8IAGD/BgAAAAAAAAAAAAAAAAAAAAAAAAAAAAAAAAAAAAAAZv+LAGb/5wBm//cAZv//AGb//wBm//8AZv//AGb//gBm/8wAZ//HAGf/TwBn/2AAZv/8AGb//wBm//8AZv//AGb//wBm//8AZv//AGb//wBm//8AZv//AGb//wBm//8AZv//AGb//wBm//8AZv//AGb//wBm//8AZv//AGb//wBm//8AZv//AGb//wBm//8AZv//AGb//wBm/84AYP8IAGD/BgAAAAAAAAAAAAAAAAAAAAAAAAAAAAAAAAAAAAAAZv+LAGb/5wBm//cAZv//AGb//wBm//8AZv//AGb//gBm/8wAZ//HAGf/TwBn/2AAZv/8AGb//wBm//8AZv//AGb//wBm//8AZv//AGb//wBm//8AZv//AGb//wBm//8AZv//AGb//wBm//8AZv//AGb//wBm//8AZv//AGb//wBm//8AZv//AGb//wBm//8AZv//AGb//wBm/88AYP8NAGD/CQAAAAAAAAAAAAAAAAAAAAAAAAAAAAD/AAAA/wEAZv+OAGb/7ABm//kAZv//AGb//wBm//8AZv//AGb//gBm/8wAZ//HAGf/TwBn/2AAZv/8AGb//wBm//8AZv//AGb//wBm//8AZv//AGb//wBm//8AZv//AGb//wBm//8AZv//AGb//wBm//8AZv//AGb//wBm//8AZv//AGb//wBm//8AZv//AGb//wBm//8AZv//AGb//wBm/88AYP8QAGD/DAAAAAAAAAAAAAAAAAAAAAAAAAAAAAD/AQAA/wEAZv+QAGb/7wBm//oAZv//AGb//wBm//8AZv//AGb//gBm/8wAZ//HAGf/TwBn/2AAZv/8AGb//wBm//8AZv//AGb//wBm//8AZv//AGb//wBm//8AZv//AGb//wBm//8AZv//AGb//wBm//8AZv//AGb//wBm//8AZv//AGb//wBm//8AZv//AGb//wBm//8AZv//AGb//wBm/+YAZf+AAGX/bgBl/z8AZv8/AGb/PQBl/z4AZf8+AGb/VwBm/24AZv/CAGb/+wBm//4AZv//AGb//wBm//8AZv//AGb//gBm/8wAZ//HAGf/TwBn/2AAZv/8AGb//wBm//8AZv//AGb//wBm//8AZv//AGb//wBm//8AZv//AGb//wBm//8AZv//AGb//wBm//8AZv//AGb//wBm//8AZv//AGb//wBm//8AZv//AGb//wBm//8AZv//AGb//wBm/+4AZf+rAGX/lABl/1gAZv9XAGb/VQBl/1UAZf9WAGb/eABm/5gAZv/WAGb//wBm//8AZv//AGb//wBm//8AZv//AGb//gBm/8wAZ//HAGf/TwBn/2AAZv/8AGb//wBm//8AZv//AGb//wBm//8AZv//AGb//wBm//8AZv//AGb//wBm//8AZv//AGb//wBm//8AZv//AGb//wBm//8AZv//AGb//wBm//8AZv//AGb//wBm//8AZv//AGb//wBm//wAZv/uAGb/6gBm/94AZv/dAGb/3QBm/90AZv/dAGb/5ABm/+oAZv/3AGb//wBm//8AZv//AGb//wBm//8AZv//AGb//gBm/8wAZ//HAGf/TwBn/2AAZv/8AGb//wBm//8AZv//AGb//wBm//8AZv//AGb//wBm//8AZv//AGb//wBm//8AZv//AGb//wBm//8AZv//AGb//wBm//8AZv//AGb//wBm//8AZv//AGb//wBm//8AZv//AGb//wBm//8AZv//AGb//wBm//8AZv//AGb//wBm//8AZv//AGb//wBm//8AZv//AGb//wBm//8AZv//AGb//wBm//8AZv//AGb//gBm/8wAZ//HAGf/TwBn/2AAZv/8AGb//wBm//8AZv//AGb//wBm//8AZv//AGb//wBm//8AZv//AGb//wBm//8AZv//AGb//wBm//8AZv//AGb//wBm//8AZv//AGb//wBm//8AZv//AGb//wBm//8AZv//AGb//wBm//8AZv//AGb//wBm//8AZv//AGb//wBm//8AZv//AGb//wBm//8AZv//AGb//wBm//8AZv//AGb//wBm//8AZv//AGb//gBm/8wAZ//HAGf/TwBn/2AAZv/8AGb//wBm//8AZv//AGb//wBm//8AZv//AGb//wBm//8AZv//AGb//wBm//8AZv//AGb//wBm//8AZv//AGb//wBm//8AZv//AGb//wBm//8AZv//AGb//wBm//8AZv//AGb//wBm//8AZv//AGb//wBm//8AZv//AGb//wBm//8AZv//AGb//wBm//8AZv//AGb//wBm//8AZv//AGb//wBm//8AZv//AGb//gBm/8wAZ//HAGf/TwBn/2AAZv/8AGb//wBm//8AZv//AGb//wBm//8AZv//AGb//wBm//8AZv//AGb//wBm//8AZv//AGb//wBm//8AZv//AGb//wBm//8AZv//AGb//wBm//8AZv//AGb//wBm//8AZv//AGb//wBm//8AZv//AGb//wBm//8AZv//AGb//wBm//8AZv//AGb//wBm//8AZv//AGb//wBm//8AZv//AGb//wBm//8AZv//AGb//gBm/8wAZ//HAGf/TwBn/2AAZv/8AGb//wBm//8AZv//AGb//wBm//8AZv//AGb//wBm//8AZv//AGb//wBm//8AZv//AGb//wBm//8AZv//AGb//wBm//8AZv//AGb//wBm//8AZv//AGb//wBm//8AZv//AGb//wBm//8AZv//AGb//wBm//8AZv//AGb//wBm//8AZv//AGb//wBm//8AZv//AGb//wBm//8AZv//AGb//wBm//8AZv//AGb//gBm/8wAZv/HAGf/TwBn/2AAZv/8AGb//wBm//8AZv//AGb//wBm//8AZv//AGb//wBm//8AZv//AGb//wBm//8AZv//AGb//wBm//8AZv//AGb//wBm//8AZv//AGb//wBm//8AZv//AGb//wBm//8AZv//AGb//wBm//8AZv//AGb//wBm//8AZv//AGb//wBm//8AZv//AGb//wBm//8AZv//AGb//wBm//8AZv//AGb//wBm//8AZv//AGb//gBm/8UAZf+/AGf/TwBn/2AAZv/8AGb//wBm//8AZv//AGb//wBm//8AZv//AGb//wBm//8AZv/8AGb/+QBm//cAZv/1AGb/9QBm//UAZv/6AGb//ABm//4AZv//AGb//wBm//8AZv//AGb//wBm//8AZv//AGb//wBm//4AZv/7AGb/+QBm//UAZv/1AGb/9QBm//UAZv/1AGb/9QBm//UAZv/1AGb/9QBm//UAZv/1AGb/9QBm//UAZv/0AGb/8wBm/7YAZv+vAGf/TwBn/2AAZv/8AGb//wBm//8AZv//AGb//wBm//8AZv//AGb//wBm//8AZv/nAGf/zABm/7kAZv+qAGb/qwBl/6sAZv/YAGb/6gBm//sAZv//AGb//wBm//8AZv//AGb//wBm//8AZv//AGb//wBm//kAZv/fAGb/0ABm/6oAZv+qAGb/qgBm/6oAZv+qAGb/qgBm/6oAZv+qAGb/qgBm/6oAZv+qAGb/qgBm/6oAZv+mAGb/owBn/0MAZ/85AGf/TwBn/2AAZv/8AGb//wBm//8AZv//AGb//wBm//8AZv//AGb//ABm//gAZv/PAGf/pABm/5QAZv+IAGb/iQBl/4kAZv+1AGb/xgBm//QAZv//AGb//wBm//8AZv//AGb//wBm//8AZv//AGb//wBm//AAZv+3AGb/qgBm/4gAZv+IAGb/iABm/4gAZv+IAGb/iABm/4gAZv+IAGb/iABm/4gAZv+IAGb/iABm/4gAZv+FAGb/gwBn/zYAZ/8uAGf/TwBn/2AAZv/8AGb//wBm//8AZv//AGb//wBm//8AZv//AGb/8ABm/9oAZv9yAID/AgCA/wEAAAAAAAAAAAAAAAAAZ/8lAGf/NABm/9YAZv//AGb//wBm//8AZv//AGb//wBm//8AZv//AGb//gBm/9AAav8YAGr/EQAAAAAAAAAAAAAAAAAAAAAAAAAAAAAAAAAAAAAAAAAAAAAAAAAAAAAAAAAAAAAAAAAAAAAAAAAAAAAAAAAAAAAAAAAAAGf/TwBn/2AAZv/8AGb//wBm//8AZv//AGb//wBm//8AZv//AGb/7QBm/9MAZv9uAID/AQCA/wEAAAAAAAAAAAAAAAAAZ/8fAGf/LABm/9UAZv//AGb//wBm//8AZv//AGb//wBm//8AZv//AGb//QBm/84Aav8RAGr/DAAAAAAAAAAAAAAAAAAAAAAAAAAAAAAAAAAAAAAAAAAAAAAAAAAAAAAAAAAAAAAAAAAAAAAAAAAAAAAAAAAAAAAAAAAAAGf/TwBn/2AAZv/8AGb//wBm//8AZv//AGb//wBm//8AZv//AGb/5gBm/8AAZv9kAAAAAAAAAAAAAAAAAAAAAAAAAAAAaP8QAGj/FgBm/9AAZv//AGb//wBm//8AZv//AGb//wBm//8AZv/+AGb/+QBm/8cAAAAAAAAAAAAAAAAAAAAAAAAAAAAAAAAAAAAAAAAAAAAAAAAAAAAAAAAAAAAAAAAAAAAAAAAAAAAAAAAAAAAAAAAAAAAAAAAAAAAAAGf/TwBn/2AAZv/8AGb//wBm//8AZv//AGb//wBm//8AZv//AGb/5gBm/8AAZv9kAAAAAAAAAAAAAAAAAAAAAAAAAAAAaP8QAGj/FgBm/9AAZv//AGb//wBm//8AZv//AGb//wBm//8AZv/+AGb/+QBm/8cAAAAAAAAAAAAAAAAAAAAAAAAAAAAAAAAAAAAAAAAAAAAAAAAAAAAAAAAAAAAAAAAAAAAAAAAAAAAAAAAAAAAAAAAAAAAAAAAAAAAAAGf/TwBn/2AAZv/8AGb//wBm//8AZv//AGb//wBm//8AZv//AGb/5gBm/8AAZv9kAAAAAAAAAAAAAAAAAAAAAAAAAAAAaP8QAGj/FgBm/9AAZv//AGb//wBm//8AZv//AGb//wBm//8AZv/+AGb/+QBm/8cAAAAAAAAAAAAAAAAAAAAAAAAAAAAAAAAAAAAAAAAAAAAAAAAAAAAAAAAAAAAAAAAAAAAAAAAAAAAAAAAAAAAAAAAAAAAAAAAAAAAAAGf/TwBn/2AAZv/8AGb//wBm//8AZv//AGb//wBm//8AZv//AGb/5gBm/8AAZv9kAAAAAAAAAAAAAAAAAAAAAAAAAAAAaP8QAGj/FgBm/9AAZv//AGb//wBm//8AZv//AGb//wBm//8AZv/+AGb/+QBm/8cAAAAAAAAAAAAAAAAAAAAAAAAAAAAAAAAAAAAAAAAAAAAAAAAAAAAAAAAAAAAAAAAAAAAAAAAAAAAAAAAAAAAAAAAAAAAAAAAAAAAAAGf/TwBn/2AAZv/8AGb//wBm//8AZv//AGb//wBm//8AZv//AGb/5gBm/8AAZv9kAAAAAAAAAAAAAAAAAAAAAAAAAAAAaP8QAGj/FgBm/9AAZv//AGb//wBm//8AZv//AGb//wBm//8AZv/+AGb/+QBm/8cAAAAAAAAAAAAAAAAAAAAAAAAAAAAAAAAAAAAAAAAAAAAAAAAAAAAAAAAAAAAAAAAAAAAAAAAAAAAAAAAAAAAAAAAAAAAAAAAAAAAAAGf/TwBn/2AAZv/8AGb//wBm//8AZv//AGb//wBm//8AZv//AGb/5gBm/8AAZv9kAAAAAAAAAAAAAAAAAAAAAAAAAAAAaP8QAGj/FgBm/9AAZv//AGb//wBm//8AZv//AGb//wBm//8AZv/+AGb/+QBm/8cAAAAAAAAAAAAAAAAAAAAAAAAAAAAAAAAAAAAAAAAAAAAAAAAAAAAAAAAAAAAAAAAAAAAAAAAAAAAAAAAAAAAAAAAAAAAAAAAAAAAAAGf/TwBn/2AAZv/8AGb//wBm//8AZv//AGb//wBm//8AZv//AGb/5gBm/8AAZv9kAAAAAAAAAAAAAAAAAAAAAAAAAAAAaP8QAGj/FgBm/9AAZv//AGb//wBm//8AZv//AGb//wBm//8AZv/+AGb/+QBm/8cAAAAAAAAAAAAAAAAAAAAAAAAAAAAAAAAAAAAAAAAAAAAAAAAAAAAAAAAAAAAAAAAAAAAAAAAAAAAAAAAAAAAAAAAAAAAAAAAAAAAAAGf/TwBn/2AAZv/8AGb//wBm//8AZv//AGb//wBm//8AZv//AGb/5gBm/8AAZv9kAAAAAAAAAAAAAAAAAAAAAAAAAAAAaP8QAGj/FgBm/9AAZv//AGb//wBm//8AZv//AGb//wBm//8AZv/+AGb/+QBm/8cAAAAAAAAAAAAAAAAAAAAAAAAAAAAAAAAAAAAAAAAAAAAAAAAAAAAAAAAAAAAAAAAAAAAAAAAAAAAAAAAAAAAAAAAAAAAAAAAAAAAAAGf/TwBn/2AAZv/8AGb//wBm//8AZv//AGb//wBm//8AZv//AGb/5gBm/8AAZv9kAAAAAAAAAAAAAAAAAAAAAAAAAAAAaP8QAGj/FgBm/9AAZv//AGb//wBm//8AZv//AGb//wBm//8AZv/+AGb/+QBm/8cAAAAAAAAAAAAAAAAAAAAAAAAAAAAAAAAAAAAAAAAAAAAAAAAAAAAAAAAAAAAAAAAAAAAAAAAAAAAAAAAAAAAAAAAAAAAAAAAAAAAAAGf/TwBn/2AAZv/8AGb//wBm//8AZv//AGb//wBm//8AZv//AGb/5gBm/8AAZv9kAAAAAAAAAAAAAAAAAAAAAAAAAAAAaP8QAGj/FgBm/9AAZv//AGb//wBm//8AZv//AGb//wBm//8AZv/+AGb/+QBm/8cAAAAAAAAAAAAAAAAAAAAAAAAAAAAAAAAAAAAAAAAAAAAAAAAAAAAAAAAAAAAAAAAAAAAAAAAAAAAAAAAAAAAAAAAAAAAAAAAAAAAAAGf/TwBn/2AAZv/8AGb//wBm//8AZv//AGb//wBm//8AZv//AGb/5gBm/8AAZv9kAAAAAAAAAAAAAAAAAAAAAAAAAAAAaP8QAGj/FgBm/9AAZv//AGb//wBm//8AZv//AGb//wBm//8AZv/+AGb/+QBm/8cAAAAAAAAAAAAAAAAAAAAAAAAAAAAAAAAAAAAAAAAAAAAAAAAAAAAAAAAAAAAAAAAAAAAAAAAAAAAAAAAAAAAAAAAAAAAAAAAAAAAAAGf/TwBn/2AAZv/8AGb//wBm//8AZv//AGb//wBm//8AZv//AGb/5gBm/8AAZv9kAAAAAAAAAAAAAAAAAAAAAAAAAAAAaP8QAGj/FgBm/9AAZv//AGb//wBm//8AZv//AGb//wBm//8AZv/+AGb/+QBm/8cAAAAAAAAAAAAAAAAAAAAAAAAAAAAAAAAAAAAAAAAAAAAAAAAAAAAAAAAAAAAAAAAAAAAAAAAAAAAAAAAAAAAAAAAAAAAAAAAAAAAAAGf/TwBn/2AAZv/8AGb//wBm//8AZv//AGb//wBm//8AZv//AGb/5gBm/8AAZv9kAAAAAAAAAAAAAAAAAAAAAAAAAAAAaP8QAGj/FgBm/9AAZv//AGb//wBm//8AZv//AGb//wBm//8AZv/+AGb/+QBm/8cAAAAAAAAAAAAAAAAAAAAAAAAAAAAAAAAAAAAAAAAAAAAAAAAAAAAAAAAAAAAAAAAAAAAAAAAAAAAAAAAAAAAAAAAAAAAAAAAAAAAAAGb/TgBm/18AZv/8AGb//wBm//8AZv//AGb//wBm//8AZv//AGb/5QBm/78AZv9jAAAAAAAAAAAAAAAAAAAAAAAAAAAAYv8PAGL/FQBm/9AAZv//AGb//wBm//8AZv//AGb//wBm//8AZv/+AGb/+ABm/8cAAAAAAAAAAAAAAAAAAAAAAAAAAAAAAAAAAAAAAAAAAAAAAAAAAAAAAAAAAAAAAAAAAAAAAAAAAAAAAAAAAAAAAAAAAAAAAAAAAAAAAGX/TQBm/14AZv/8AGb//wBm//8AZv//AGb//wBm//8AZv//AGb/5QBl/74AZf9jAAAAAAAAAAAAAAAAAAAAAAAAAAAAYf8PAGH/FQBm/88AZv/+AGb//wBm//8AZv//AGb//wBm//8AZv/+AGb/9wBm/8UAAAAAAAAAAAAAAAAAAAAAAAAAAAAAAAAAAAAAAAAAAAAAAAAAAAAAAAAAAAAAAAAAAAAAAAAAAAAAAAAAAAAAAAAAAAAAAAAAAAAAAGb/HgBm/zEAZv/fAGb/5wBm//8AZv//AGb//wBm//4AZv/6AGb/xgBl/3cAZf8+AAAAAAAAAAAAAAAAAAAAAAAAAAAAQ/8CAEP/AwBm/54AZv/EAGb/+ABm//8AZv//AGb//wBm//4AZv/0AGf/rABn/4oAAAAAAAAAAAAAAAAAAAAAAAAAAAAAAAAAAAAAAAAAAAAAAAAAAAAAAAAAAAAAAAAAAAAAAAAAAAAAAAAAAAAAAAAAAAAAAAAAAAAAAGb/GQBm/ywAZv/cAGb/5ABm//8AZv//AGb//wBm//0AZv/6AGb/wgBl/28AZf86AAAAAAAAAAAAAAAAAAAAAAAAAAAAAP8BAAD/AQBm/5gAZv++AGb/9wBm//8AZv//AGb//wBm//4AZv/zAGf/pABn/4MAAAAAAAAAAAAAAAAAAAAAAAAAAAAAAAAAAAAAAAAAAAAAAAAAAAAAAAAAAAAAAAAAAAAAAAAAAAAAAAAAAAAAAAAAAAAAAAAAAAAAAAAAAAAAAAAAAAAAAAAAAAAAAAAAAAAAAAAAAAAAAAAAAAAAAAAAAAAAAAAAAAAAAAAAAAAAAAAAAAAAAAAAAAAAAAAAAAAAAAAAAAAAAAAAAAAB8AAAAAAAAAHwAAAAAAAAAfwAAAAAAAAB/AAAAAAAAAH8AAAAAAAAAfAAAAAAAAAB8AAAAAAAAAAAAAAAAAAAAAAAAAAAAAAAAAAAAAAAAAAAAAAAAAAAAAAAAAAAAAAAAAAAAAAAAAAAAAAAAAAAAAAAAAAAAAAAAAAAAAAAAAAAAAAAAAAAAAAAAAAAAAAAAAAAAAADgAH//wAAAAOAAf//AAAAD4AH//8AAAAPgAf//wAAAA+AB///AAAAD4AH//8AAAAPgAf//wAAAA+AB///AAAAD4AH//8AAAAPgAf//wAAAA+AB///AAAAD4AH//8AAAAPgAf//wAAAA+AB///AAAAD4AH//8AAAAPgAf//wAAAA+AB///AAAAD4AH//8AAAAPgAf//wAAKAAAACAAAABAAAAAAQAgAAAAAAAAEAAAww4AAMMOAAAAAAAAAAAAAABm/zwAZv/IAGb//wBm//8AZv//AGb//wBm//8AZv//AGb//wBm//8AZv//AGb//wBm//8AZv//AGb//wBm//8AZv//AGb//wBm//8AZv//AGb//wBm//8AZv//AGb//wBm//8AZv//AGb//wBm//8AZv//AGb//wBm/+oAZv+0AGf/SgBm/8wAZv//AGb//wBm//8AZv//AGb//wBm//8AZv//AGb//wBm//8AZv//AGb//wBm//8AZv//AGb//wBm//8AZv//AGb//wBm//8AZv//AGb//wBm//8AZv//AGb//wBm//8AZv//AGb//wBm//8AZv//AGb/7gBm/8IAZ/9PAGb/zgBm//8AZv//AGb//wBm//8AZv//AGb//wBm//8AZv//AGb//wBm//8AZv//AGb//wBm//8AZv//AGb//wBm//8AZv//AGb//wBm//8AZv//AGb//wBm//8AZv//AGb//wBm//8AZv//AGb//wBm//8AZv/vAGf/xwBn/08AZv/OAGb//wBm//8AZv//AGb//wBm//8AZv//AGb//wBm//8AZv//AGb//wBm//8AZv//AGb//wBm//8AZv//AGb//wBm//8AZv//AGb//wBm//8AZv//AGb//wBm//8AZv//AGb//wBm//8AZv//AGb//wBm/+8AZ//HAGf/TwBm/84AZv//AGb//wBm//8AZv//AGb//wBm//8AZv//AGb//wBm//8AZv//AGb//wBm//8AZv//AGb//wBm//8AZv//AGb//wBm//8AZv//AGb//wBm//8AZv//AGb//wBm//8AZv//AGb//wBm//8AZv//AGb/7wBn/8cAZ/9PAGb/zgBm//8AZv//AGb//wBm//8AZv//AGb//wBm//8AZv//AGb//wBm//8AZv//AGb//wBm//8AZv//AGb//wBm//8AZv//AGb/8wBm/9oAZv/EAGb/wwBm/8MAZv/eAGb/8wBm//8AZv//AGb//wBm//8AZv/vAGf/xwBn/08AZv/OAGb//wBm//8AZv//AGb//wBm//8AZv//AGb//wBm//8AZv//AGb//wBm//8AZv//AGb//wBm//8AZv//AGb//wBm//8AZv+VAGb/YgBm/0sAZv9LAGb/SwBm/2AAZv+kAGb/+wBm//8AZv//AGb//wBm/+8AZ//HAGf/TwBm/84AZv//AGb//wBm//8AZv//AGb//wBm//8AZv//AGb//wBm//8AZv//AGb//wBm//8AZv//AGb//wBm//8AZv//AGb//wBm/04AZv8QAAAAAAAAAAAAAAAAAGH/CgBl/2oAZv/0AGb//wBm//8AZv//AGb/7wBn/8cAZ/9PAGb/zgBm//8AZv//AGb//wBm//8AZv//AGb//wBm//8AZv//AGb//wBm//8AZv//AGb//wBm//8AZv//AGb//wBm//8AZv//AGX/OQBg/wQAAAAAAAAAAAAAAAAAAAAAAGb/XABm/+oAZv//AGb//wBm//8AZv/vAGf/xwBn/08AZv/OAGb//wBm//8AZv//AGb//wBm//8AZv//AGb//wBm//8AZv//AGb//wBm//8AZv//AGb//wBm//8AZv//AGb//wBm//8AZf85AGD/BAAAAAAAAAAAAAAAAAAAAAAAZv9cAGb/6gBm//8AZv//AGb//wBm/+8AZ//HAGf/TwBm/84AZv//AGb//wBm//8AZv//AGb//wBm//8AZv//AGb//wBm//8AZv//AGb//wBm//8AZv//AGb//wBm//8AZv//AGb//wBl/z4AYP8HAAAAAAAAAAAAAAAAAAD/AQBm/18AZv/vAGb//wBm//8AZv//AGb/7wBn/8cAZ/9PAGb/zgBm//8AZv//AGb//wBm//8AZv//AGb//wBm//8AZv//AGb//wBm//8AZv//AGb//wBm//8AZv//AGb//wBm//8AZv//AGX/ewBl/0EAZv8qAGb/KQBl/ykAZf8/AGb/jwBm//gAZv//AGb//wBm//8AZv/vAGf/xwBn/08AZv/OAGb//wBm//8AZv//AGb//wBm//8AZv//AGb//wBm//8AZv//AGb//wBm//8AZv//AGb//wBm//8AZv//AGb//wBm//8AZv/JAGb/mQBm/3kAZv93AGX/eABm/5wAZv/OAGb//wBm//8AZv//AGb//wBm/+8AZ//HAGf/TwBm/84AZv//AGb//wBm//8AZv//AGb//wBm//8AZv//AGb//wBm//8AZv//AGb//wBm//8AZv//AGb//wBm//8AZv//AGb//wBm//8AZv//AGb//wBm//8AZv//AGb//wBm//8AZv//AGb//wBm//8AZv//AGb/7wBn/8cAZ/9PAGb/zgBm//8AZv//AGb//wBm//8AZv//AGb//wBm//8AZv//AGb//wBm//8AZv//AGb//wBm//8AZv//AGb//wBm//8AZv//AGb//wBm//8AZv//AGb//wBm//8AZv//AGb//wBm//8AZv//AGb//wBm//8AZv/vAGf/xwBn/08AZv/OAGb//wBm//8AZv//AGb//wBm//8AZv//AGb//wBm//8AZv//AGb//wBm//8AZv//AGb//wBm//8AZv//AGb//wBm//8AZv//AGb//wBm//8AZv//AGb//wBm//8AZv//AGb//wBm//8AZv//AGb//wBm/+8AZ//HAGf/TwBm/84AZv//AGb//wBm//8AZv//AGb//wBm//8AZv//AGb//wBm//8AZv//AGb//wBm//8AZv//AGb//wBm//8AZv//AGb//wBm//8AZv//AGb//wBm//8AZv//AGb//wBm//8AZv//AGb//wBm//8AZv//AGb/7wBm/8QAZ/9PAGb/zgBm//8AZv//AGb//wBm//8AZv//AGb//gBm//sAZv/4AGb/+ABm//sAZv/+AGb//wBm//8AZv//AGb//wBm//8AZv//AGb//QBm//oAZv/4AGb/+ABm//gAZv/4AGb/+ABm//gAZv/4AGb/+ABm//gAZv/lAGb/tABn/08AZv/OAGb//wBm//8AZv//AGb//wBm//8AZv/vAGb/ywBm/6oAZv+rAGb/yQBm/+4AZv//AGb//wBm//8AZv//AGb//wBm//8AZv/lAGb/wwBm/6oAZv+qAGb/qgBm/6oAZv+qAGb/qgBm/6oAZv+qAGb/pwBm/4cAZ/85AGf/TwBm/84AZv//AGb//wBm//8AZv//AGb/7QBm/6cAZ/8qAGb/IgBm/yIAZv88AGb/egBm//8AZv//AGb//wBm//8AZv//AGb//gBn/2YAZ/8wAGb/IgBm/yIAZv8iAGb/IgBm/yIAZv8iAGb/IgBm/yIAZv8hAGb/GwBn/wsAZ/9PAGb/zgBm//8AZv//AGb//wBm//8AZv/hAGb/iwCA/wEAAAAAAAAAAABn/xEAZ/9QAGb//wBm//8AZv//AGb//wBm//8AZv/7AGf/OwBq/wYAAAAAAAAAAAAAAAAAAAAAAAAAAAAAAAAAAAAAAAAAAAAAAAAAAAAAAAAAAABn/08AZv/OAGb//wBm//8AZv//AGb//wBm/9kAZv+DAAAAAAAAAAAAAAAAAGj/CwBn/0UAZv//AGb//wBm//8AZv//AGb//wBm//kAZv8yAAAAAAAAAAAAAAAAAAAAAAAAAAAAAAAAAAAAAAAAAAAAAAAAAAAAAAAAAAAAAAAAAGf/TwBm/84AZv//AGb//wBm//8AZv//AGb/2QBm/4MAAAAAAAAAAAAAAAAAaP8LAGf/RQBm//8AZv//AGb//wBm//8AZv//AGb/+QBm/zIAAAAAAAAAAAAAAAAAAAAAAAAAAAAAAAAAAAAAAAAAAAAAAAAAAAAAAAAAAAAAAAAAZ/9PAGb/zgBm//8AZv//AGb//wBm//8AZv/ZAGb/gwAAAAAAAAAAAAAAAABo/wsAZ/9FAGb//wBm//8AZv//AGb//wBm//8AZv/5AGb/MgAAAAAAAAAAAAAAAAAAAAAAAAAAAAAAAAAAAAAAAAAAAAAAAAAAAAAAAAAAAAAAAABn/08AZv/OAGb//wBm//8AZv//AGb//wBm/9kAZv+DAAAAAAAAAAAAAAAAAGj/CwBn/0UAZv//AGb//wBm//8AZv//AGb//wBm//kAZv8yAAAAAAAAAAAAAAAAAAAAAAAAAAAAAAAAAAAAAAAAAAAAAAAAAAAAAAAAAAAAAAAAAGf/TwBm/84AZv//AGb//wBm//8AZv//AGb/2QBm/4MAAAAAAAAAAAAAAAAAaP8LAGf/RQBm//8AZv//AGb//wBm//8AZv//AGb/+QBm/zIAAAAAAAAAAAAAAAAAAAAAAAAAAAAAAAAAAAAAAAAAAAAAAAAAAAAAAAAAAAAAAAAAZ/9PAGb/zgBm//8AZv//AGb//wBm//8AZv/ZAGb/gwAAAAAAAAAAAAAAAABo/wsAZ/9FAGb//wBm//8AZv//AGb//wBm//8AZv/5AGb/MgAAAAAAAAAAAAAAAAAAAAAAAAAAAAAAAAAAAAAAAAAAAAAAAAAAAAAAAAAAAAAAAABn/08AZv/OAGb//wBm//8AZv//AGb//wBm/9kAZv+DAAAAAAAAAAAAAAAAAGj/CwBn/0UAZv//AGb//wBm//8AZv//AGb//wBm//kAZv8yAAAAAAAAAAAAAAAAAAAAAAAAAAAAAAAAAAAAAAAAAAAAAAAAAAAAAAAAAAAAAAAAAGf/TwBm/84AZv//AGb//wBm//8AZv//AGb/2QBm/4MAAAAAAAAAAAAAAAAAaP8LAGf/RQBm//8AZv//AGb//wBm//8AZv//AGb/+QBm/zIAAAAAAAAAAAAAAAAAAAAAAAAAAAAAAAAAAAAAAAAAAAAAAAAAAAAAAAAAAAAAAAAAZv9OAGb/zgBm//8AZv//AGb//wBm//8AZv/ZAGb/ggAAAAAAAAAAAAAAAABk/woAZv9EAGb//wBm//8AZv//AGb//wBm//4AZv/4AGb/MgAAAAAAAAAAAAAAAAAAAAAAAAAAAAAAAAAAAAAAAAAAAAAAAAAAAAAAAAAAAAAAAABl/z8AZv/DAGb/+gBm//8AZv//AGb//gBm/8sAZf9zAAAAAAAAAAAAAAAAAF//BwBl/zwAZv/tAGb//gBm//8AZv//AGb//ABm/+AAZv8tAAAAAAAAAAAAAAAAAAAAAAAAAAAAAAAAAAAAAAAAAAAAAAAAAAAAAAAAAAAAAAAAAGb/GQBm/6gAZv/tAGb//wBm//8AZv/7AGb/pwBl/0sAAAAAAAAAAAAAAAAAAP8AAGT/JwBm/74AZv/6AGb//wBm//8AZv/3AGf/pABn/yEAAAAAAAAAAAAAAAAAAAAAAAAAAAAAAAAAAAAAAAAAAAAAAAAAAAAAAAAAAAAAAAAAAAAAAAAAAAAAAAAAAAAAAAAAAAAAAAAAAAAAAAAHAAAAB4AAAAeAAAAHAAAAAAAAAAAAAAAAAAAAAAAAAAAAAAAAAAAAAAAAAAAAAAAAAABgB/8A4A//AOAP/wDgD/8A4A//AOAP/wDgD/8A4A//AOAP/wDgD/8A4A//AOAP/ygAAAAQAAAAIAAAAAEAIAAAAAAAAAQAAMMOAADDDgAAAAAAAAAAAAAAZv+HAGb//wBm//8AZv//AGb//wBm//8AZv//AGb//wBm//8AZv//AGb//wBm//8AZv//AGb//wBm//8AZv/TAGb/jgBm//8AZv//AGb//wBm//8AZv//AGb//wBm//8AZv//AGb//wBm//8AZv//AGb//wBm//8AZv//AGb/2wBm/44AZv//AGb//wBm//8AZv//AGb//wBm//8AZv//AGb//wBm//wAZv/nAGb/4QBm//QAZv//AGb//wBm/9sAZv+OAGb//wBm//8AZv//AGb//wBm//8AZv//AGb//wBm//8AZv+4AGb/LwBm/yUAZv9eAGb/+wBm//8AZv/bAGb/jgBm//8AZv//AGb//wBm//8AZv//AGb//wBm//8AZv//AGb/nABg/wIAAAAAAGb/LgBm//QAZv//AGb/2wBm/44AZv//AGb//wBm//8AZv//AGb//wBm//8AZv//AGb//wBm/64AZf8dAGX/FQBm/0sAZv/5AGb//wBm/9sAZv+OAGb//wBm//8AZv//AGb//wBm//8AZv//AGb//wBm//8AZv/yAGb/xABm/7sAZv/aAGb//wBm//8AZv/bAGb/jgBm//8AZv//AGb//wBm//8AZv//AGb//wBm//8AZv//AGb//wBm//8AZv//AGb//wBm//8AZv//AGb/2wBm/44AZv//AGb//wBm//8AZv/8AGb//ABm//8AZv//AGb//wBm//4AZv/8AGb//ABm//wAZv/8AGb//ABm/9MAZv+OAGb//wBm//8AZv/gAGb/cABm/3UAZv/ZAGb//wBm//8AZv/SAGb/cABm/2YAZv9mAGb/ZgBm/2UAZv86AGb/jgBm//8AZv//AGb/sgCA/wAAaP8HAGb/pQBm//8AZv//AGb/mABq/wEAAAAAAAAAAAAAAAAAAAAAAAAAAABm/44AZv//AGb//wBm/64AAAAAAGj/BQBm/6IAZv//AGb//wBm/5UAAAAAAAAAAAAAAAAAAAAAAAAAAAAAAAAAZv+OAGb//wBm//8AZv+uAAAAAABo/wUAZv+iAGb//wBm//8AZv+VAAAAAAAAAAAAAAAAAAAAAAAAAAAAAAAAAGb/jgBm//8AZv//AGb/rgAAAAAAaP8FAGb/ogBm//8AZv//AGb/lQAAAAAAAAAAAAAAAAAAAAAAAAAAAAAAAABm/44AZv//AGb//wBm/64AAAAAAGb/BQBm/6IAZv//AGb//wBm/5UAAAAAAAAAAAAAAAAAAAAAAAAAAAAAAAAAZv9xAGb/+QBm//4AZv+MAAAAAABa/wIAZv+DAGb//QBm//wAZv91AAAAAAAAAAAAAAAAAAAAAAAAAAAAAAAAAAAAAAAAAAAAAAAAAAAAAAAQAAAAAAAAAAAAAAAAAAAAAAAAAAAAAAAfAAAIPwAACD8AAAg/AAAIPwAACD8AAA==;rounded=1;shadow=0;glass=0;sketch=0;fontSize=14;fontColor=#000000;strokeColor=#000000;strokeWidth=1;fillColor=none;gradientColor=none;opacity=70;aspect=fixed;" vertex="1" parent="sUc3wa01CP6ThyDmhEzo-48">
          <mxGeometry x="10" y="61" width="40" height="40" as="geometry" />
        </mxCell>
        <mxCell id="sUc3wa01CP6ThyDmhEzo-51" value="" style="aspect=fixed;html=1;points=[];align=center;image;fontSize=12;image=img/lib/mscae/Application_Gateway.svg;rounded=1;shadow=0;glass=0;sketch=0;fontColor=#000000;strokeColor=#000000;strokeWidth=1;fillColor=#EEEEEE;gradientColor=none;opacity=70;" vertex="1" parent="sUc3wa01CP6ThyDmhEzo-30">
          <mxGeometry x="227" y="390" width="50" height="50" as="geometry" />
        </mxCell>
        <mxCell id="sUc3wa01CP6ThyDmhEzo-55" style="edgeStyle=orthogonalEdgeStyle;rounded=0;orthogonalLoop=1;jettySize=auto;html=1;fontSize=14;fontColor=#000000;" edge="1" parent="sUc3wa01CP6ThyDmhEzo-30" source="sUc3wa01CP6ThyDmhEzo-52" target="sUc3wa01CP6ThyDmhEzo-51">
          <mxGeometry relative="1" as="geometry" />
        </mxCell>
        <mxCell id="sUc3wa01CP6ThyDmhEzo-52" value="" style="html=1;dashed=0;whitespace=wrap;fillColor=#2875E2;strokeColor=#ffffff;points=[[0.005,0.63,0],[0.1,0.2,0],[0.9,0.2,0],[0.5,0,0],[0.995,0.63,0],[0.72,0.99,0],[0.5,1,0],[0.28,0.99,0]];shape=mxgraph.kubernetes.icon;prIcon=api;rounded=1;shadow=0;glass=0;sketch=0;fontSize=14;fontColor=#000000;opacity=70;" vertex="1" parent="sUc3wa01CP6ThyDmhEzo-30">
          <mxGeometry x="70" y="400" width="50" height="48" as="geometry" />
        </mxCell>
        <mxCell id="sUc3wa01CP6ThyDmhEzo-56" value="" style="aspect=fixed;html=1;points=[];align=center;image;fontSize=12;image=img/lib/mscae/Application_Gateway.svg;rounded=1;shadow=0;glass=0;sketch=0;fontColor=#000000;strokeColor=#000000;strokeWidth=1;fillColor=#EEEEEE;gradientColor=none;opacity=70;" vertex="1" parent="sUc3wa01CP6ThyDmhEzo-30">
          <mxGeometry x="227" y="152" width="50" height="50" as="geometry" />
        </mxCell>
        <mxCell id="sUc3wa01CP6ThyDmhEzo-58" value="API Gateway" style="text;html=1;strokeColor=none;fillColor=none;align=center;verticalAlign=middle;whiteSpace=wrap;rounded=0;shadow=0;glass=0;sketch=0;fontSize=14;fontColor=#000000;opacity=70;fontStyle=1" vertex="1" parent="sUc3wa01CP6ThyDmhEzo-30">
          <mxGeometry x="192" y="100" width="120" height="20" as="geometry" />
        </mxCell>
        <mxCell id="sUc3wa01CP6ThyDmhEzo-60" value="" style="rounded=1;whiteSpace=wrap;html=1;shadow=0;glass=0;dashed=1;sketch=0;fontSize=12;fontColor=#000000;strokeColor=#000000;strokeWidth=1;gradientColor=none;opacity=70;fillColor=none;" vertex="1" parent="sUc3wa01CP6ThyDmhEzo-30">
          <mxGeometry x="450" y="100" width="310" height="60" as="geometry" />
        </mxCell>
        <mxCell id="sUc3wa01CP6ThyDmhEzo-61" value="Purchase Service" style="text;html=1;strokeColor=none;fillColor=none;align=center;verticalAlign=middle;whiteSpace=wrap;rounded=0;shadow=0;glass=0;sketch=0;fontSize=14;fontColor=#000000;opacity=70;fontStyle=1" vertex="1" parent="sUc3wa01CP6ThyDmhEzo-30">
          <mxGeometry x="450" y="100" width="120" height="20" as="geometry" />
        </mxCell>
        <mxCell id="sUc3wa01CP6ThyDmhEzo-62" value="" style="rounded=1;whiteSpace=wrap;html=1;shadow=0;glass=0;dashed=1;sketch=0;fontSize=12;fontColor=#000000;strokeColor=#000000;strokeWidth=1;gradientColor=none;opacity=70;fillColor=none;" vertex="1" parent="sUc3wa01CP6ThyDmhEzo-30">
          <mxGeometry x="450" y="170" width="310" height="60" as="geometry" />
        </mxCell>
        <mxCell id="sUc3wa01CP6ThyDmhEzo-63" value="Delivery Service" style="text;html=1;strokeColor=none;fillColor=none;align=center;verticalAlign=middle;whiteSpace=wrap;rounded=0;shadow=0;glass=0;sketch=0;fontSize=14;fontColor=#000000;opacity=70;fontStyle=1" vertex="1" parent="sUc3wa01CP6ThyDmhEzo-30">
          <mxGeometry x="450" y="170" width="120" height="20" as="geometry" />
        </mxCell>
        <mxCell id="sUc3wa01CP6ThyDmhEzo-64" value="" style="rounded=1;whiteSpace=wrap;html=1;shadow=0;glass=0;dashed=1;sketch=0;fontSize=12;fontColor=#000000;strokeColor=#000000;strokeWidth=1;gradientColor=none;opacity=70;fillColor=none;" vertex="1" parent="sUc3wa01CP6ThyDmhEzo-30">
          <mxGeometry x="450" y="244" width="310" height="60" as="geometry" />
        </mxCell>
        <mxCell id="sUc3wa01CP6ThyDmhEzo-65" value="Sales Service" style="text;html=1;strokeColor=none;fillColor=none;align=center;verticalAlign=middle;whiteSpace=wrap;rounded=0;shadow=0;glass=0;sketch=0;fontSize=14;fontColor=#000000;opacity=70;fontStyle=1" vertex="1" parent="sUc3wa01CP6ThyDmhEzo-30">
          <mxGeometry x="450" y="244" width="120" height="20" as="geometry" />
        </mxCell>
        <mxCell id="sUc3wa01CP6ThyDmhEzo-66" value="" style="rounded=1;whiteSpace=wrap;html=1;shadow=0;glass=0;dashed=1;sketch=0;fontSize=12;fontColor=#000000;strokeColor=#000000;strokeWidth=1;gradientColor=none;opacity=70;fillColor=none;" vertex="1" parent="sUc3wa01CP6ThyDmhEzo-30">
          <mxGeometry x="450" y="320" width="310" height="60" as="geometry" />
        </mxCell>
        <mxCell id="sUc3wa01CP6ThyDmhEzo-67" value="Retail Service" style="text;html=1;strokeColor=none;fillColor=none;align=center;verticalAlign=middle;whiteSpace=wrap;rounded=0;shadow=0;glass=0;sketch=0;fontSize=14;fontColor=#000000;opacity=70;fontStyle=1" vertex="1" parent="sUc3wa01CP6ThyDmhEzo-30">
          <mxGeometry x="450" y="320" width="120" height="20" as="geometry" />
        </mxCell>
        <mxCell id="sUc3wa01CP6ThyDmhEzo-68" value="" style="rounded=1;whiteSpace=wrap;html=1;shadow=0;glass=0;dashed=1;sketch=0;fontSize=12;fontColor=#000000;strokeColor=#000000;strokeWidth=1;gradientColor=none;opacity=70;fillColor=none;" vertex="1" parent="sUc3wa01CP6ThyDmhEzo-30">
          <mxGeometry x="450" y="388" width="310" height="60" as="geometry" />
        </mxCell>
        <mxCell id="sUc3wa01CP6ThyDmhEzo-69" value="Stock Service" style="text;html=1;strokeColor=none;fillColor=none;align=center;verticalAlign=middle;whiteSpace=wrap;rounded=0;shadow=0;glass=0;sketch=0;fontSize=14;fontColor=#000000;opacity=70;fontStyle=1" vertex="1" parent="sUc3wa01CP6ThyDmhEzo-30">
          <mxGeometry x="450" y="388" width="120" height="20" as="geometry" />
        </mxCell>
        <mxCell id="sUc3wa01CP6ThyDmhEzo-71" value="" style="rounded=1;whiteSpace=wrap;html=1;shadow=0;glass=0;dashed=1;sketch=0;fontSize=12;fontColor=#000000;strokeColor=#000000;strokeWidth=1;gradientColor=none;opacity=70;fillColor=none;" vertex="1" parent="sUc3wa01CP6ThyDmhEzo-30">
          <mxGeometry x="450" y="460" width="310" height="60" as="geometry" />
        </mxCell>
        <mxCell id="sUc3wa01CP6ThyDmhEzo-72" value="Report Service" style="text;html=1;strokeColor=none;fillColor=none;align=center;verticalAlign=middle;whiteSpace=wrap;rounded=0;shadow=0;glass=0;sketch=0;fontSize=14;fontColor=#000000;opacity=70;fontStyle=1" vertex="1" parent="sUc3wa01CP6ThyDmhEzo-30">
          <mxGeometry x="450" y="460" width="120" height="20" as="geometry" />
        </mxCell>
        <mxCell id="sUc3wa01CP6ThyDmhEzo-73" value="" style="rounded=1;whiteSpace=wrap;html=1;shadow=0;glass=0;dashed=1;sketch=0;fontSize=12;fontColor=#000000;strokeColor=#000000;strokeWidth=1;gradientColor=none;opacity=70;fillColor=none;" vertex="1" parent="sUc3wa01CP6ThyDmhEzo-30">
          <mxGeometry x="450" y="530" width="310" height="60" as="geometry" />
        </mxCell>
        <mxCell id="sUc3wa01CP6ThyDmhEzo-74" value="Finance Service" style="text;html=1;strokeColor=none;fillColor=none;align=center;verticalAlign=middle;whiteSpace=wrap;rounded=0;shadow=0;glass=0;sketch=0;fontSize=14;fontColor=#000000;opacity=70;fontStyle=1" vertex="1" parent="sUc3wa01CP6ThyDmhEzo-30">
          <mxGeometry x="450" y="530" width="120" height="20" as="geometry" />
        </mxCell>
        <mxCell id="sUc3wa01CP6ThyDmhEzo-75" value="" style="rounded=1;whiteSpace=wrap;html=1;shadow=0;glass=0;dashed=1;sketch=0;fontSize=12;fontColor=#000000;strokeColor=#000000;strokeWidth=1;gradientColor=none;opacity=70;fillColor=none;" vertex="1" parent="sUc3wa01CP6ThyDmhEzo-30">
          <mxGeometry x="450" y="600" width="310" height="60" as="geometry" />
        </mxCell>
        <mxCell id="sUc3wa01CP6ThyDmhEzo-76" value="System Service" style="text;html=1;strokeColor=none;fillColor=none;align=center;verticalAlign=middle;whiteSpace=wrap;rounded=0;shadow=0;glass=0;sketch=0;fontSize=14;fontColor=#000000;opacity=70;fontStyle=1" vertex="1" parent="sUc3wa01CP6ThyDmhEzo-30">
          <mxGeometry x="450" y="600" width="120" height="20" as="geometry" />
        </mxCell>
        <mxCell id="sUc3wa01CP6ThyDmhEzo-59" value="Archive Service" style="text;html=1;strokeColor=none;fillColor=none;align=center;verticalAlign=middle;whiteSpace=wrap;rounded=0;shadow=0;glass=0;sketch=0;fontSize=14;fontColor=#000000;opacity=70;fontStyle=1" vertex="1" parent="sUc3wa01CP6ThyDmhEzo-30">
          <mxGeometry x="450" y="30" width="120" height="20" as="geometry" />
        </mxCell>
        <mxCell id="sUc3wa01CP6ThyDmhEzo-53" style="edgeStyle=orthogonalEdgeStyle;rounded=0;orthogonalLoop=1;jettySize=auto;html=1;entryX=0.005;entryY=0.63;entryDx=0;entryDy=0;entryPerimeter=0;fontSize=14;fontColor=#000000;" edge="1" parent="1" source="sUc3wa01CP6ThyDmhEzo-21" target="sUc3wa01CP6ThyDmhEzo-52">
          <mxGeometry relative="1" as="geometry" />
        </mxCell>
        <mxCell id="sUc3wa01CP6ThyDmhEzo-57" style="edgeStyle=orthogonalEdgeStyle;rounded=0;orthogonalLoop=1;jettySize=auto;html=1;fontSize=14;fontColor=#000000;" edge="1" parent="1" source="sUc3wa01CP6ThyDmhEzo-17" target="sUc3wa01CP6ThyDmhEzo-56">
          <mxGeometry relative="1" as="geometry" />
        </mxCell>
      </root>
    </mxGraphModel>
  </diagram>
  <diagram id="F7ThUYLlUmhFBNU3NRie" name="Page-2">
    <mxGraphModel dx="1422" dy="762" grid="1" gridSize="10" guides="1" tooltips="1" connect="1" arrows="1" fold="1" page="1" pageScale="1" pageWidth="827" pageHeight="1169" math="0" shadow="0">
      <root>
        <mxCell id="JOBpMZwbrayaIQ_Jk0mw-0" />
        <mxCell id="JOBpMZwbrayaIQ_Jk0mw-1" parent="JOBpMZwbrayaIQ_Jk0mw-0" />
      </root>
    </mxGraphModel>
  </diagram>
</mxfile>
